<svg width="34" height="82" viewBox="0 0 34 82" fill="none" xmlns="http://www.w3.org/2000/svg">
<path d="M16.5224 21.0571C14.1293 27.2784 19.5045 32.6535 23.9299 36.1913C26.4432 38.1987 29.1266 40.1978 30.881 42.9476C32.8386 46.0126 33.1912 49.7785 31.9262 53.1877C30.458 57.1486 27.2769 58.737 23.9257 60.8606C21.6487 62.3039 19.9234 64.1993 19.0939 66.8122C17.2068 72.739 20.5206 78.6699 25.51 81.8303C25.8087 82.0169 26.0492 81.569 25.7796 81.3699C22.7768 79.1219 20.2137 76.0487 19.546 72.2537C18.9321 68.7574 20.0271 64.9832 22.781 62.6647C25.2778 60.5661 28.4921 59.6205 30.6156 57.0407C32.117 55.2158 33.046 52.9513 33.3363 50.6121C34.0165 45.1333 30.8644 40.9692 26.8538 37.6471C22.0469 33.6655 14.4031 28.5392 16.9911 21.1899C17.1072 20.8829 16.6344 20.7627 16.5224 21.0571Z" fill="#EAE6D6"/>
<path d="M18.4852 31.7432C13.2374 30.0125 8.0156 27.6122 4.32135 23.5276C0.627106 19.443 -1.23298 13.3702 0.902508 8.30696C2.2898 5.01558 5.22543 2.49683 8.57675 1.19367C11.9281 -0.10949 15.6535 -0.25886 19.2023 0.328334C21.1455 0.652836 23.0836 1.20912 24.7202 2.29595C28.7262 4.95892 30.1032 10.2231 29.994 15.003C29.9577 16.6152 29.781 18.248 29.1731 19.7418C28.6795 20.9471 27.9209 22.0236 27.1675 23.0898C24.8346 26.3915 22.5016 29.6932 20.1635 33" fill="#FE8D42"/>
<path d="M18.2367 2.98717C19.5743 3.59395 20.9421 3.95801 22.1384 4.88137C22.7088 5.32458 23.2438 5.83638 23.7031 6.40623C24.1675 6.98135 24.4148 7.54591 25.0458 7.91526C25.4697 8.15797 25.9896 7.85194 25.9997 7.34541C26.025 5.74141 24.2483 4.26404 23.0672 3.45149C21.7043 2.5123 20.0033 1.79472 18.3528 2.05326C17.954 2.1113 17.8632 2.81305 18.2367 2.98717Z" fill="white"/>
</svg>
