<svg width="81" height="56" viewBox="0 0 81 56" fill="none" xmlns="http://www.w3.org/2000/svg">
<path d="M78.0521 54.5765L67.3256 43.8588C64.292 40.8277 59.331 40.8277 56.2974 43.8588L56.1801 43.9761C54.3868 45.7679 52.0068 46.756 49.476 46.756C46.9452 46.756 44.5653 45.7679 42.772 43.9761L32.1963 33.4091L33.3862 32.2201L43.9619 42.7871C46.9955 45.8182 51.9565 45.8182 54.9901 42.7871L55.1074 42.6698C56.9008 40.878 59.2807 39.8899 61.8115 39.8899C64.3423 39.8899 66.7222 40.878 68.5156 42.6698L79.2421 53.3876L78.0521 54.5765Z" fill="#39B1FF"/>
<path d="M0 24.5502L39.3529 39.3205L12.2852 12.2751L0 24.5502Z" fill="#8FD104"/>
<path d="M0.000488281 0V24.5502L12.2858 12.2751L0.000488281 0Z" fill="#FCD746"/>
<path d="M39.3528 39.3206L24.5536 0L12.2852 12.2751L39.3528 39.3206Z" fill="#FFA02E"/>
<path d="M12.2857 12.2751L24.5541 0H0.000488281L12.2857 12.2751Z" fill="#39CFFF"/>
<path d="M42.8728 42L40.8784 48.933L35.9341 43.9928L42.8728 42Z" fill="#39B1FF"/>
<path d="M41.9678 42.8875L48.9065 40.9115L43.9622 35.9713L41.9678 42.8875Z" fill="#39B1FF"/>
<path d="M42.3799 40.4648L40.3296 42.5133L42.131 44.3132L44.1813 42.2647L42.3799 40.4648Z" fill="#39CFFF"/>
<path d="M57.4031 41.2966L60.9059 47.61H53.917L57.4031 41.2966Z" fill="#FFA02E"/>
<path d="M57.404 42.5694L60.9069 36.256H53.918L57.404 42.5694Z" fill="#FFA02E"/>
<path d="M58.526 40.5598H55.9785V43.4569H58.526V40.5598Z" fill="#F9920B"/>
<path d="M74.8846 49.0837L72.9068 56L67.9458 51.0598L74.8846 49.0837Z" fill="#8FD104"/>
<path d="M73.9966 49.9713L80.9353 47.9785L75.9743 43.0383L73.9966 49.9713Z" fill="#8FD104"/>
<path d="M74.3881 47.5361L72.3379 49.5846L74.1393 51.3845L76.1895 49.336L74.3881 47.5361Z" fill="#8FD104"/>
</svg>
