<svg width="319" height="260" viewBox="0 0 319 260" fill="none" xmlns="http://www.w3.org/2000/svg">
<path d="M277.737 112.51C271.967 127.51 284.927 140.47 295.597 149C301.657 153.84 308.127 158.66 312.357 165.29C317.077 172.68 317.927 181.76 314.877 189.98C311.337 199.53 303.667 203.36 295.587 208.48C290.097 211.96 285.937 216.53 283.937 222.83C279.387 237.12 287.377 251.42 299.407 259.04C300.127 259.49 300.707 258.41 300.057 257.93C292.817 252.51 286.637 245.1 285.027 235.95C283.547 227.52 286.187 218.42 292.827 212.83C298.847 207.77 306.597 205.49 311.717 199.27C315.337 194.87 317.577 189.41 318.277 183.77C319.917 170.56 312.317 160.52 302.647 152.51C291.057 142.91 272.627 130.55 278.867 112.83C279.147 112.09 278.007 111.8 277.737 112.51Z" fill="#EAE6D6"/>
<path d="M208.716 50.1501C225.556 68.8101 239.506 96.2801 225.246 120.62C220.206 129.23 209.066 134.48 206.446 144.47C204.436 152.12 209.336 160.09 216.976 161.88C217.606 162.03 217.816 161.16 217.236 160.93C210.406 158.21 206.246 151 208.836 143.85C210.736 138.58 215.386 134.91 219.286 131.12C226.516 124.09 231.046 115.5 232.486 105.47C235.556 84.0101 224.216 64.0701 209.366 49.5001C208.946 49.0901 208.326 49.7201 208.716 50.1501Z" fill="#EAE6D6"/>
<path d="M278.296 108.9C268.196 105.54 258.146 100.88 251.036 92.9501C243.926 85.0201 240.346 73.2301 244.456 63.4001C247.126 57.0101 252.776 52.1201 259.226 49.5901C265.676 47.0601 272.846 46.7701 279.676 47.9101C283.416 48.5401 287.146 49.6201 290.296 51.7301C298.006 56.9001 300.656 67.1201 300.446 76.4001C300.376 79.5301 300.036 82.7001 298.866 85.6001C297.916 87.9401 296.456 90.0301 295.006 92.1001C290.516 98.5101 286.026 104.92 281.526 111.34" fill="#FE8D42"/>
<path d="M210.496 50.45C195.286 49.88 180.996 38.95 176.476 24.42C175.516 21.33 174.966 17.98 175.906 14.89C177.566 9.41004 183.256 6.31004 188.556 4.15004C194.066 1.90004 199.856 -0.00996091 205.806 3.90904e-05C211.756 0.0100391 217.956 2.19004 221.636 6.86004C223.096 8.71004 224.116 10.88 224.896 13.11C229.756 27.15 223.916 44.15 211.446 52.23" fill="#709CC7"/>
<path d="M207.736 44.76C208.776 49.88 208.126 55.33 205.906 60.06C207.026 59.38 208.296 58.96 209.596 58.85C210.316 58.79 211.066 58.81 211.696 58.46C212.886 57.81 213.106 56.21 213.916 55.13C214.186 54.76 214.606 54.43 215.056 54.49C215.336 54.53 215.566 54.71 215.796 54.87C216.516 55.38 217.386 55.78 218.256 55.66C219.126 55.53 219.936 54.71 219.776 53.84C216.056 51.91 212.786 49.13 210.266 45.78" fill="#709CC7"/>
<path d="M278.276 104.75C277.436 106.75 276.596 108.76 275.356 110.54C274.116 112.32 272.446 113.86 270.396 114.56C271.556 114.43 272.776 115 273.406 115.99C273.926 116.81 274.176 117.96 275.096 118.28C275.956 118.58 276.816 117.95 277.616 117.51C278.406 117.07 279.646 116.93 280.016 117.75C280.136 118.02 280.126 118.34 280.256 118.61C280.436 118.96 280.826 119.13 281.186 119.26C282.116 119.59 283.386 119.65 283.856 118.78C284.346 117.88 283.556 116.86 283.116 115.94C282.556 114.78 282.546 113.44 282.556 112.15C282.566 108.6 282.566 105.05 282.576 101.5" fill="#FE8D42"/>
<path d="M162.616 126.54C159.806 143.06 142.736 151.81 127.116 151.8C107.366 151.79 89.1864 141.67 69.8764 138.71C44.3364 134.79 3.86639 139.89 0.226389 172.27C-1.31361 185.98 5.06638 200.79 17.4364 207.46C18.0464 207.79 18.5464 206.92 17.9764 206.54C5.70639 198.42 -0.743623 183.23 2.52638 168.76C6.17638 152.6 21.8764 143.77 37.0064 140.72C55.4164 137.01 74.0064 140.46 91.6664 145.93C106.506 150.53 122.386 156.02 138.006 152.07C150.336 148.95 162.536 140.22 163.796 126.7C163.856 126.03 162.726 125.87 162.616 126.54Z" fill="#EAE6D6"/>
<path d="M163.347 125.2C166.157 113.18 156.586 100.86 159.296 88.8201C161.256 80.0901 170.017 73.6501 178.967 73.6101C187.917 73.5701 196.406 79.4201 200.316 87.4701C204.226 95.5201 203.756 105.35 199.866 113.41C197.486 118.35 193.636 122.86 188.456 124.65C186.126 125.45 183.646 125.67 181.196 125.88C175.976 126.33 170.746 126.79 165.526 127.24" fill="#FFC7D7"/>
<path d="M164.737 122.19C162.507 124.93 159.727 127.22 156.597 128.88C157.437 128.95 158.237 129.47 158.637 130.21C159.047 130.97 159.047 131.86 159.237 132.7C159.427 133.54 159.947 134.43 160.797 134.55C161.937 134.71 163.007 133.4 164.077 133.82C164.827 134.11 165.077 135.1 165.777 135.51C166.707 136.06 167.957 135.26 168.297 134.23C168.637 133.2 168.357 132.09 168.127 131.03C167.447 127.83 167.287 124.52 167.667 121.28" fill="#FFC7D7"/>
<path d="M167.427 88.43C169.167 87.23 170.747 85.89 172.747 85.12C174.627 84.4 176.637 84.41 178.517 83.74C179.097 83.53 179.287 82.71 178.697 82.37C174.677 80.09 168.097 83.29 166.237 87.24C165.907 87.96 166.637 88.97 167.427 88.43Z" fill="white"/>
<path d="M184.066 85.1801C186.556 85.1801 186.556 81.3101 184.066 81.3101C181.576 81.3201 181.576 85.1801 184.066 85.1801Z" fill="white"/>
<path d="M278.326 54.3101C280.976 55.4601 283.686 56.1502 286.056 57.9002C287.186 58.7402 288.246 59.7102 289.156 60.7902C290.076 61.8802 290.566 62.9502 291.816 63.6502C292.656 64.1102 293.686 63.5302 293.706 62.5702C293.756 59.5302 290.236 56.7302 287.896 55.1902C285.196 53.4102 281.826 52.0502 278.556 52.5402C277.766 52.6502 277.586 53.9801 278.326 54.3101Z" fill="white"/>
<path d="M182.766 21.28C182.776 19.31 183.616 17.74 185.036 16.41C186.186 15.34 187.476 14.52 188.186 13.07C188.416 12.6 188.146 11.99 187.566 11.99C183.186 12.05 179.226 17.4 180.416 21.59C180.786 22.89 182.766 22.64 182.766 21.28Z" fill="white"/>
<path d="M191.887 10.65C192.987 10.36 194.527 9.59998 194.297 8.24998C194.297 8.41998 194.297 8.58998 194.297 8.75998C194.307 8.70998 194.317 8.66998 194.337 8.61998C194.417 8.31998 194.337 7.98998 194.107 7.76998C193.837 7.49998 193.477 7.47998 193.127 7.57998C193.297 7.57998 193.467 7.57998 193.637 7.57998C192.787 7.37998 192.067 8.13998 191.247 8.30998C189.737 8.63998 190.367 11.04 191.887 10.65Z" fill="white"/>
</svg>
