<svg width="51" height="102" viewBox="0 0 51 102" fill="none" xmlns="http://www.w3.org/2000/svg">
<path d="M50.587 41.5464C48.3966 68.5978 28.3654 89.6507 28.3654 89.6507C28.3654 89.6507 28.3344 89.612 28.2648 89.5423C28.2648 89.3953 28.257 89.2327 28.257 89.0857C28.2028 85.1924 28.1332 79.906 28.0867 73.9771C27.9861 60.7958 27.9706 44.4644 28.3654 33.3419C28.8762 18.9532 27.8468 6.63879 26.8174 0.0675023C27.3592 0.00558203 27.8778 -0.00989651 28.3654 0.00558357C30.014 0.0752439 31.562 0.253265 33.0172 0.547387C43.3037 2.59076 48.8765 10.1063 50.4942 23.187V23.2025C51.1443 28.4193 51.1598 34.5416 50.587 41.5464Z" fill="#1D8D4C"/>
<path d="M28.3651 33.334C27.9704 44.4564 27.9859 60.7802 28.0865 73.9692C28.1329 79.8903 28.2026 85.1845 28.2568 89.0778C28.2568 89.2326 28.2568 89.3873 28.2645 89.5344C28.2258 89.488 28.1639 89.4183 28.0865 89.3332C27.4286 88.5824 25.6329 86.5003 23.2412 83.443C22.088 80.4863 20.8341 77.1581 19.5802 73.6441C16.5926 65.2462 13.6281 55.7801 12.1575 47.7305C9.26274 31.933 13.4733 14.0923 16.8944 4.08439C20.4394 1.76238 23.9688 0.369172 26.8249 0.0595703C27.8466 6.63086 28.876 18.953 28.3651 33.334Z" fill="#209B8A"/>
<path d="M23.2414 83.4436C20.9736 80.5488 18.1717 76.7871 15.3078 72.4682C9.07712 63.0795 2.54453 51.067 0.524376 39.6736C-2.38588 23.2725 7.33561 10.3312 16.8946 4.08496C13.4735 14.0928 9.26288 31.9336 12.1577 47.731C13.6283 55.7807 16.5927 65.2545 19.5803 73.6447C20.8342 77.1664 22.0881 80.4869 23.2414 83.4436Z" fill="#54B6A8"/>
<path d="M50.587 41.5468C48.3965 68.5982 28.3653 89.6511 28.3653 89.6511C28.3653 89.6511 28.3344 89.6124 28.2647 89.5427C28.226 89.4963 28.1641 89.4266 28.0867 89.3415C28.1409 89.2564 28.2028 89.1712 28.257 89.0783C31.7477 83.552 34.3406 76.5472 36.2679 69.1013C38.8221 59.2405 40.1998 48.6134 40.9506 39.6505C42.22 24.4258 37.1735 10.8265 33.0171 0.540039C43.3036 2.58341 48.8764 10.099 50.4941 23.1797V23.1951C51.1442 28.4197 51.1597 34.542 50.587 41.5468Z" fill="url(#paint0_linear_769_5656)"/>
<path d="M33.311 92.9561L33.2491 94.0087L33.1717 95.2007L32.8002 101.478H22.8852L22.6375 94.953L22.6143 94.3415L22.5679 92.9561H33.311Z" fill="#8A3515"/>
<path d="M35.161 91.8804L35.0759 93.0336L34.9985 94.2256L34.5805 100.402L32.8003 101.478L33.1718 95.2008L33.2492 94.0089L33.3111 92.9562L35.161 91.8804Z" fill="#6B200F"/>
<path opacity="0.4" d="M35.076 93.0332L34.9986 94.2252L33.1719 95.2004L22.6377 94.9527L22.6145 94.3413L33.2493 94.0084L35.076 93.0332Z" fill="#BD4015"/>
<path d="M22.5679 92.9562L24.2784 91.8804H35.1532L33.311 92.9562H22.5679Z" fill="#631F0F"/>
<path d="M35.2772 93.2426L34.2943 93.9315L33.3113 94.6126V92.9562L33.7912 92.6776L35.1611 91.8804L35.2772 93.2426Z" fill="#A93311"/>
<path d="M23.7059 92.956L20.6951 80.1152L21.4226 81.0827L24.2787 92.956H23.7059Z" fill="#804E2F"/>
<path d="M31.3994 92.9562L34.2323 82.3833L35.1533 81.083L32.0418 92.9562H31.3994Z" fill="#804E2F"/>
<path d="M26.1905 91.8806L24.5264 85.0693L25.3159 86.0446L26.5697 91.8806H26.1905Z" fill="#804E2F"/>
<path d="M30.1919 91.8804L31.113 86.4004L31.9411 85.3091L30.8266 91.8804H30.1919Z" fill="#804E2F"/>
<path opacity="0.2" d="M33.3112 92.9561L32.8004 101.478H27.4907C30.548 99.3261 31.0279 94.9839 31.0821 92.9561H33.3112Z" fill="#8A3515"/>
<path d="M33.3112 92.9561V94.6124L31.1053 94.5582L22.1191 94.357L22.3591 93.5985L22.5681 92.9561H33.3112Z" fill="#BD4015"/>
<path opacity="0.4" d="M33.3111 92.9561V94.6047L31.113 94.5582C30.9969 94.0397 30.8343 93.3431 30.7415 92.9561H33.3111Z" fill="#BD4015"/>
<path opacity="0.4" d="M34.2943 93.9316L33.3113 94.6127V92.9564L33.7912 92.6777L34.2943 93.9316Z" fill="#BD4015"/>
<path opacity="0.3" d="M27.6221 92.9561L22.3589 93.5985L22.5679 92.9561H27.6221Z" fill="#BD4015"/>
<path opacity="0.2" d="M50.587 41.546C48.3965 68.5975 28.3653 89.6504 28.3653 89.6504C28.3653 89.6504 28.3343 89.6117 28.2647 89.542C28.226 89.4956 28.1641 89.4259 28.0867 89.3408C27.4288 88.59 25.6331 86.5079 23.2414 83.4506C20.9736 80.5558 18.1717 76.7942 15.3079 72.4752C16.6546 72.9396 18.0943 73.3498 19.5726 73.6517C22.3126 74.2167 25.2151 74.4257 28.0867 73.9691C29.0929 73.8143 30.0836 73.5743 31.0666 73.2415C32.5604 72.7306 34.3716 71.2987 36.2679 69.1006C43.2339 61.0664 51.4848 42.916 50.4941 23.2021C51.1442 28.4189 51.1597 34.5413 50.587 41.546Z" fill="#1D94BF"/>
<path opacity="0.3" d="M17.2196 9.73508C13.4037 8.77532 4.42528 27.9087 10.269 31.5001C16.1205 35.0992 24.0231 11.4456 17.2196 9.73508Z" fill="#F6ECD6"/>
<defs>
<linearGradient id="paint0_linear_769_5656" x1="30.8088" y1="15.2806" x2="49.1192" y2="102.763" gradientUnits="userSpaceOnUse">
<stop stop-color="#E7510D"/>
<stop offset="0.5743" stop-color="#DC430C"/>
<stop offset="1" stop-color="#D1360C"/>
</linearGradient>
</defs>
</svg>
