<svg width="30" height="36" viewBox="0 0 30 36" fill="none" xmlns="http://www.w3.org/2000/svg">
<path d="M18.4998 23.8721C18.578 24.1 22.6478 32.3373 21.671 34.4862C20.6943 36.6351 17.79 24.8032 17.79 24.8032L16.5268 24.8944C16.5268 24.8944 18.7342 34.7272 17.6403 35.2807C16.5398 35.8342 15.3872 24.3409 15.3872 24.3409" fill="#FFB1C7"/>
<path d="M15.7126 26.4703C14.3972 27.5838 13.0753 28.7038 11.7599 29.8173C10.705 30.7159 9.59805 31.6341 8.26314 32.0052C6.92823 32.3764 5.28726 32.0313 4.57097 30.8462C4.22584 30.2731 4.12817 29.5764 4.16724 28.9056C4.28445 26.6396 5.91891 24.5298 8.08081 23.846C4.59051 22.5046 1.71883 19.6329 0.390436 16.1426C0.0974072 15.3808 -0.123999 14.5472 0.0778648 13.7528C0.488105 12.1314 2.38955 11.4476 4.03702 11.1286C4.88355 10.9658 5.7431 10.8225 6.60265 10.8942C9.53294 11.1416 11.6362 13.7203 13.3879 16.0775L16.0447 18.005L17.7898 13.87C18.4605 11.9556 19.1573 9.98251 20.5052 8.46527C21.8531 6.94803 24.0151 5.96476 25.9425 6.60291C27.9221 7.2606 29.0877 9.46808 29.0551 11.5518C29.0226 13.6356 28.0198 15.5891 26.8086 17.2822C25.5974 18.9752 24.1518 20.5055 23.0318 22.2637C25.7146 22.153 28.3193 24.2432 28.7882 26.887C28.8272 27.1149 28.8533 27.3559 28.7947 27.5838C28.7165 27.8963 28.4821 28.1503 28.2347 28.3522C26.8933 29.4526 24.9202 29.5308 23.2988 28.9187C21.6773 28.3066 20.3424 27.1084 19.1638 25.8386L17.1452 24.3409L15.7126 26.4703Z" fill="#FFB1C7"/>
<path d="M7.38441 30.9048C6.66811 31.1522 5.76299 30.7615 5.54159 30.0126C5.32019 29.2573 5.66531 28.4368 6.4337 28.1698C7.14999 27.9224 8.05511 28.3131 8.27651 29.0619C8.50442 29.8173 8.15279 30.6378 7.38441 30.9048Z" fill="#FE8D42"/>
<path d="M8.15275 17.8031C8.26996 16.8459 8.34161 15.7845 7.7816 14.9966C7.48206 14.5798 7.03926 14.2933 6.60297 14.0263C6.01691 13.6747 5.39829 13.3361 4.72758 13.2319C4.05036 13.1277 3.295 13.297 2.8522 13.8114C2.25312 14.5017 2.37685 15.5566 2.65685 16.4357C2.87825 17.1324 3.19081 17.8096 3.67268 18.3566C4.15455 18.9036 4.82525 19.3139 5.55457 19.3659C6.28389 19.418 7.05878 19.0729 7.4039 18.4348" fill="#FE8D42"/>
<path d="M25.878 27.74C25.1161 28.007 24.1524 27.5903 23.918 26.7893C23.677 25.9884 24.0547 25.1093 24.8687 24.8293C25.6306 24.5623 26.5943 24.9791 26.8287 25.78C27.0632 26.5744 26.692 27.4535 25.878 27.74Z" fill="#FE8D42"/>
<path d="M20.4535 13.3035C20.4405 12.3984 20.7856 11.4867 21.3977 10.8225C22.0098 10.1518 22.8889 9.73506 23.794 9.66994C24.2368 9.63739 24.7122 9.7025 25.0638 9.96948C25.3633 10.1909 25.5522 10.536 25.6824 10.8876C26.0471 11.8253 26.0992 12.8737 25.8452 13.844C25.6564 14.5538 25.2852 15.2375 24.7057 15.6868C24.1261 16.1361 23.3187 16.3249 22.6349 16.0645C21.9447 15.804 21.4758 15.1398 21.2023 14.4496C21.007 13.9612 20.9028 13.3686 21.2023 12.9323" fill="#FE8D42"/>
<path d="M15.9598 14.9901C17.0863 16.5138 17.9784 18.2199 18.584 20.0171C19.1505 21.6972 19.4566 23.6246 18.6361 25.194C18.1998 26.034 17.1384 26.7503 16.3375 26.2489C16.0184 26.047 15.8231 25.7019 15.6603 25.3633C14.5272 23.1037 13.876 20.5967 13.7718 18.0701C13.7458 17.4385 13.7523 16.7808 14.0128 16.2012C14.2732 15.6217 14.8333 15.1333 15.4649 15.1528" fill="#4C3687"/>
<path d="M17.2758 24.6535C17.6144 25.474 17.9856 26.2749 18.3958 27.0628C18.741 27.727 19.0991 28.7168 19.7177 29.1922C20.8377 30.0582 23.2341 29.3615 24.5364 29.3419C25.0313 29.3354 24.9532 28.5605 24.4453 28.6582C22.8759 28.9512 20.5382 29.4201 19.4442 27.968C18.6824 26.9586 18.181 25.6433 17.5819 24.5298C17.4972 24.3605 17.2042 24.4712 17.2758 24.6535Z" fill="#4C3687"/>
<path d="M16.2206 24.8619C15.4327 26.3205 14.7294 28.3196 14.8401 30.0061C14.9508 31.5624 16.8067 32.4611 18.0048 33.0797C18.4411 33.3076 18.8188 32.6694 18.389 32.422C17.8941 32.1355 17.3928 31.8685 16.9174 31.5494C15.843 30.8396 15.5304 30.2015 15.615 28.8275C15.6997 27.5252 16.1881 26.2358 16.5202 24.9856C16.5723 24.8098 16.3118 24.6926 16.2206 24.8619Z" fill="#4C3687"/>
<path d="M24.3407 28.7689C24.3277 29.2117 24.4709 29.6415 24.4774 30.0908C24.4904 30.5466 24.4384 31.0024 24.4188 31.4583C24.3928 32.0769 25.3044 32.0508 25.363 31.4583C25.4542 30.5661 25.5584 29.2508 24.9137 28.5345C24.7184 28.3001 24.3537 28.4889 24.3407 28.7689Z" fill="#4C3687"/>
<path d="M18.4933 32.4611C18.0636 32.4676 17.8291 32.995 17.6533 33.3271C17.3863 33.8285 17.1324 34.3625 16.9435 34.8965C16.7417 35.4565 17.6728 35.7234 17.8422 35.1439C17.8487 35.1244 17.8552 35.1048 17.8617 35.0853C17.9463 34.7923 17.6403 34.4276 17.3277 34.5513C17.3082 34.5578 17.2887 34.5644 17.2691 34.5709C17.4449 34.7988 17.6208 35.0267 17.7966 35.2546C17.9203 35.0006 19.1054 32.448 18.4933 32.4611Z" fill="#4C3687"/>
<path d="M11.851 14.417C12.3459 15.8366 13.9022 16.5919 15.3218 16.097C16.7413 15.6021 17.4967 14.0458 17.0018 12.6263C16.5069 11.2067 14.9506 10.4514 13.5311 10.9462C12.1115 11.4411 11.3561 12.9974 11.851 14.417Z" fill="#4C3687"/>
<path d="M15.3677 11.363C15.2049 7.82713 14.99 3.97217 16.9826 0.885603C17.1324 0.657692 16.7938 0.403732 16.6049 0.599085C14.1761 3.0996 14.4561 8.25691 14.9705 11.4216C15.0096 11.6365 15.3742 11.5844 15.3677 11.363Z" fill="#4C3687"/>
<path d="M13.4922 12.1379C13.1015 8.5955 11.0633 3.52285 7.41677 2.2726C7.10421 2.1619 6.87629 2.68284 7.18885 2.81958C10.5424 4.25868 12.4438 8.81691 13.121 12.1965C13.1601 12.3984 13.5118 12.3528 13.4922 12.1379Z" fill="#4C3687"/>
<path d="M17.1319 0.95072C17.744 0.95072 17.744 0 17.1319 0C16.5198 0 16.5198 0.95072 17.1319 0.95072Z" fill="#4C3687"/>
<path d="M6.69395 2.37028C6.69395 2.38981 6.69395 2.40935 6.69395 2.42889C6.71349 2.87169 7.29956 3.05401 7.54049 2.6568C7.547 2.64377 7.56001 2.62424 7.56652 2.61122C7.98328 1.92097 6.66139 1.59538 6.69395 2.37028Z" fill="#4C3687"/>
<path d="M14.1889 16.0059C12.3265 16.3901 10.4772 17.5557 8.87532 18.5455C8.54973 18.7473 8.84926 19.2552 9.17485 19.0534C10.8353 18.0245 12.6782 17.3733 14.3517 16.3966C14.5666 16.2729 14.4168 15.9603 14.1889 16.0059Z" fill="#4C3687"/>
<path d="M21.0133 28.9708L17.6272 17.5166C17.523 17.1715 17.2169 16.9371 16.8588 16.924C14.9183 16.8785 8.94701 16.6571 8.94701 16.6571C7.59908 17.1585 6.62884 17.7575 6.1665 18.5064L12.6652 28.9187L20.4728 29.6285C20.8375 29.6675 21.1175 29.3224 21.0133 28.9708Z" fill="#C63A2A"/>
<path d="M17.9725 31.1066L20.4991 29.075L17.0609 17.5622L8.97979 17.1975C8.97979 17.1975 9.097 17.4189 8.34815 17.8878C7.60581 18.3566 6.72021 18.6822 6.72021 18.6822L10.2756 30.2731L17.9725 31.1066Z" fill="white"/>
<path d="M14.0782 18.7799C12.3656 18.7408 7.48833 18.565 6.38785 18.5259C6.27715 18.5194 6.19901 18.6301 6.23157 18.7343L9.85862 30.8787L17.7639 31.5038C18.096 31.5299 18.3434 31.2173 18.2523 30.8982L14.8401 19.3725C14.7424 19.0273 14.4364 18.7864 14.0782 18.7799Z" fill="#FE603D"/>
<path d="M16.3572 16.0059C17.2884 16.2924 18.1936 16.5008 18.8708 17.2692C19.8215 18.3371 19.3071 19.8022 17.7638 19.7241C17.3405 19.7046 17.3405 20.3818 17.7638 20.3818C19.0987 20.3818 20.401 19.366 19.9973 17.9334C19.6066 16.5529 17.8094 15.4589 16.4093 15.5826C16.1749 15.6087 16.1163 15.9277 16.3572 16.0059Z" fill="#4C3687"/>
<path d="M17.6791 20.0302C17.4317 19.5092 17.08 19.0469 16.6438 18.6692C16.5851 18.6171 16.5005 18.5715 16.4419 18.6171C16.4224 18.6366 16.4093 18.6627 16.4028 18.6952C16.3377 18.9362 16.4614 19.1836 16.6177 19.379C16.774 19.5743 16.9628 19.7436 17.0801 19.965C16.761 19.8283 16.4093 19.7632 16.0577 19.7892C15.9796 19.7957 15.8949 19.8022 15.8363 19.8543C15.7777 19.8999 15.7451 19.9976 15.7972 20.0627C15.8298 20.1018 15.8819 20.1148 15.9275 20.1213C16.2075 20.1799 16.494 20.245 16.774 20.3036C16.3898 20.4078 16.0186 20.5511 15.667 20.7464C16.0447 20.8767 16.4679 20.8506 16.8261 20.6748C16.6893 20.8376 16.5526 20.9939 16.4224 21.1567C16.3768 21.2153 16.3247 21.2934 16.3638 21.352C16.4093 21.4302 16.5265 21.3911 16.6047 21.339C17.0279 21.059 17.3861 20.6683 17.6205 20.219" fill="#4C3687"/>
<path d="M6.62853 20.3427C6.7262 20.0952 6.93459 19.8999 7.18855 19.8283C7.22762 19.8152 7.2732 19.8087 7.31227 19.8283C7.40995 19.8738 7.35784 20.0236 7.29923 20.1148C7.18202 20.2841 7.06483 20.4534 6.94761 20.6292C7.0518 20.5901 7.16249 20.5511 7.2797 20.5511C7.39691 20.5511 7.51412 20.6032 7.56622 20.7008C7.57924 20.7204 7.58577 20.7464 7.57925 20.7725C7.57274 20.805 7.54017 20.8246 7.50762 20.8376C7.34482 20.9222 7.16249 20.9743 6.98017 20.9808C7.25366 20.9418 7.5467 21.0525 7.72251 21.2674C7.67042 21.3455 7.55319 21.339 7.46203 21.326C7.18853 21.2869 6.90203 21.2283 6.70016 21.0394C6.4983 20.8571 6.41365 20.5055 6.60249 20.3036" fill="#4C3687"/>
<path d="M15.8557 13.87C15.6538 13.6812 15.4715 13.4793 15.2892 13.284L15.0222 12.9975C14.9766 12.9519 14.931 12.9128 14.8919 12.8802C14.8789 12.8737 14.8463 12.8477 14.8529 12.8542C14.8594 12.8542 14.8333 12.8477 14.8854 12.8607C14.9245 12.8607 14.9571 12.8477 14.9831 12.8347C15.0547 12.763 14.9831 12.8477 14.9766 12.8868C14.957 12.9389 14.944 12.9975 14.9245 13.0626L14.8529 13.4533C14.7943 13.7138 14.7422 13.9807 14.6575 14.2412C14.6445 14.2868 14.5989 14.3128 14.5533 14.2998C14.5208 14.2933 14.5012 14.2607 14.4947 14.2347C14.4556 13.9547 14.4491 13.6812 14.4621 13.4012C14.4621 13.2644 14.4882 13.1212 14.5077 12.9844C14.5208 12.9128 14.5338 12.8412 14.5533 12.763C14.5924 12.6784 14.5598 12.6198 14.7291 12.457C14.8203 12.3658 15.0352 12.4244 15.0482 12.4505C15.1199 12.483 15.1329 12.5091 15.1784 12.5416C15.2436 12.6002 15.2957 12.6523 15.3412 12.7109C15.4324 12.8216 15.5301 12.9258 15.6017 13.0496C15.7515 13.284 15.8882 13.5249 15.9924 13.7854C16.0119 13.831 15.9859 13.8765 15.9468 13.8961C15.9143 13.8961 15.8817 13.8896 15.8557 13.87Z" fill="#1A0F39"/>
<path d="M13.6095 14.3389L13.2579 13.6291C13.1993 13.5184 13.1407 13.3947 13.0756 13.297C13.043 13.2514 13.0104 13.2058 12.9844 13.1863C12.9779 13.1863 12.9714 13.1863 13.0104 13.1928C13.0365 13.1993 13.0821 13.1537 13.069 13.1733C13.0365 13.2058 12.9844 13.3491 12.9583 13.4663L12.8737 13.844L12.7239 14.6254C12.7174 14.671 12.6718 14.697 12.6262 14.6905C12.5872 14.684 12.5611 14.6514 12.5611 14.6189C12.5351 14.3454 12.5416 14.0719 12.5611 13.7984C12.5676 13.6617 12.5872 13.5249 12.6197 13.3882C12.6588 13.2449 12.6653 13.1147 12.7955 12.9323C12.8151 12.8933 12.9258 12.8151 13.0169 12.8216C13.1341 12.8282 13.1732 12.8737 13.2253 12.9063C13.2969 12.9779 13.3425 13.043 13.3816 13.1082C13.4598 13.2384 13.5184 13.3621 13.5639 13.4989C13.6551 13.7593 13.7267 14.0198 13.7658 14.2933C13.7723 14.3389 13.7397 14.3779 13.6942 14.3845C13.6551 14.391 13.6225 14.3714 13.6095 14.3389Z" fill="#1A0F39"/>
</svg>
