<svg width="88" height="88" viewBox="0 0 88 88" fill="none" xmlns="http://www.w3.org/2000/svg">
<g clip-path="url(#clip0_644_250)">
<path d="M86.7119 41.6893C85.7427 41.4229 84.9206 42.0193 84.59 42.8941C84.0223 44.396 81.8869 45.2942 80.3421 45.4956C78.0154 45.7992 75.7482 44.7803 73.6926 43.8267C71.254 42.6958 68.7407 41.6164 65.9993 41.6394C63.2407 41.6626 60.5478 42.7647 58.3012 44.314C55.7722 46.0578 53.7407 48.3335 51.7529 50.6495C51.1465 51.356 51.0587 52.3949 51.7529 53.0891C52.3737 53.7099 53.5832 53.7991 54.1925 53.0891C57.3842 49.3697 61.5909 44.4632 67.0768 45.1385C69.6669 45.4573 71.9869 46.9028 74.3643 47.8677C76.808 48.8596 79.4885 49.3283 82.0785 48.6476C84.6458 47.9729 86.9589 46.3443 87.9164 43.8111C88.2463 42.9397 87.5508 41.9198 86.7119 41.6893Z" fill="#FE8083"/>
<path d="M35.4966 23.4706C37.1275 21.2118 38.8658 18.7992 39.3622 15.9928C39.8436 13.2705 39.1395 10.5289 37.623 8.23679C35.874 5.59335 33.3354 3.69104 30.8296 1.8176C30.0828 1.25935 28.9022 1.69643 28.4695 2.43635C27.9542 3.31738 28.3399 4.23692 29.0884 4.79654C32.9439 7.67906 37.7651 11.6896 35.4465 17.0571C33.3873 21.8239 28.0296 25.658 28.6994 31.3753C29.0222 34.1301 30.6569 36.6209 33.442 37.3569C35.5908 37.9246 36.5072 34.5976 34.3593 34.0299C32.619 33.5701 31.9317 31.669 32.1177 30.0018C32.388 27.5812 34.11 25.3909 35.4966 23.4706Z" fill="#FE8083"/>
<path d="M60.2581 27.66C59.9783 25.3668 58.6803 23.2899 56.7407 22.0283C55.6599 21.3255 54.4841 20.9556 53.2913 20.8609C53.8812 18.9165 54.9853 17.1299 56.5994 15.8932C57.3378 15.3276 57.7303 14.4082 57.2183 13.5331C56.7933 12.8064 55.6023 12.344 54.8581 12.9141C52.1043 15.0241 50.2651 18.0503 49.6061 21.3956C47.3544 22.2146 45.3519 23.8686 44.1979 25.923C41.0963 31.4445 43.0562 37.8993 46.1769 42.9187C47.3468 44.8004 50.3328 43.0701 49.156 41.1774C47.1205 37.9034 45.4047 33.9783 46.2934 30.0484C46.7248 28.1412 47.819 26.3537 49.3817 25.2951C49.5322 27.1882 50.064 29.0573 50.9892 30.7169C52.2735 33.0204 54.7113 34.9327 57.405 33.6447C59.5795 32.605 60.535 29.9304 60.2581 27.66ZM56.4182 30.0389C55.4793 31.3787 54.4927 29.9177 53.9683 28.9753C53.2544 27.6923 52.8682 26.2295 52.7992 24.7697C52.7922 24.6185 52.7913 24.4662 52.7903 24.3137C52.8754 24.3172 52.9604 24.321 53.0464 24.3282C55.5745 24.5404 58.0287 27.7409 56.4182 30.0389Z" fill="#FE8083"/>
<path d="M67.2709 32.3708C65.0509 32.3708 65.0471 35.8211 67.2709 35.8211C69.4908 35.8209 69.4944 32.3708 67.2709 32.3708Z" fill="#FE8083"/>
<path d="M69.4227 27.3794C67.2027 27.3794 67.1991 30.8296 69.4227 30.8296C71.6426 30.8296 71.6464 27.3794 69.4227 27.3794Z" fill="#FE8083"/>
<path d="M72.7938 31.7808C70.5738 31.7808 70.5702 35.231 72.7938 35.231C75.0137 35.231 75.0173 31.7808 72.7938 31.7808Z" fill="#FE8083"/>
<path d="M15.41 17.6636C13.1901 17.6636 13.1863 21.1138 15.41 21.1138C17.6301 21.1138 17.6337 17.6636 15.41 17.6636Z" fill="#FE8083"/>
<path d="M17.5618 12.6726C15.3419 12.6726 15.3383 16.1228 17.5618 16.1228C19.7819 16.1227 19.7857 12.6726 17.5618 12.6726Z" fill="#FE8083"/>
<path d="M20.9324 17.074C18.7125 17.074 18.7089 20.5242 20.9324 20.5242C23.1524 20.5242 23.156 17.074 20.9324 17.074Z" fill="#FE8083"/>
<path d="M48.6988 60.9175L25.7899 38.0087C25.3977 37.6166 24.841 37.4367 24.2932 37.5259C23.7458 37.6149 23.2744 37.9616 23.0267 38.4579L20.9669 42.5826L0.18175 84.2119C-0.149797 84.8759 -0.0195156 85.6775 0.505391 86.2024C0.836422 86.5336 1.2778 86.7077 1.72553 86.7077C1.98713 86.7077 2.25078 86.6483 2.49553 86.5259L48.2495 63.6808C48.7459 63.4331 49.0927 62.9618 49.1816 62.4142C49.2708 61.8666 49.091 61.3099 48.6988 60.9175ZM5.57605 81.1314L13.0313 66.2001L15.5484 76.1524L5.57605 81.1314ZM34.0451 66.9168L31.1077 59.7581C30.7459 58.8767 29.7386 58.4552 28.857 58.8169C27.9757 59.1785 27.5542 60.1862 27.9158 61.0676L30.95 68.4622L18.7082 74.5744L15.3934 61.4687L22.3574 47.5209L24.2736 52.1911C24.5474 52.8581 25.1913 53.2619 25.8702 53.2619C26.0883 53.2619 26.31 53.2203 26.5243 53.1323C27.4057 52.7707 27.8272 51.763 27.4655 50.8816L24.4046 43.4213L25.0436 42.1417L44.5659 61.664L34.0451 66.9168Z" fill="#FE8083"/>
<path d="M80.8849 57.302C77.0363 57.302 73.9053 60.433 73.9053 64.2817C73.9053 68.1311 77.0363 71.2631 80.8849 71.2631C84.7346 71.2631 87.8663 68.1311 87.8663 64.2817C87.8663 60.433 84.7346 57.302 80.8849 57.302ZM80.8849 67.8128C78.9388 67.8128 77.3555 66.2287 77.3555 64.2817C77.3555 62.3355 78.939 60.7522 80.8849 60.7522C82.8319 60.7522 84.4161 62.3355 84.4161 64.2817C84.4161 66.2287 82.8321 67.8128 80.8849 67.8128Z" fill="#FE8083"/>
<path d="M79.0344 8.7358L72.0961 1.79755C71.7725 1.47408 71.3337 1.29224 70.8761 1.29224C70.4186 1.29224 69.98 1.47408 69.6563 1.79772L62.7198 8.73597C62.0464 9.40955 62.0466 10.5018 62.72 11.1756L69.6565 18.1121C69.9934 18.449 70.4349 18.6174 70.8763 18.6174C71.3177 18.6174 71.7592 18.449 72.0959 18.1123L79.0342 11.1757C79.358 10.8523 79.5397 10.4135 79.5397 9.95577C79.5395 9.49824 79.3577 9.05944 79.0344 8.7358ZM70.8767 14.4529L66.3795 9.9556L70.8767 5.45728L75.375 9.9556L70.8767 14.4529Z" fill="#FE8083"/>
<path d="M27.5437 54.2932C25.3238 54.2932 25.3202 57.7434 27.5437 57.7434C29.7637 57.7434 29.7673 54.2932 27.5437 54.2932Z" fill="#FE8083"/>
</g>
<defs>
<clipPath id="clip0_644_250">
<rect width="88" height="88" fill="white"/>
</clipPath>
</defs>
</svg>
