<svg width="107" height="147" viewBox="0 0 107 147" fill="none" xmlns="http://www.w3.org/2000/svg">
<path fill-rule="evenodd" clip-rule="evenodd" d="M23.6909 34.0002C28.1309 34.9902 32.0209 33.3102 35.9009 31.9002C39.3109 30.6602 42.4709 28.8202 45.4709 26.7602C49.8009 23.7802 53.9309 20.5402 57.9009 17.1002C58.4209 16.6502 58.9609 16.2402 59.6609 15.6802C59.8209 16.1902 59.9909 16.5202 60.0309 16.8602C60.4409 21.0202 61.9109 24.8002 64.1509 28.2902C66.5009 31.9602 70.0009 33.4102 74.2209 33.3102C76.7309 33.2502 78.5109 32.1302 80.3209 29.6802C80.8309 29.5702 80.9409 29.9802 81.1309 30.3002C82.2409 32.1602 83.2809 34.0502 84.4609 35.8602C85.7709 37.8702 87.2909 39.7202 89.2309 41.1802C89.6609 41.5002 90.1009 41.8502 90.5809 42.0702C91.9309 42.6902 93.2609 42.8302 94.4409 41.6802C94.6009 41.5202 94.8109 41.4102 95.1209 41.1802C95.3709 41.6702 95.6109 42.1102 95.8309 42.5602C96.3509 43.5902 96.7909 44.6702 97.3909 45.6602C98.6809 47.7902 100.171 49.7602 102.711 50.6602C102.651 51.7002 102.211 52.5102 101.851 53.3402C100.061 57.4202 97.4909 60.9602 94.4509 64.1902C89.4609 69.5102 83.1609 72.4102 76.2409 74.1602C71.9409 75.2502 67.5509 75.5102 63.1409 75.5002C58.9709 75.4902 54.8009 75.3502 50.6709 74.6802C46.6209 74.0302 42.6209 73.0702 38.9309 71.2702C32.7209 68.2402 27.4909 64.0102 23.6209 58.1902C22.0409 55.8102 21.1409 53.2502 21.0509 50.3902C20.9009 45.7202 21.4209 41.1402 22.7109 36.6602C22.9609 35.7602 23.3409 34.9202 23.6909 34.0002ZM50.8709 55.7902C50.8409 60.3202 53.4809 63.2902 57.2109 63.5802C59.0109 63.7202 60.3809 63.0802 61.4009 61.6502C63.0309 59.3602 63.3509 56.8302 62.7409 54.1402C62.5709 53.3702 62.0009 52.9602 61.4509 53.1002C60.7609 53.2702 60.4809 53.8602 60.6809 54.7502C60.7309 54.9702 60.8709 55.1802 60.9109 55.4002C61.2509 57.2502 60.8109 58.9202 59.7609 60.4502C59.0709 61.4502 58.1109 61.7802 56.9309 61.5502C54.8509 61.1502 53.3909 59.6302 53.0009 57.5202C52.7909 56.3402 52.9909 55.2202 53.2509 54.0802C53.3309 53.7102 53.5109 53.3302 53.4809 52.9702C53.4609 52.7202 53.2109 52.4002 52.9809 52.2902C52.7509 52.1802 52.3409 52.1802 52.1409 52.3102C51.8409 52.5102 51.5309 52.8402 51.4409 53.1702C51.1609 54.2102 50.9809 55.2802 50.8709 55.7902ZM78.1009 44.7802C76.2509 44.8102 74.8809 46.2202 75.0109 48.0602C75.0609 48.7302 75.2709 49.4302 75.5709 50.0302C76.0809 51.0302 76.8709 51.7902 78.0909 51.7602C79.2509 51.7302 80.1509 51.1202 80.6609 50.0802C80.9309 49.5402 81.1409 48.9302 81.2009 48.3402C81.3809 46.5102 79.8109 44.7502 78.1009 44.7802ZM46.3309 41.8702C46.2809 41.6302 46.2409 41.0802 46.0609 40.5802C45.5609 39.2002 44.3309 38.5902 42.9209 39.0102C41.5609 39.4202 40.7009 40.4102 40.3609 41.7402C40.0409 43.0102 40.4509 44.1802 41.3609 45.1202C41.9309 45.7102 42.6509 45.9102 43.4709 45.7402C45.3509 45.3602 46.3609 44.1002 46.3309 41.8702Z" fill="#FFEAE3"/>
<path fill-rule="evenodd" clip-rule="evenodd" d="M103.481 48.5501C101.901 48.2701 101.101 47.3401 100.341 46.3701C98.6511 44.2201 97.5811 41.7401 96.7311 39.1601C96.5111 38.5001 96.3611 37.8101 96.0511 37.2001C95.9111 36.9201 95.4611 36.6401 95.1511 36.6401C94.8411 36.6401 94.4011 36.9301 94.2611 37.2201C93.9311 37.9101 93.7911 38.6801 93.4911 39.3901C93.0411 40.4501 92.2311 40.7401 91.2611 40.0901C90.3711 39.4901 89.4711 38.8301 88.7911 38.0201C87.5011 36.4901 86.2411 34.9101 85.1911 33.2101C83.4211 30.3301 81.4911 27.5001 80.9111 24.0401C80.8811 23.8901 80.8211 23.6901 80.7111 23.6301C80.3911 23.4601 80.0411 23.2401 79.7111 23.2401C79.5011 23.2401 79.1811 23.5701 79.0911 23.8101C78.9611 24.1601 79.0011 24.5601 78.9711 24.9401C78.8911 25.7801 78.8611 26.6301 78.7311 27.4701C78.3911 29.5601 77.0611 30.8001 75.0411 31.0801C71.4211 31.6001 68.2211 30.6901 66.1011 27.5201C63.3411 23.3901 61.6711 18.8901 62.0011 13.8101C62.0511 13.0601 62.3711 12.1601 61.4011 11.8001C60.6111 11.5001 60.1511 12.2201 59.6611 12.6901C54.7511 17.4101 49.4211 21.6201 43.7811 25.4201C39.5311 28.2901 34.9611 30.5001 29.9411 31.6901C29.0411 31.9001 28.1311 32.0801 27.2211 32.2301C26.4611 32.3501 25.6911 32.3701 24.8511 31.8701C24.9611 31.5101 25.0311 31.1601 25.1711 30.8401C25.3611 30.4201 25.6111 30.0201 25.8211 29.6101C27.2411 26.8801 29.0311 24.3701 30.4811 21.6401C32.0711 18.6401 34.4411 16.1301 36.9711 13.8401C39.5511 11.5001 42.3411 9.44006 45.2311 7.51006C49.5611 4.62006 54.3411 2.99006 59.4811 2.42006C63.4011 1.98006 67.3311 1.77007 71.2611 2.30007C75.7911 2.92007 80.2111 3.96006 84.4711 5.63006C85.7511 6.13006 86.9811 6.84006 88.0911 7.67006C89.6911 8.87006 91.1811 10.2301 92.6711 11.5601C93.8311 12.5901 94.7611 13.8001 95.5711 15.1301C98.1611 19.3401 100.611 23.6201 102.611 28.1501C103.811 30.8601 104.451 33.7101 104.571 36.6701C104.641 38.3701 104.671 40.0701 104.651 41.7601C104.631 43.3801 104.531 44.9901 103.861 46.5201C103.611 47.0601 103.621 47.7101 103.481 48.5501Z" fill="#6D5447"/>
<path fill-rule="evenodd" clip-rule="evenodd" d="M47.1812 122.35C46.9412 120.97 47.1312 119.76 47.3412 118.55C48.2212 113.61 49.1512 108.68 50.0212 103.74C50.4812 101.08 50.8312 98.4001 51.2912 95.7401C51.8012 92.7801 52.3612 89.8201 52.9312 86.8701C53.4112 84.3701 53.9412 81.8801 54.4412 79.3801C54.5712 78.7101 54.5812 77.9901 55.2112 77.3401C61.0312 77.4001 66.9712 77.7401 72.9612 76.8901C73.1912 77.3701 73.3912 77.7701 73.5712 78.1701C74.7312 80.7801 75.7912 83.4301 77.0712 85.9801C79.4912 90.8201 81.5712 95.7901 83.4012 100.88C84.3912 103.64 85.5912 106.32 86.6812 109.03C87.3112 110.6 87.9812 112.16 88.5212 113.77C89.3112 116.14 88.6212 118.2 86.8912 119.89C86.1212 120.64 85.2312 121.28 84.3012 121.83C80.5212 124.08 76.4612 125.35 72.0312 125.54C65.7412 125.81 59.5412 125.18 53.3812 124.02C52.0912 123.78 50.8112 123.52 49.5412 123.18C48.7112 122.99 47.9412 122.64 47.1812 122.35ZM63.3612 88.7001C61.8112 88.3701 60.5512 87.9401 59.2712 87.8701C57.2612 87.7701 56.1012 89.0001 56.1312 91.0201C56.1412 91.7001 56.2912 92.4001 56.5212 93.0401C56.7812 93.7601 57.2012 94.4201 57.5712 95.0901C58.9912 97.6601 61.3612 99.2901 63.4812 101.19C64.9812 102.53 66.3812 101.9 67.3012 100.84C67.5512 100.55 67.7912 100.24 67.9712 99.9001C69.8412 96.5401 70.9012 92.9601 70.6912 89.0801C70.6512 88.3301 70.4712 87.5401 70.1712 86.8501C69.3012 84.8301 67.0912 84.3401 65.4012 85.7701C64.8812 86.2101 64.4812 86.8001 64.0812 87.3601C63.7912 87.8001 63.5812 88.2901 63.3612 88.7001Z" fill="#FF9AAC"/>
<path fill-rule="evenodd" clip-rule="evenodd" d="M105.621 61.3402C106.591 61.1102 107.261 61.3002 107.881 61.6302C111.051 63.3102 113.411 65.7802 114.951 69.0202C115.431 70.0402 115.441 71.1202 115.241 72.1902C115.051 73.2102 114.301 73.6802 113.371 73.2502C112.611 72.9002 111.931 72.3702 111.231 71.9102C110.621 71.5002 110.141 70.6502 109.251 71.2002C108.501 71.6602 108.801 72.4402 108.891 73.1002C109.001 73.9502 109.101 74.7902 108.761 75.6102C108.591 76.0202 108.211 76.2402 107.831 76.0502C107.221 75.7402 106.621 75.3802 106.141 74.9102C105.421 74.2102 104.811 73.4102 104.581 72.3902C104.511 72.0902 104.461 71.7302 104.261 71.5402C104.011 71.3002 103.591 71.0602 103.301 71.1102C103.001 71.1702 102.641 71.5402 102.541 71.8502C102.401 72.2702 102.491 72.7602 102.471 73.2202C102.411 75.9302 101.551 78.3702 99.8709 80.4902C98.5309 82.1802 97.8409 82.0702 97.0009 80.1102C95.7209 77.1402 95.9009 74.0802 96.4409 71.0102C96.6009 70.1102 96.9509 69.2302 97.2309 68.3502C97.5809 67.2502 98.2709 66.6402 99.4209 66.2202C101.971 65.2702 104.331 63.9502 105.621 61.3402Z" fill="#6D5447"/>
<path fill-rule="evenodd" clip-rule="evenodd" d="M12.5209 46.8002C12.6209 46.9702 12.7809 47.1502 12.8609 47.3602C13.9809 50.2002 15.5809 52.7302 17.8209 54.8102C18.5209 55.4602 18.7009 56.2902 18.6209 57.1202C18.4409 58.9602 18.1909 60.8002 17.8209 62.6102C17.6609 63.4102 17.2309 64.2202 16.7509 64.8902C15.9009 66.0602 14.8209 66.0502 13.8309 65.0102C13.0409 64.1902 12.7509 63.1502 12.5609 62.0802C12.4409 61.4002 12.4509 60.6902 12.3209 60.0102C12.1609 59.1402 11.2209 58.8602 10.5409 59.4702C10.1409 59.8302 9.8309 60.2902 9.4009 60.6102C8.8109 61.0702 7.90091 60.7402 7.74091 60.0302C7.40091 58.4902 7.50091 56.9602 8.14091 55.5002C8.32091 55.1002 8.68091 54.7602 9.00091 54.4502C9.27091 54.1802 9.63091 54.0102 9.92091 53.7602C10.5109 53.2502 10.6509 52.5702 10.2909 52.1502C9.9109 51.7002 9.2209 51.5802 8.6009 51.9202C8.2009 52.1402 7.8309 52.4302 7.4809 52.7202C6.3209 53.7002 5.0309 53.6202 3.7909 53.0502C1.7209 52.0902 1.38091 49.2702 3.19091 47.8702C3.96091 47.2802 4.95091 46.9102 5.89091 46.6202C7.74091 46.0402 10.2609 46.1602 12.5209 46.8002Z" fill="#6D5447"/>
<path fill-rule="evenodd" clip-rule="evenodd" d="M15.0412 89.9101C13.5712 92.0701 10.8212 93.6301 8.29121 93.5801C8.49121 93.0601 8.64121 92.5701 8.85121 92.1201C9.08121 91.6401 9.45121 91.2101 9.60121 90.7101C9.69121 90.4101 9.55121 89.9601 9.35121 89.6901C9.21121 89.5101 8.77122 89.4001 8.53122 89.4701C8.02122 89.6201 7.56121 89.9201 7.07121 90.1301C6.28121 90.4601 6.27121 90.4501 4.90121 89.5901C5.32121 89.2301 5.68122 88.8301 6.11122 88.5701C6.57122 88.3001 7.15122 88.2201 7.58122 87.9201C7.84122 87.7401 8.07122 87.2601 8.02122 86.9701C7.97122 86.6801 7.58122 86.3501 7.27122 86.2401C6.93122 86.1201 6.51122 86.2601 6.13122 86.2301C5.75122 86.2101 5.36122 86.1601 5.00122 86.0501C4.40122 85.8701 4.03121 85.3701 4.04121 84.8901C4.06121 84.4001 4.50122 83.9801 5.16122 83.9301C5.77122 83.8901 6.40122 83.9901 7.00122 83.9001C7.33122 83.8501 7.73122 83.6301 7.92122 83.3601C8.23122 82.9201 7.96122 82.4901 7.62122 82.1401C6.98122 81.4801 6.29122 80.8601 5.72122 80.1401C5.29122 79.6001 5.04121 78.9201 5.60121 78.2101C6.66121 78.0501 7.52121 78.6101 8.43121 78.9801C9.35121 79.3501 10.3312 79.6101 10.8512 80.6201C11.0812 81.0601 11.5912 81.2001 12.0612 80.9901C12.5112 80.7901 12.7112 80.3701 12.7212 79.8601C12.7312 79.2501 12.7312 78.6201 12.8512 78.0201C12.9512 77.5201 13.2212 77.0501 13.4912 76.3701C13.8912 76.7601 14.2212 76.9601 14.3712 77.2601C14.5812 77.6601 14.6712 78.1301 14.7612 78.5801C15.3012 81.3901 15.5312 84.2201 15.2512 87.0801C15.1812 87.9801 15.1212 88.8901 15.0412 89.9101Z" fill="#FFEAE3"/>
<path fill-rule="evenodd" clip-rule="evenodd" d="M96.4409 114.02C96.5909 112.84 97.3609 112.08 98.1909 111.41C99.6209 110.24 101.091 109.11 102.591 108.03C103.301 107.52 104.181 107.27 105.011 107.61C107.361 108.58 109.721 109.55 111.731 111.17C111.891 111.3 111.951 111.55 112.041 111.72C111.971 111.91 111.951 112.09 111.851 112.17C111.101 112.74 110.731 113.41 111.111 114.37C111.241 114.72 111.321 115.13 111.291 115.5C111.261 115.85 111.061 116.18 110.871 116.7C110.101 116.16 109.501 115.67 108.841 115.3C108.461 115.08 107.991 114.96 107.561 114.94C107.001 114.92 106.571 115.53 106.711 116.07C106.811 116.44 107.021 116.78 107.141 117.14C107.271 117.54 107.181 117.99 106.791 118.12C106.481 118.23 106.001 118.16 105.741 117.97C105.311 117.67 105.021 117.18 104.631 116.81C104.131 116.32 103.421 116.39 103.051 117C102.811 117.39 102.681 117.84 102.461 118.25C102.241 118.67 101.961 119.11 101.411 118.97C100.871 118.83 100.851 118.29 100.801 117.83C100.751 117.37 100.741 116.91 100.731 116.44C100.721 116.05 100.761 115.67 100.741 115.28C100.651 113.53 99.9509 113.06 98.3909 113.72C97.8009 113.98 97.2409 114.47 96.4409 114.02Z" fill="#FFEAE3"/>
<path fill-rule="evenodd" clip-rule="evenodd" d="M106.751 42.6001C108.381 41.8301 109.491 42.3501 110.471 43.4001C111.881 44.9001 112.271 46.7801 112.341 48.7401C112.451 51.8101 110.901 55.7601 106.741 57.2201C105.831 57.5401 104.781 57.6001 103.801 57.5601C102.871 57.5301 102.491 56.7601 102.851 55.9001C103.321 54.7601 103.871 53.6501 104.341 52.5101C105.491 49.7101 106.251 46.8101 106.521 43.7901C106.561 43.4201 106.671 43.0501 106.751 42.6001Z" fill="#FFEAE3"/>
<path fill-rule="evenodd" clip-rule="evenodd" d="M19.0009 46.1102C18.5309 45.9602 18.2609 45.9502 18.1409 45.8102C17.5909 45.1702 16.9909 44.5502 16.5909 43.8202C14.7909 40.4602 14.6309 36.9202 15.6909 33.3202C16.0409 32.1202 16.7509 31.1102 17.7509 30.3302C18.5409 29.7102 19.4209 29.5702 20.3609 29.8802C20.9609 30.0802 21.4609 30.4302 21.6509 31.0902C21.7809 31.5302 21.9209 31.9702 22.0909 32.5302C20.1709 36.7402 19.4609 41.3602 19.0009 46.1102Z" fill="#FFEAE3"/>
<path fill-rule="evenodd" clip-rule="evenodd" d="M36.2511 139.17C36.6311 139.1 37.0711 138.95 37.5211 138.95C40.4511 138.98 43.3011 139.55 46.1111 140.37C47.1611 140.67 48.0611 141.2 48.6211 142.28C48.0711 143.19 47.1611 143.49 46.3011 143.66C42.4911 144.45 39.1911 143.36 36.3911 140.69C35.9511 140.29 35.8611 139.79 36.2511 139.17Z" fill="#C55E7F"/>
<path fill-rule="evenodd" clip-rule="evenodd" d="M101.451 134.01C101.771 134.05 102.031 134 102.201 134.1C103.011 134.58 103.641 135.26 104.041 136.11C104.951 138.04 105.181 140.09 104.951 142.19C104.911 142.56 104.731 142.93 104.571 143.27C104.321 143.78 103.611 143.95 103.191 143.59C102.851 143.29 102.491 142.94 102.321 142.54C101.971 141.69 101.611 140.81 101.501 139.92C101.301 138.25 101.261 136.55 101.191 134.86C101.191 134.59 101.351 134.32 101.451 134.01Z" fill="#C55E7F"/>
<path fill-rule="evenodd" clip-rule="evenodd" d="M101.561 58.8701C102.171 59.1701 102.851 59.4901 103.491 59.8001C103.841 60.5401 103.491 61.0901 103.091 61.5301C101.881 62.8601 100.371 63.7601 98.6712 64.3401C98.3512 64.4501 97.9412 64.3201 97.5912 64.3001C97.5812 64.1101 97.5512 64.0301 97.5712 63.9601C97.6112 63.8101 97.6412 63.6501 97.7212 63.5401C98.8312 62.0701 99.9412 60.6001 101.061 59.1301C101.151 59.0301 101.321 59.0001 101.561 58.8701Z" fill="#E84A6E"/>
<path fill-rule="evenodd" clip-rule="evenodd" d="M19.2011 53.0902C16.6211 51.0202 15.4411 48.5002 14.3711 45.4302C15.7611 45.8002 16.0311 46.8002 16.7211 47.2902C17.4011 47.7802 18.0811 48.2602 18.8311 48.8002C18.9511 50.0902 19.0611 51.4302 19.2011 53.0902Z" fill="#E84A6E"/>
<path fill-rule="evenodd" clip-rule="evenodd" d="M65.501 99.69C65.241 99.66 65.051 99.69 64.941 99.61C62.621 97.95 60.421 96.16 59.011 93.6C58.451 92.58 57.911 91.56 58.391 90.22C59.841 89.58 61.141 89.97 62.311 91.01C62.771 91.42 63.161 91.9 63.631 92.28C64.131 92.69 64.981 92.34 65.081 91.71C65.151 91.26 65.111 90.79 65.171 90.33C65.301 89.32 65.661 88.37 66.401 87.66C66.691 87.37 67.191 87.18 67.601 87.16C68.121 87.14 68.371 87.61 68.471 88.08C68.591 88.68 68.711 89.3 68.711 89.9C68.691 93.12 67.841 96.12 66.221 98.9C66.031 99.22 65.711 99.46 65.501 99.69Z" fill="#E84A6E"/>
<path fill-rule="evenodd" clip-rule="evenodd" d="M96.8509 55.1902C96.3109 51.3702 92.0109 49.3602 88.6209 48.9402C88.0209 48.8602 87.3509 48.8702 86.6909 48.9802C84.9409 49.1302 83.2309 49.8102 81.9909 51.0002C78.2809 54.5702 79.8709 61.5602 84.2009 63.8602C89.6609 66.7402 97.7209 61.3502 96.8509 55.1902Z" fill="#FFC2BD"/>
<path fill-rule="evenodd" clip-rule="evenodd" d="M37.0211 47.0901C36.8511 46.0901 36.4911 45.1301 35.9411 44.3301C33.7311 41.0801 29.4811 40.4401 26.4411 42.8201C24.1411 44.6301 23.0911 47.9701 23.1911 50.8001C23.3111 54.1101 25.4111 57.4001 28.8611 57.9401C32.0711 58.4401 35.0611 57.4101 36.7211 54.4901C37.9811 52.3001 37.9911 49.4401 37.0211 47.0901Z" fill="#FFC2BD"/>
<path fill-rule="evenodd" clip-rule="evenodd" d="M12.6207 44.5701C13.0107 44.1301 13.4107 43.6701 13.8407 43.2001C13.7707 42.7901 13.7507 42.4001 13.6407 42.0401C12.9407 39.6201 12.8507 37.1701 13.2407 34.7001C13.5407 32.7501 14.2607 30.9801 15.6207 29.5201C17.6807 27.3201 20.2007 27.1101 22.6607 28.9201C22.8907 29.0901 23.1007 29.2701 23.4207 29.5201C23.7607 29.0101 24.0407 28.6601 24.2607 28.2701C25.6907 25.8001 27.0407 23.2801 28.5307 20.8501C30.7707 17.2101 33.5307 13.9601 36.8607 11.2801C39.3807 9.25011 42.0107 7.34011 44.6907 5.52011C48.7907 2.73011 53.3907 1.22011 58.2707 0.560112C61.2607 0.160112 64.2607 -0.0498874 67.2807 0.0101126C71.7207 0.0801126 75.9907 1.08011 80.2807 2.11011C85.6307 3.39011 90.0607 6.12011 93.9507 9.96011C96.7407 12.7101 98.9007 15.8501 100.581 19.3601C101.781 21.8701 103.041 24.3401 104.221 26.8601C106.031 30.7001 106.651 34.8101 106.841 39.0001C106.861 39.3601 106.901 39.7301 106.941 40.1801C107.351 40.2101 107.651 40.2701 107.941 40.2501C109.931 40.1201 111.321 41.1401 112.451 42.6201C114.361 45.1301 114.711 48.0201 114.191 50.9901C113.621 54.2701 111.891 56.8501 108.921 58.5001C108.591 58.6901 108.271 58.9001 107.801 59.1901C108.421 59.5701 108.931 59.8901 109.451 60.1901C112.531 62.0001 114.891 64.4801 116.541 67.6501C117.351 69.2001 117.721 70.8601 117.241 72.5801C117.041 73.3001 116.671 74.0201 116.211 74.6101C115.551 75.4701 114.571 75.7501 113.501 75.4801C112.771 75.2901 112.061 75.0001 111.281 74.7301C111.031 75.4301 110.851 76.1001 110.551 76.7101C109.841 78.1801 108.631 78.6301 107.081 78.0301C106.581 77.8401 106.111 77.5601 105.661 77.2701C105.221 76.9801 104.821 76.6301 104.301 76.2301C104.031 76.9001 103.861 77.5001 103.581 78.0401C102.941 79.2701 102.281 80.4901 101.551 81.6601C101.231 82.1701 100.761 82.6101 100.291 83.0101C98.6507 84.3901 96.9707 84.1101 95.8007 82.2801C95.6307 82.0201 95.4907 81.7401 95.3707 81.4601C94.5207 79.5301 93.9907 77.5301 93.9907 75.4101C93.9807 72.9201 94.3507 70.4901 95.1907 68.1301C95.3907 67.5601 95.5807 66.9801 95.8407 66.2101C95.0807 66.2701 94.8007 66.7301 94.4507 67.0501C94.0507 67.4101 93.6707 67.8001 93.2707 68.1601C92.8707 68.5201 92.4507 68.8701 92.0207 69.2001C91.5907 69.5301 91.1407 69.8201 90.6807 70.1201C90.2307 70.4101 89.7607 70.6901 89.3007 70.9701C88.8407 71.2501 88.3707 71.5301 87.9007 71.7901C87.4307 72.0501 86.9507 72.3101 86.4707 72.5601C85.9907 72.8001 85.5007 73.0301 85.0107 73.2601C84.5207 73.4901 84.0207 73.7001 83.5307 73.9201C83.0307 74.1401 82.5407 74.3601 82.0407 74.5601C81.5407 74.7601 81.0307 74.9401 80.5107 75.1101C80.0007 75.2801 79.4707 75.4201 78.9607 75.5801C78.4607 75.7401 77.9607 75.9201 77.4507 76.0901C77.5407 76.3201 77.5507 76.5101 77.6507 76.5701C83.2607 80.0901 87.9907 84.6201 92.5007 89.4201C94.6207 91.6801 96.6107 94.0301 98.3707 96.5801C99.9107 98.8201 101.111 101.23 102.191 103.71C102.431 104.27 102.691 104.82 102.971 105.44C105.051 105.26 106.781 106.08 108.491 106.99C109.651 107.61 110.841 108.17 111.961 108.84C112.551 109.19 113.111 109.65 113.541 110.18C114.271 111.07 114.611 112.13 113.881 113.16C113.391 113.85 113.271 114.54 113.351 115.33C113.361 115.41 113.361 115.48 113.351 115.56C113.181 118.24 112.101 119.04 109.321 118.43C108.721 119.1 108.391 120.16 107.281 120.39C106.211 120.61 105.331 120.08 104.321 119.69C103.941 120 103.551 120.37 103.101 120.65C101.321 121.75 99.4907 121.03 98.9707 119C98.7507 118.11 98.6507 117.2 98.4907 116.22C97.7607 116.28 97.0907 116.41 96.4307 116.38C94.9707 116.32 94.1907 115.37 94.3507 113.92C94.4707 112.8 94.9807 111.83 95.7407 111.05C96.5507 110.23 97.4507 109.5 98.3607 108.78C99.2007 108.11 100.081 107.5 101.011 106.83C100.861 106.23 100.791 105.7 100.611 105.21C99.0907 101.2 96.9207 97.5501 94.1507 94.3001C90.0407 89.4701 85.6207 84.9401 80.5607 81.0701C79.4007 80.1801 78.1607 79.3901 76.9407 78.5801C76.7107 78.4301 76.4107 78.3701 75.9107 78.1901C76.0407 78.6801 76.0607 78.9701 76.1807 79.2201C77.7607 82.6501 79.4307 86.0501 80.9307 89.5201C82.4307 92.9901 83.7707 96.5201 85.1807 100.03C86.3107 102.82 87.4507 105.6 88.5707 108.4C89.1707 109.9 89.8407 111.39 90.3307 112.93C91.4607 116.51 90.4807 119.7 87.5807 122.05C86.6907 122.77 85.7207 123.41 84.8407 124.05C84.5707 124.75 84.7407 125.31 85.0207 125.89C86.2307 128.4 87.6907 130.76 89.3307 133.02C90.6907 134.89 92.4907 135.46 94.6207 134.81C96.0107 134.39 97.3307 133.72 98.6807 133.15C98.8907 133.06 99.0607 132.89 99.2707 132.78C102.621 130.98 101.711 130.97 104.511 133.44C105.971 134.73 106.541 136.54 106.811 138.39C107.001 139.68 106.931 141.01 106.941 142.32C106.941 143.19 106.631 143.99 106.141 144.7C105.191 146.09 103.451 146.41 102.071 145.42C101.301 144.87 100.671 144.17 100.381 143.26C100.011 142.09 99.6707 140.9 99.4607 139.7C99.2307 138.35 99.1507 136.96 99.0007 135.44C98.1207 135.77 97.4207 136.05 96.7007 136.3C91.6607 138.08 89.2707 136.72 86.9807 133.16C85.8107 131.35 84.7507 129.46 83.6507 127.6C83.2207 126.88 82.8407 126.14 82.3707 125.27C81.6207 125.55 80.9907 125.79 80.3507 126.02C77.7207 126.97 75.0107 127.47 72.2007 127.57C67.0107 127.75 61.8607 127.53 56.7307 126.71C56.0607 126.6 55.3707 126.62 54.6007 126.58C54.3307 127.39 54.0407 128.1 53.8507 128.83C53.0007 132.12 52.1507 135.4 51.3507 138.7C51.1007 139.74 50.9407 140.82 50.8607 141.89C50.7707 143.18 50.1707 144.08 49.1107 144.71C47.6207 145.59 46.0007 146.09 44.2607 146.05C41.0607 145.98 38.2007 144.96 35.7307 142.92C35.2607 142.53 34.8107 142.09 34.4507 141.59C33.2107 139.86 33.8807 137.77 35.9307 137.16C36.7907 136.9 37.7707 136.85 38.6707 136.96C42.1107 137.4 45.5707 137.78 48.8707 139.37C49.0607 138.92 49.2907 138.53 49.4007 138.11C50.2907 134.67 51.1707 131.23 52.0307 127.79C52.1607 127.28 52.2407 126.77 52.3607 126.15C51.8107 125.97 51.3907 125.83 50.9707 125.7C49.5707 125.27 48.1407 124.92 46.7707 124.41C45.3307 123.88 44.8307 123.08 44.9507 121.56C45.0607 120.1 45.2707 118.64 45.5207 117.2C46.4307 112.03 47.4507 106.88 48.2807 101.7C49.2507 95.6001 50.1707 89.4901 51.6207 83.4801C51.6707 83.2701 51.6307 83.0401 51.6307 82.7001C50.6907 83.2201 50.2307 84.0401 49.6707 84.7501C47.9507 86.9601 45.9807 88.9001 43.7107 90.5401C38.6807 94.1601 33.1407 95.3901 27.0307 94.2301C23.9807 93.6501 21.0907 92.5601 18.1407 91.6701C17.7107 91.5401 17.2707 91.4301 16.7307 91.2901C15.2807 93.5201 12.9807 94.4601 10.7107 95.4201C10.2207 95.6301 9.69068 95.8001 9.17068 95.9001C7.31068 96.2601 6.24067 95.3601 6.20067 93.4401C6.20067 93.2901 6.25068 93.1301 6.24068 92.9801C6.23068 92.8301 6.16068 92.7001 6.11068 92.5401C5.48068 92.2901 4.81067 92.0901 4.20067 91.7801C2.66067 90.9901 2.40067 90.1901 3.12067 88.5901C3.21067 88.3801 3.34068 88.1801 3.50068 87.8801C2.76068 86.9801 1.77067 86.1101 1.93067 84.7401C2.09067 83.3901 2.97068 82.5501 4.19068 81.9201C3.90068 81.2101 3.59068 80.6001 3.41068 79.9601C3.27068 79.4501 3.18068 78.8901 3.25068 78.3701C3.46068 76.7901 4.62068 75.9001 6.19068 76.1301C6.94068 76.2401 7.67067 76.5401 8.40067 76.7901C9.12067 77.0401 9.82068 77.3301 10.6107 77.6301C10.9807 76.9101 11.2307 76.2701 11.5907 75.7001C12.7607 73.8901 14.7707 73.9101 15.9107 75.7601C16.2707 76.3401 16.4907 77.0201 16.6507 77.6901C17.3307 80.5601 17.5207 83.4901 17.4107 86.4301C17.3907 86.8901 17.3007 87.3501 17.2907 87.8101C17.2507 88.8601 17.4407 89.2301 18.4107 89.5601C21.9107 90.7701 25.4007 92.0601 29.1107 92.5001C33.9207 93.0701 38.2907 91.8501 42.2507 89.1001C45.5407 86.8201 48.0507 83.7901 50.3007 80.5401C51.0007 79.5301 51.6007 78.4601 52.2107 77.4901C51.9607 76.8001 51.4207 76.9401 51.0207 76.8201C50.6507 76.7101 50.2707 76.6601 49.8907 76.5901C46.8407 76.0501 43.8507 75.3201 40.9407 74.2701C37.5707 73.0501 34.4507 71.4201 31.6307 69.2001C29.2007 67.2901 26.6907 65.4701 24.7607 63.0101C23.7607 61.7301 22.8107 60.4201 21.8507 59.1201C21.5807 58.7601 21.3407 58.3801 20.9907 57.8701C20.3807 58.7401 20.5007 59.6101 20.3307 60.3901C20.0307 61.7401 19.7607 63.1001 19.3707 64.4301C19.0907 65.4001 18.4907 66.2301 17.7007 66.8901C16.1907 68.1501 14.3507 68.1501 12.8507 66.8901C12.0607 66.2301 11.5107 65.4001 11.1207 64.4601C10.8907 63.9001 10.7007 63.3201 10.4807 62.7401C10.1607 62.7701 9.94068 62.7801 9.72068 62.8101C7.36068 63.1801 5.94068 62.2401 5.61068 59.9401C5.47068 58.9601 5.62068 57.9401 5.66068 56.9401C5.67068 56.6301 5.75068 56.3301 5.80068 56.0301C5.34068 55.3201 4.56068 55.4601 3.92068 55.2801C0.770675 54.3601 -0.759328 51.4101 0.370672 48.3801C0.880672 47.0001 1.89067 46.0801 3.20067 45.4601C5.34067 44.4501 7.60067 44.0601 9.96067 44.2601C10.7707 44.3101 11.6107 44.4401 12.6207 44.5701ZM23.6907 34.0001C23.3407 34.9201 22.9507 35.7601 22.7007 36.6301C21.4007 41.1201 20.8807 45.7001 21.0407 50.3601C21.1307 53.2201 22.0307 55.7801 23.6107 58.1601C27.4807 63.9801 32.7107 68.2101 38.9207 71.2401C42.6207 73.0401 46.6107 74.0001 50.6607 74.6501C54.7907 75.3201 58.9607 75.4601 63.1307 75.4701C67.5407 75.4801 71.9307 75.2101 76.2307 74.1301C83.1607 72.3801 89.4607 69.4701 94.4407 64.1601C97.4807 60.9301 100.051 57.3901 101.841 53.3101C102.201 52.4801 102.641 51.6701 102.701 50.6301C100.151 49.7401 98.6707 47.7601 97.3807 45.6301C96.7807 44.6401 96.3407 43.5601 95.8207 42.5301C95.6007 42.0801 95.3607 41.6401 95.1107 41.1501C94.7907 41.3801 94.5907 41.5001 94.4307 41.6501C93.2407 42.8001 91.9107 42.6601 90.5707 42.0401C90.0907 41.8201 89.6507 41.4701 89.2207 41.1501C87.2807 39.7001 85.7507 37.8401 84.4507 35.8301C83.2707 34.0201 82.2307 32.1201 81.1207 30.2701C80.9307 29.9501 80.8207 29.5401 80.3107 29.6501C78.5007 32.1001 76.7207 33.2301 74.2107 33.2801C69.9907 33.3801 66.4907 31.9301 64.1407 28.2601C61.9007 24.7701 60.4307 20.9901 60.0207 16.8301C59.9807 16.4901 59.8107 16.1601 59.6507 15.6501C58.9507 16.2101 58.4107 16.6301 57.8907 17.0701C53.9207 20.5101 49.7907 23.7601 45.4607 26.7301C42.4607 28.7901 39.3007 30.6301 35.8907 31.8701C32.0207 33.3101 28.1307 34.9901 23.6907 34.0001ZM103.481 48.5501C103.621 47.7101 103.611 47.0701 103.851 46.5301C104.531 45.0001 104.631 43.3901 104.641 41.7701C104.661 40.0701 104.621 38.3701 104.561 36.6801C104.441 33.7201 103.801 30.8701 102.601 28.1601C100.601 23.6301 98.1507 19.3501 95.5607 15.1401C94.7407 13.8101 93.8107 12.6001 92.6607 11.5701C91.1607 10.2401 89.6807 8.88011 88.0807 7.68011C86.9807 6.86011 85.7407 6.15011 84.4607 5.64011C80.2107 3.97011 75.7807 2.93011 71.2507 2.31011C67.3207 1.78011 63.3907 1.99011 59.4707 2.43011C54.3307 3.00011 49.5507 4.63011 45.2207 7.52011C42.3307 9.45011 39.5307 11.5201 36.9607 13.8501C34.4307 16.1401 32.0607 18.6501 30.4707 21.6501C29.0207 24.3801 27.2307 26.8801 25.8107 29.6201C25.6007 30.0301 25.3507 30.4301 25.1607 30.8501C25.0207 31.1701 24.9507 31.5301 24.8407 31.8801C25.6807 32.3801 26.4507 32.3601 27.2107 32.2401C28.1207 32.0901 29.0307 31.9101 29.9307 31.7001C34.9507 30.5201 39.5307 28.3001 43.7707 25.4301C49.4107 21.6201 54.7407 17.4201 59.6507 12.7001C60.1407 12.2301 60.6007 11.5101 61.3907 11.8101C62.3607 12.1701 62.0307 13.0701 61.9907 13.8201C61.6507 18.9001 63.3307 23.4101 66.0907 27.5301C68.2107 30.7001 71.4107 31.6001 75.0307 31.0901C77.0507 30.8001 78.3807 29.5701 78.7207 27.4801C78.8607 26.6501 78.8907 25.8001 78.9607 24.9501C78.9907 24.5701 78.9507 24.1601 79.0807 23.8201C79.1707 23.5801 79.4807 23.2501 79.7007 23.2501C80.0407 23.2501 80.3907 23.4701 80.7007 23.6401C80.8107 23.7001 80.8707 23.9001 80.9007 24.0501C81.4707 27.5001 83.4007 30.3401 85.1807 33.2201C86.2207 34.9201 87.4907 36.5001 88.7807 38.0301C89.4707 38.8401 90.3607 39.5101 91.2507 40.1001C92.2207 40.7501 93.0407 40.4601 93.4807 39.4001C93.7807 38.6901 93.9207 37.9201 94.2507 37.2301C94.3807 36.9501 94.8307 36.6601 95.1407 36.6501C95.4507 36.6501 95.9007 36.9301 96.0407 37.2101C96.3507 37.8201 96.5007 38.5101 96.7207 39.1701C97.5807 41.7501 98.6407 44.2201 100.331 46.3801C101.101 47.3401 101.901 48.2701 103.481 48.5501ZM47.1807 122.35C47.9507 122.64 48.7207 122.99 49.5207 123.2C50.7907 123.53 52.0707 123.79 53.3607 124.04C59.5207 125.19 65.7207 125.83 72.0107 125.56C76.4407 125.37 80.5107 124.1 84.2807 121.85C85.2007 121.3 86.1007 120.66 86.8707 119.91C88.6007 118.22 89.2907 116.15 88.5007 113.79C87.9707 112.18 87.3007 110.62 86.6607 109.05C85.5707 106.33 84.3707 103.65 83.3807 100.9C81.5507 95.8101 79.4807 90.8401 77.0507 86.0001C75.7707 83.4501 74.7107 80.7901 73.5507 78.1901C73.3707 77.7901 73.1707 77.3901 72.9407 76.9101C66.9507 77.7601 61.0207 77.4201 55.1907 77.3601C54.5607 78.0101 54.5607 78.7201 54.4207 79.4001C53.9207 81.9001 53.3907 84.3901 52.9107 86.8901C52.3407 89.8401 51.7807 92.8001 51.2707 95.7601C50.8107 98.4201 50.4707 101.1 50.0007 103.76C49.1307 108.7 48.2107 113.63 47.3207 118.57C47.1207 119.76 46.9307 120.98 47.1807 122.35ZM105.621 61.3401C104.331 63.9501 101.971 65.2701 99.4207 66.2201C98.2707 66.6501 97.5807 67.2501 97.2307 68.3501C96.9507 69.2301 96.6007 70.1001 96.4407 71.0101C95.9007 74.0801 95.7207 77.1401 97.0007 80.1101C97.8407 82.0701 98.5407 82.1801 99.8707 80.4901C101.551 78.3701 102.411 75.9301 102.471 73.2201C102.481 72.7601 102.401 72.2701 102.541 71.8501C102.641 71.5401 103.001 71.1701 103.301 71.1101C103.591 71.0601 104.011 71.3001 104.261 71.5401C104.461 71.7301 104.511 72.0901 104.581 72.3901C104.811 73.4101 105.421 74.2201 106.141 74.9101C106.621 75.3801 107.231 75.7501 107.831 76.0501C108.201 76.2401 108.581 76.0201 108.761 75.6101C109.101 74.7901 109.001 73.9501 108.891 73.1001C108.811 72.4401 108.501 71.6601 109.251 71.2001C110.141 70.6601 110.621 71.5101 111.231 71.9101C111.931 72.3801 112.611 72.9101 113.371 73.2501C114.291 73.6701 115.051 73.2101 115.241 72.1901C115.441 71.1101 115.431 70.0401 114.951 69.0201C113.411 65.7701 111.061 63.3101 107.881 61.6301C107.271 61.3001 106.601 61.1101 105.621 61.3401ZM12.5207 46.8001C10.2707 46.1601 7.74068 46.0301 5.88068 46.6101C4.94068 46.9001 3.95067 47.2701 3.18067 47.8601C1.37067 49.2601 1.72068 52.0801 3.78068 53.0401C5.02068 53.6101 6.31068 53.7001 7.47068 52.7101C7.82068 52.4101 8.19067 52.1201 8.59067 51.9101C9.21067 51.5701 9.90068 51.7001 10.2807 52.1401C10.6407 52.5601 10.5007 53.2401 9.91068 53.7501C9.62068 54.0001 9.26068 54.1801 8.99068 54.4401C8.67068 54.7601 8.31068 55.0901 8.13068 55.4901C7.49068 56.9401 7.38067 58.4701 7.73067 60.0201C7.89067 60.7301 8.80068 61.0601 9.39068 60.6001C9.81068 60.2701 10.1307 59.8101 10.5307 59.4601C11.2107 58.8501 12.1407 59.1301 12.3107 60.0001C12.4407 60.6801 12.4307 61.3801 12.5507 62.0701C12.7407 63.1401 13.0307 64.1701 13.8207 65.0001C14.8107 66.0401 15.8907 66.0601 16.7407 64.8801C17.2307 64.2101 17.6507 63.4001 17.8107 62.6001C18.1807 60.7901 18.4307 58.9501 18.6107 57.1101C18.6907 56.2801 18.5107 55.4501 17.8107 54.8001C15.5707 52.7101 13.9707 50.1901 12.8507 47.3501C12.7707 47.1501 12.6207 46.9701 12.5207 46.8001ZM15.0407 89.9101C15.1207 88.8901 15.1807 87.9801 15.2707 87.0701C15.5507 84.2101 15.3207 81.3801 14.7807 78.5701C14.6907 78.1201 14.6007 77.6501 14.3907 77.2501C14.2407 76.9601 13.9107 76.7501 13.5107 76.3601C13.2407 77.0501 12.9707 77.5101 12.8707 78.0101C12.7507 78.6101 12.7607 79.2301 12.7407 79.8501C12.7307 80.3601 12.5307 80.7701 12.0807 80.9801C11.6107 81.1901 11.1007 81.0601 10.8707 80.6101C10.3507 79.6001 9.36067 79.3401 8.45067 78.9701C7.54067 78.6101 6.67067 78.0401 5.62067 78.2001C5.06067 78.9101 5.31068 79.5801 5.74068 80.1301C6.31068 80.8501 7.00068 81.4701 7.64068 82.1301C7.98068 82.4801 8.25068 82.9101 7.94068 83.3501C7.75068 83.6201 7.35068 83.8501 7.02068 83.8901C6.42068 83.9701 5.79067 83.8701 5.18067 83.9201C4.52067 83.9701 4.08067 84.3901 4.06067 84.8801C4.04067 85.3601 4.42068 85.8601 5.02068 86.0401C5.38068 86.1501 5.77067 86.1901 6.15067 86.2201C6.53067 86.2401 6.95067 86.1101 7.29067 86.2301C7.60067 86.3401 7.99067 86.6701 8.04067 86.9601C8.09067 87.2501 7.86067 87.7301 7.60067 87.9101C7.17067 88.2101 6.59068 88.2801 6.13068 88.5601C5.70068 88.8201 5.34068 89.2101 4.92068 89.5801C6.29068 90.4401 6.30067 90.4601 7.09067 90.1201C7.58067 89.9101 8.04068 89.6101 8.55068 89.4601C8.80068 89.3901 9.24067 89.4901 9.37067 89.6801C9.57067 89.9501 9.71067 90.4001 9.62067 90.7001C9.47067 91.2001 9.10067 91.6301 8.87067 92.1101C8.66067 92.5601 8.51067 93.0501 8.31067 93.5701C10.8207 93.6301 13.5707 92.0701 15.0407 89.9101ZM96.4407 114.02C97.2307 114.47 97.8007 113.97 98.4207 113.71C99.9907 113.05 100.691 113.52 100.771 115.27C100.791 115.66 100.751 116.04 100.761 116.43C100.771 116.89 100.781 117.36 100.831 117.82C100.881 118.28 100.891 118.82 101.441 118.96C101.981 119.1 102.271 118.65 102.491 118.24C102.701 117.83 102.841 117.38 103.081 116.99C103.451 116.39 104.161 116.31 104.661 116.8C105.041 117.17 105.341 117.66 105.771 117.96C106.031 118.15 106.521 118.21 106.821 118.11C107.201 117.98 107.301 117.53 107.171 117.13C107.051 116.77 106.841 116.43 106.741 116.06C106.601 115.53 107.031 114.91 107.591 114.93C108.021 114.95 108.501 115.07 108.871 115.29C109.531 115.67 110.131 116.15 110.901 116.69C111.091 116.18 111.291 115.84 111.321 115.49C111.351 115.12 111.271 114.71 111.141 114.36C110.761 113.4 111.131 112.73 111.881 112.16C111.981 112.08 111.991 111.9 112.071 111.71C111.981 111.54 111.921 111.29 111.761 111.16C109.751 109.54 107.391 108.57 105.041 107.6C104.211 107.26 103.321 107.5 102.621 108.02C101.121 109.1 99.6607 110.23 98.2207 111.4C97.3707 112.08 96.5907 112.85 96.4407 114.02ZM106.751 42.6001C106.661 43.0501 106.561 43.4101 106.531 43.7901C106.261 46.8101 105.501 49.7101 104.351 52.5101C103.881 53.6501 103.331 54.7601 102.861 55.9001C102.501 56.7601 102.881 57.5301 103.811 57.5601C104.791 57.5901 105.841 57.5401 106.751 57.2201C110.911 55.7601 112.461 51.8101 112.351 48.7401C112.281 46.7801 111.891 44.9101 110.481 43.4001C109.491 42.3501 108.381 41.8401 106.751 42.6001ZM19.0007 46.1101C19.4607 41.3601 20.1807 36.7501 22.0807 32.5201C21.9107 31.9601 21.7707 31.5201 21.6407 31.0801C21.4507 30.4201 20.9507 30.0701 20.3507 29.8701C19.4107 29.5501 18.5307 29.7001 17.7407 30.3201C16.7407 31.1001 16.0307 32.1101 15.6807 33.3101C14.6307 36.9201 14.7807 40.4601 16.5807 43.8101C16.9707 44.5401 17.5807 45.1601 18.1307 45.8001C18.2507 45.9501 18.5307 45.9501 19.0007 46.1101ZM36.2507 139.17C35.8507 139.79 35.9507 140.29 36.3907 140.7C39.1907 143.37 42.4807 144.46 46.3007 143.67C47.1607 143.49 48.0707 143.2 48.6207 142.29C48.0607 141.2 47.1607 140.68 46.1107 140.38C43.3107 139.56 40.4507 139 37.5207 138.96C37.0807 138.95 36.6307 139.11 36.2507 139.17ZM101.451 134.01C101.351 134.31 101.181 134.59 101.191 134.86C101.261 136.55 101.301 138.24 101.501 139.92C101.611 140.82 101.971 141.7 102.321 142.54C102.491 142.94 102.851 143.29 103.191 143.59C103.601 143.96 104.321 143.78 104.571 143.27C104.741 142.93 104.911 142.56 104.951 142.19C105.181 140.09 104.951 138.05 104.041 136.11C103.641 135.25 103.011 134.58 102.201 134.1C102.031 134.01 101.781 134.05 101.451 134.01ZM101.561 58.8701C101.321 58.9901 101.151 59.0201 101.061 59.1301C99.9407 60.5901 98.8307 62.0601 97.7207 63.5401C97.6307 63.6601 97.6007 63.8201 97.5707 63.9601C97.5507 64.0301 97.5707 64.1101 97.5907 64.3001C97.9507 64.3201 98.3507 64.4501 98.6707 64.3401C100.361 63.7701 101.871 62.8601 103.091 61.5301C103.491 61.0901 103.841 60.5401 103.491 59.8001C102.851 59.5001 102.171 59.1701 101.561 58.8701ZM19.2007 53.0901C19.0607 51.4401 18.9407 50.0901 18.8307 48.8001C18.0807 48.2601 17.4007 47.7801 16.7207 47.2901C16.0307 46.8001 15.7607 45.8001 14.3707 45.4301C15.4507 48.5001 16.6307 51.0201 19.2007 53.0901Z" fill="#1D262D"/>
<path fill-rule="evenodd" clip-rule="evenodd" d="M50.8707 55.7901C50.9807 55.2801 51.1607 54.21 51.4407 53.18C51.5307 52.85 51.8407 52.51 52.1407 52.32C52.3507 52.18 52.7507 52.18 52.9807 52.3C53.2107 52.42 53.4607 52.74 53.4807 52.98C53.5107 53.34 53.3307 53.72 53.2507 54.09C52.9907 55.22 52.7907 56.35 53.0007 57.53C53.3807 59.65 54.8407 61.16 56.9307 61.56C58.1207 61.79 59.0707 61.46 59.7607 60.46C60.8107 58.93 61.2607 57.26 60.9107 55.41C60.8707 55.19 60.7307 54.98 60.6807 54.76C60.4707 53.87 60.7507 53.28 61.4507 53.11C61.9907 52.97 62.5607 53.3901 62.7407 54.1501C63.3407 56.8401 63.0307 59.37 61.4007 61.66C60.3807 63.09 59.0107 63.73 57.2107 63.59C53.4907 63.29 50.8507 60.3201 50.8707 55.7901Z" fill="#1D262D"/>
<path fill-rule="evenodd" clip-rule="evenodd" d="M78.1006 44.7802C79.8106 44.7502 81.3906 46.5102 81.2106 48.3402C81.1506 48.9402 80.9406 49.5402 80.6706 50.0802C80.1506 51.1202 79.2606 51.7202 78.1006 51.7602C76.8806 51.7902 76.0906 51.0302 75.5806 50.0302C75.2806 49.4302 75.0606 48.7302 75.0206 48.0602C74.8806 46.2202 76.2506 44.8102 78.1006 44.7802Z" fill="#1D262D"/>
<path fill-rule="evenodd" clip-rule="evenodd" d="M46.3309 41.8701C46.3609 44.1001 45.3509 45.3601 43.4609 45.7501C42.6409 45.9201 41.9209 45.7101 41.3509 45.1301C40.4409 44.1901 40.0309 43.0201 40.3509 41.7501C40.6909 40.4201 41.5509 39.4301 42.9109 39.0201C44.3209 38.6001 45.5409 39.2101 46.0509 40.5901C46.2409 41.0801 46.2809 41.6201 46.3309 41.8701Z" fill="#1D262D"/>
<path fill-rule="evenodd" clip-rule="evenodd" d="M63.3609 88.7001C63.5809 88.2901 63.7909 87.79 64.0909 87.36C64.4909 86.8 64.8909 86.21 65.4109 85.77C67.1009 84.34 69.3109 84.84 70.1809 86.85C70.4809 87.54 70.6609 88.33 70.7009 89.08C70.9109 92.96 69.8509 96.5401 67.9809 99.9001C67.7909 100.23 67.5609 100.55 67.3109 100.84C66.3909 101.9 64.9909 102.53 63.4909 101.19C61.3709 99.29 59.0009 97.6601 57.5809 95.0901C57.2109 94.4201 56.7909 93.7601 56.5309 93.0401C56.3009 92.4001 56.1409 91.69 56.1409 91.02C56.1209 89 57.2709 87.7701 59.2809 87.8701C60.5509 87.9401 61.8109 88.3801 63.3609 88.7001ZM65.5009 99.69C65.7109 99.46 66.0309 99.22 66.2109 98.91C67.8309 96.13 68.6809 93.13 68.7009 89.91C68.7009 89.3 68.5809 88.6901 68.4609 88.0901C68.3709 87.6201 68.1109 87.14 67.5909 87.17C67.1809 87.19 66.6909 87.39 66.3909 87.67C65.6509 88.39 65.2909 89.3301 65.1609 90.3401C65.1009 90.7901 65.1409 91.26 65.0709 91.72C64.9709 92.35 64.1209 92.6901 63.6209 92.2901C63.1409 91.9101 62.7509 91.42 62.3009 91.02C61.1309 89.98 59.8309 89.5901 58.3809 90.2301C57.9009 91.5601 58.4409 92.58 59.0009 93.61C60.4109 96.17 62.6109 97.9601 64.9309 99.6201C65.0509 99.6901 65.2409 99.65 65.5009 99.69Z" fill="#1D262D"/>
</svg>
