<svg width="68" height="115" viewBox="0 0 68 115" fill="none" xmlns="http://www.w3.org/2000/svg">
<path fill-rule="evenodd" clip-rule="evenodd" d="M21.689 31.2761C22.1623 31.8707 22.5318 32.4248 22.9878 32.8981C23.5073 33.4407 24.0441 33.9949 24.6617 34.4163C26.0182 35.3398 27.4902 35.438 28.9737 34.6991C30.8612 33.764 32.16 32.3036 32.7892 30.2775C32.9046 29.9023 33.0085 29.5213 33.1528 29.0249C33.5338 29.3597 33.8224 29.6079 34.1053 29.8677C35.0692 30.7508 36.1429 31.4608 37.4186 31.8014C37.8457 31.9168 38.2902 31.9803 38.7289 32.0207C40.1662 32.1477 40.9686 31.2357 41.3149 30.3294C41.4419 30.0004 41.5227 29.6599 41.6151 29.3482C41.9498 29.1981 42.048 29.4636 42.1923 29.5964C42.9485 30.2833 43.6642 31.0279 44.4608 31.6629C45.3036 32.3382 46.2791 32.7885 47.3758 32.9039C47.6414 32.9328 47.9069 32.9616 48.1724 32.9501C49.7598 32.9039 50.6199 32.2228 51.1683 30.4853C51.3299 30.7393 51.4857 30.9182 51.5665 31.126C52.3689 33.2214 52.8076 35.386 52.9634 37.6257C53.2636 41.9376 52.1265 45.9205 50.3197 49.7591C49.8637 50.7231 49.3788 51.6813 48.8189 52.5875C46.6947 56.0336 43.6469 58.4407 40.0392 60.1608C39.006 60.6515 37.8977 61.0267 36.7836 61.2749C35.3579 61.5981 33.8917 61.8348 32.4371 61.9502C27.952 62.3197 23.6574 61.5866 19.5648 59.6586C17.3309 58.6081 15.2529 57.3035 13.4461 55.6295C10.7216 53.107 8.34916 50.2901 6.81949 46.8498C6.65787 46.4862 6.5251 46.1052 6.39811 45.73C6.37502 45.6665 6.44429 45.5742 6.50201 45.4068C6.73291 45.4298 6.99266 45.4356 7.24087 45.4933C8.01436 45.6665 8.67241 45.4183 9.19192 44.8872C9.6537 44.4139 10.0866 43.8886 10.4387 43.3287C11.3334 41.8914 12.0377 40.3502 12.6207 38.757C12.765 38.3587 12.7765 37.8796 13.2499 37.5506C13.4865 37.8162 13.6886 38.1221 13.9656 38.3299C14.3524 38.6127 14.7853 38.8667 15.2298 39.0457C16.0033 39.3574 16.719 39.1611 17.3482 38.63C17.9716 38.1048 18.4276 37.441 18.8028 36.731C19.611 35.1897 20.3902 33.6428 21.1868 32.1016C21.3369 31.8533 21.4985 31.5994 21.689 31.2761ZM35.5714 49.1761C35.5772 49.1761 35.583 49.1761 35.5945 49.1761C35.5945 49.7071 35.6407 50.2497 35.583 50.775C35.4906 51.6755 34.492 52.7261 33.6146 52.9165C32.2639 53.2109 30.74 52.397 30.3128 51.0867C30.1512 50.5903 30.1339 50.0477 30.0473 49.5224C30.0011 49.2396 29.8915 49.0087 29.574 48.9567C29.2854 48.9106 28.9621 49.153 28.9044 49.4762C28.8698 49.6494 28.8582 49.8284 28.864 50.0073C28.9333 52.0911 30.0993 53.5111 32.1369 54.0133C34.0475 54.4808 36.1025 53.3206 36.6509 51.4273C37.0087 50.192 36.7836 48.9567 36.5296 47.7272C36.4777 47.4732 36.0967 47.2481 35.9062 47.3578C35.7331 47.4559 35.5253 47.6637 35.5137 47.8311C35.4791 48.2814 35.5483 48.7316 35.5714 49.1761ZM23.7035 46.7113C23.7093 45.6838 23.0397 45.0835 21.8737 45.0662C20.7539 45.0546 19.9515 45.7877 19.9573 46.821C19.9631 47.7965 20.7539 48.6104 21.7121 48.6219C22.7915 48.6393 23.6978 47.7619 23.7035 46.7113ZM42.9542 40.9448C42.9889 40.2001 42.6079 39.5478 42.0076 39.3285C40.9859 38.9533 39.6294 39.6633 39.3465 40.7139C39.1445 41.4585 39.5312 42.3012 40.2182 42.6245C41.3899 43.1729 42.8907 42.2493 42.9542 40.9448Z" fill="#FFEAE3"/>
<path fill-rule="evenodd" clip-rule="evenodd" d="M11.6564 25.2267C12.886 25.3826 13.7807 24.915 14.5657 24.2108C15.3565 23.495 16.1127 22.7331 16.8919 22.0057C17.2152 21.6998 17.5442 21.3939 17.9021 21.1341C18.2196 20.9032 18.5717 20.7589 18.9988 20.7012C19.6511 20.6088 20.2976 20.401 20.921 20.1759C21.6426 19.9104 22.2891 19.5121 22.5142 18.7963C24.0208 18.4096 25.4408 18.0517 26.8607 17.6765C27.7728 17.4398 28.6906 17.3359 29.6315 17.2551C34.0877 16.8915 38.2322 17.9478 42.0939 20.0951C45.3899 21.9307 47.9932 24.5225 49.927 27.7781C50.1174 28.1013 50.1925 28.4188 50.1117 28.794C49.9904 29.3597 49.9212 29.9369 49.8 30.4968C49.6095 31.3569 49.217 31.6975 48.3569 31.7667C47.6296 31.8302 46.908 31.7494 46.2846 31.38C45.5573 30.9528 44.8358 30.4911 44.2066 29.9369C43.3061 29.1403 42.4749 28.2629 41.8399 27.2239C41.7245 27.0392 41.5744 26.8718 41.407 26.7275C41.2281 26.5774 40.7951 26.6929 40.7086 26.9122C40.6277 27.1143 40.5758 27.3336 40.5527 27.553C40.4834 28.1706 40.4719 28.7998 40.368 29.4174C40.1775 30.5603 39.5079 31.0221 38.3765 30.8201C36.5236 30.4853 35.1325 29.4174 33.9838 27.9859C33.6779 27.6049 33.447 27.1662 33.1699 26.7621C33.0718 26.6178 32.9679 26.4735 32.8351 26.3581C32.6042 26.156 32.1367 26.3119 32.0732 26.6121C32.0212 26.8718 32.0327 27.1431 32.0097 27.4086C31.9519 28.0263 31.9346 28.6555 31.8249 29.2673C31.4786 31.2472 30.3472 32.6788 28.5809 33.5908C27.4207 34.1911 26.2604 34.1219 25.1695 33.3541C24.0496 32.5633 23.2704 31.4897 22.595 30.3237C22.4391 30.0524 22.3122 29.7638 22.1332 29.5155C21.9196 29.2269 21.4059 29.2385 21.1981 29.5386C21.0249 29.7926 20.8979 30.0812 20.7594 30.3583C19.8127 32.2285 18.8834 34.1045 17.9136 35.9575C17.625 36.5058 17.2614 37.0253 16.8573 37.4929C16.3378 38.099 15.7433 38.1336 15.0679 37.7065C14.5195 37.3601 14.1963 36.8291 13.873 36.2922C13.6652 35.9517 13.4863 35.588 13.2496 35.2705C12.9783 34.9184 12.4299 35.0397 12.2972 35.4668C12.2279 35.6804 12.2048 35.8997 12.1644 36.1191C11.6911 38.6069 10.5886 40.8408 9.31866 42.9997C9.20898 43.1902 9.06467 43.3633 8.92037 43.5365C8.14687 44.4601 7.08477 44.6044 6.08615 43.929C5.75136 43.7039 5.68209 43.3518 5.64169 42.9939C5.46852 41.4873 5.36461 39.975 5.53201 38.4569C5.86681 35.3456 6.92891 32.471 8.53939 29.8157C9.45719 28.2629 10.5712 26.8083 11.6564 25.2267Z" fill="#AE7251"/>
<path fill-rule="evenodd" clip-rule="evenodd" d="M30.0243 63.2835C33.0317 63.1738 35.9006 62.891 38.7117 62.0078C39.4967 63.0526 39.9931 64.1955 40.5935 65.2807C43.6643 70.8741 46.3947 76.6233 48.4611 82.6554C48.0917 83.5501 47.2951 83.908 46.5216 84.2255C44.282 85.1491 41.9673 85.7494 39.5198 85.7725C37.1993 85.7956 34.8731 85.9745 32.5815 85.5358C30.4399 85.1317 28.31 84.6411 26.1915 84.1274C25.597 83.9831 25.0371 83.6656 24.4771 83.3885C24.0558 83.1749 23.9807 82.9209 24.1423 82.5111C24.2232 82.3033 24.3328 82.107 24.431 81.905C25.8683 78.9727 26.89 75.8845 27.7674 72.7501C28.5351 70.0025 29.2566 67.2433 29.73 64.4264C29.7761 64.0801 29.8973 63.7453 30.0243 63.2835Z" fill="#FFBD22"/>
<path fill-rule="evenodd" clip-rule="evenodd" d="M20.7021 88.976C21.0716 88.0063 22.4454 85.53 23.3459 84.2139C23.519 84.2774 23.7211 84.3351 23.9058 84.4274C24.939 84.97 26.03 85.3337 27.1556 85.6108C29.9263 86.2919 32.7028 86.9211 35.5717 86.973C37.8402 87.0134 40.1145 87.0077 42.3657 86.6613C44.4899 86.3323 46.5044 85.6454 48.3689 84.5487C48.5536 84.4448 48.7556 84.3755 49.0038 84.2716C49.6734 85.7955 49.8986 87.3078 49.7947 88.8837C49.76 89.3743 49.5234 89.7438 49.102 89.9516C48.6286 90.1882 48.1322 90.4133 47.6243 90.5577C45.5231 91.1695 43.3758 91.5389 41.1881 91.6082C39.4968 91.6602 37.8055 91.6775 36.1143 91.7006C32.7086 91.7525 29.3722 91.233 26.0646 90.4942C24.5061 90.1478 22.9649 89.6918 21.4237 89.2762C21.1697 89.2127 20.9388 89.0799 20.7021 88.976Z" fill="#FF824C"/>
<path fill-rule="evenodd" clip-rule="evenodd" d="M20.1998 14.8769C19.3512 15.177 18.4854 15.483 17.5445 15.812C15.1432 14.2996 12.9035 12.5622 11.3335 10.1089C10.1963 8.33105 9.91926 6.38578 10.4041 4.3366C10.5023 3.91522 10.7043 3.49962 10.9236 3.11864C11.1545 2.71458 11.599 2.65108 11.9453 2.97433C12.3032 3.30336 12.6496 3.66701 12.9151 4.07108C13.3249 4.70026 13.6655 5.38139 14.0349 6.04521C14.185 6.31651 14.2947 6.62244 14.4967 6.84756C14.6179 6.9861 14.9008 7.09 15.0739 7.04382C15.2413 6.99764 15.4261 6.77252 15.4838 6.58781C15.5646 6.34537 15.53 6.05676 15.5646 5.797C15.6858 4.82148 15.8128 3.85173 15.9687 2.88775C16.0552 2.3567 16.2457 1.86028 16.6786 1.36963C16.823 1.53125 17.0077 1.65247 17.0712 1.81987C17.279 2.3567 17.4406 2.91084 17.6195 3.45921C17.6888 3.66701 17.7234 3.89791 17.8389 4.07685C17.9255 4.20961 18.1333 4.35969 18.2603 4.34238C18.4565 4.31929 18.7278 4.1923 18.7913 4.03644C18.976 3.5862 19.0568 3.09555 19.2069 2.63377C19.282 2.3971 19.4205 2.18353 19.559 1.89491C20.0381 2.59913 20.0901 3.32067 20.2229 4.00758C20.3556 4.70603 20.4364 5.4218 20.4653 6.1318C20.5923 9.02373 20.5807 11.9157 20.1998 14.8769Z" fill="#AE7251"/>
<path fill-rule="evenodd" clip-rule="evenodd" d="M2.23636 68.0167C2.37489 67.3529 2.80204 67.0874 3.18879 66.793C3.39659 66.6314 3.63903 66.5044 3.83529 66.3254C4.11813 66.0657 4.02578 65.575 3.66212 65.4423C3.3735 65.3384 3.0618 65.298 2.76164 65.2229C2.42107 65.1306 2.07473 65.0497 1.73994 64.9285C1.46864 64.8304 1.30701 64.6168 1.35896 64.3051C1.41091 64.0165 1.57254 63.8029 1.86116 63.7452C2.07473 63.699 2.29985 63.7337 2.5192 63.7221C2.79627 63.699 3.04448 63.6124 3.14261 63.3123C3.2292 63.0352 3.09066 62.7697 2.73855 62.5561C2.6231 62.4868 2.49611 62.4464 2.38067 62.3772C1.37628 61.7826 1.20888 61.3612 1.434 59.9932C1.96506 59.8258 2.46148 60.0682 2.94635 60.2299C3.70253 60.4838 4.42984 60.8302 5.18024 61.1188C5.53235 61.2516 5.77479 61.4767 5.99414 61.7768C6.15576 62.002 6.40975 62.1174 6.69836 62.0135C6.98698 61.9096 7.11397 61.6614 7.11974 61.3901C7.12551 61.1361 7.02161 60.8821 6.99852 60.6224C6.96389 60.2299 6.91771 59.8258 6.95812 59.439C6.99275 59.0696 7.23519 58.7925 7.55267 58.5963C7.93941 58.3596 8.36656 58.4635 8.5686 58.8676C8.68981 59.1043 8.79372 59.3582 8.84567 59.6122C9.01306 60.53 9.16315 61.4536 9.30168 62.3714C9.34786 62.6773 9.30168 63.0006 9.37672 63.3007C9.78656 64.9747 9.47485 66.5679 8.83412 68.1148C8.17608 69.7022 6.98698 70.47 5.17447 70.4815C4.81081 69.9909 5.03016 69.4713 5.12252 68.9576C5.1687 68.6979 5.30146 68.4554 5.34187 68.1957C5.40536 67.8147 5.01284 67.4914 4.66073 67.6357C4.41829 67.7339 4.19895 67.907 3.96228 68.0167C3.40814 68.2707 2.854 68.3169 2.23636 68.0167Z" fill="#FFEAE3"/>
<path fill-rule="evenodd" clip-rule="evenodd" d="M9.70579 53.5514C9.26132 53.6957 9.01311 53.8342 8.75913 53.84C6.80231 53.915 4.90322 53.6495 3.35624 52.3392C1.68803 50.925 0.868364 49.1067 1.23779 46.8844C1.42251 45.7645 2.14982 45.0776 3.21193 44.7544C4.06046 44.5004 4.70696 44.8121 5.0533 45.6144C5.28419 46.1455 5.46891 46.6939 5.6998 47.2249C6.52524 49.1125 7.62198 50.8384 8.89189 52.4604C9.13433 52.7721 9.36522 53.0896 9.70579 53.5514Z" fill="#FFEAE3"/>
<path fill-rule="evenodd" clip-rule="evenodd" d="M60.0346 47.2769C60.5021 47.323 60.6234 47.6232 60.6522 47.9291C60.7042 48.4602 60.7042 48.9912 60.6984 49.5223C60.6926 50.2727 60.7965 50.5902 61.1371 50.6306C61.6508 50.6941 61.7894 50.2785 61.9914 49.9379C62.1934 49.5973 62.4128 49.2625 62.6783 48.9739C62.8515 48.7834 63.1401 48.616 63.3883 48.8181C63.5384 48.9393 63.6654 49.199 63.6481 49.378C63.6077 49.8109 63.4922 50.2438 63.3825 50.671C63.3306 50.8846 63.1574 51.0808 63.1574 51.2886C63.1516 51.4791 63.2555 51.7446 63.3999 51.8428C63.5442 51.9351 63.8559 51.9351 63.9944 51.8312C64.3811 51.5426 64.6986 51.1328 65.247 51.1559C65.449 51.1616 65.6511 51.2309 65.8185 51.2655C65.9397 51.6176 65.755 51.7735 65.5933 51.9063C65.4259 52.0448 65.2066 52.1256 65.0276 52.2468C64.4966 52.6105 64.5139 53.0896 65.0565 53.3724C65.2932 53.4936 65.5529 53.5687 65.7838 53.7015C65.9628 53.8111 66.1128 53.9785 66.3553 54.1863C66.1532 54.3653 66.0205 54.5442 65.8415 54.625C64.9353 55.0406 63.9713 55.1734 62.9842 55.1849C62.4532 55.1907 61.9221 55.1965 61.3969 55.2484C60.3232 55.3639 59.3592 55.1792 58.6146 54.3191C57.8873 53.4763 57.1484 52.6567 56.4442 51.7966C56.1325 51.4214 55.9131 50.9654 55.9362 50.4516C55.942 50.29 56.0286 50.0533 56.1498 50.0014C56.323 49.9264 56.6347 49.8917 56.7501 49.9956C57.1427 50.342 57.4948 50.746 57.8353 51.1501C58.0893 51.4502 58.2856 51.8774 58.782 51.6927C59.1918 51.5368 59.1572 51.1385 59.1687 50.7807C59.2091 49.7994 59.29 48.8238 59.6536 47.906C59.746 47.6751 59.9191 47.4731 60.0346 47.2769Z" fill="#FFEAE3"/>
<path fill-rule="evenodd" clip-rule="evenodd" d="M54.2329 40.829C54.2155 40.1536 54.1925 39.715 54.1925 39.2763C54.1982 36.8115 53.875 34.3929 53.1477 32.032C53.1073 31.905 53.0726 31.778 53.0207 31.651C52.6397 30.7217 53.1246 30.0059 53.8057 29.4402C54.3656 28.9727 55.4277 28.8688 56.1666 29.4518C57.0844 30.1733 57.6847 31.0738 57.7944 32.2513C58.0484 34.947 57.2172 37.3425 55.7394 39.5533C55.5432 39.8419 55.2719 40.0844 55.0063 40.3268C54.8447 40.4711 54.6485 40.5693 54.2329 40.829Z" fill="#FFEAE3"/>
<path fill-rule="evenodd" clip-rule="evenodd" d="M64.8146 90.4253C65.1263 91.0775 65.1032 91.7125 64.9012 92.2955C64.1566 94.4601 62.8924 96.2438 60.8779 97.4213C60.8029 97.4617 60.7105 97.4675 60.5777 97.4964C60.2372 97.1385 60.0698 96.7113 60.2141 96.2034C60.7047 94.4255 61.4378 92.7631 62.7712 91.4412C63.1695 91.0429 63.689 90.7543 64.1854 90.4657C64.3471 90.3791 64.5953 90.4368 64.8146 90.4253Z" fill="#DB9245"/>
<path fill-rule="evenodd" clip-rule="evenodd" d="M26.9193 107.079C27.1675 107.563 27.4561 108.06 27.687 108.579C28.1026 109.515 28.4894 110.455 28.8819 111.396C29.0897 111.899 29.1878 112.418 29.0839 112.961C29.0146 113.342 28.6741 113.555 28.2989 113.469C27.8429 113.365 27.4965 113.093 27.1964 112.759C26.192 111.616 25.6898 110.276 25.6378 108.747C25.6147 107.858 25.9495 107.298 26.9193 107.079Z" fill="#DB9245"/>
<path fill-rule="evenodd" clip-rule="evenodd" d="M22.1051 17.4859C21.5163 16.9029 21.3835 16.3256 21.4009 15.6676C21.4182 14.7209 21.6029 13.8147 21.8338 12.9027C22.2436 11.2922 22.8728 9.77406 23.7791 8.38293C24.1369 7.82879 24.5872 7.31505 25.0836 6.88212C25.7012 6.3453 26.2958 6.47806 26.798 7.14188C27.381 7.91537 27.6292 8.8274 27.7273 9.75674C27.9236 11.575 27.9236 13.4048 27.7966 15.2289C27.762 15.7542 27.5946 16.1698 27.0404 16.3603C25.4357 16.9202 23.8195 17.4051 22.1051 17.4859Z" fill="#E84A6E"/>
<path fill-rule="evenodd" clip-rule="evenodd" d="M17.331 19.9737C16.2342 21.0243 15.149 22.0748 14.0523 23.1023C13.7637 23.3736 13.4346 23.616 13.0883 23.8181C12.4533 24.1875 11.9165 24.0778 11.4259 23.5121C11.3104 23.3794 11.2181 23.2235 11.1199 23.0734C9.98856 21.3013 9.03613 19.4426 8.25686 17.4916C8.01443 16.8797 7.74313 16.2506 8.02597 15.581C8.45312 15.275 8.90914 15.3789 9.34206 15.3905C10.612 15.4309 14.9412 16.2736 16.2458 16.7297C16.4016 17.2145 16.5748 17.7571 16.7537 18.2997C16.9442 18.8539 17.1347 19.3965 17.331 19.9737Z" fill="#E84A6E"/>
<path fill-rule="evenodd" clip-rule="evenodd" d="M21.1637 18.6634C20.5114 19.1598 19.9226 19.3503 19.3107 19.4657C18.7393 19.5696 18.4449 19.4368 18.2255 18.9347C18.0351 18.4902 17.9138 18.0169 17.7695 17.5782C18.2602 16.7758 18.9817 16.4814 19.8072 16.2852C20.471 16.949 20.6037 17.8668 21.1637 18.6634Z" fill="#E84A6E"/>
<path fill-rule="evenodd" clip-rule="evenodd" d="M17.3304 47.6808C14.9464 47.8425 13.2898 50.111 13.6708 52.4084C13.8439 53.4359 14.4038 54.2555 15.1716 54.7923C15.8296 55.3523 16.6897 55.7044 17.5209 55.7679C19.4431 55.9237 21.042 53.915 21.3018 52.189C21.6539 49.8512 19.7779 47.5135 17.3304 47.6808Z" fill="#FFC2BD"/>
<path fill-rule="evenodd" clip-rule="evenodd" d="M51.4282 42.9537C51.3878 42.567 51.2839 42.2148 51.1281 41.8974C50.6721 40.1599 49.0039 39.0574 47.1856 39.2767C45.1653 39.5192 43.2142 40.9507 43.3354 43.1846C43.4682 45.6032 45.9272 47.1617 48.1957 46.7634C49.8639 46.4748 51.613 44.7489 51.4282 42.9537Z" fill="#FFC2BD"/>
<path fill-rule="evenodd" clip-rule="evenodd" d="M28.5347 64.2128C27.7612 64.4898 27.3571 64.9632 26.9184 65.3961C25.6485 66.6487 24.3151 67.8262 22.8028 68.7902C21.6079 69.5522 20.3322 70.014 18.9295 70.1294C16.0896 70.3661 13.3188 70.1698 10.7213 68.8422C10.5308 68.744 10.323 68.6805 10.0863 68.594C9.86123 68.9288 9.68229 69.2289 9.46871 69.506C8.56245 70.6778 7.43108 71.4917 5.91296 71.6648C5.69361 71.6879 5.46849 71.7168 5.24914 71.6995C4.39484 71.6417 3.9446 71.2492 3.79452 70.4122C3.74834 70.1525 3.75411 69.8812 3.73102 69.5406C3.48281 69.5002 3.2346 69.4598 2.98062 69.4252C2.76127 69.3905 2.53615 69.3732 2.32257 69.327C0.966078 69.0153 0.631283 68.2823 1.2951 67.0874C1.42209 66.8565 1.58949 66.6429 1.7742 66.3658C1.54331 66.2215 1.32973 66.0715 1.10461 65.9502C0.186814 65.4654 0.0367336 64.8708 0.296488 63.8029C0.377301 63.4681 0.602422 63.168 0.787136 62.7928C0.654372 62.5099 0.486975 62.1982 0.359984 61.875C0.111774 61.2343 0.0829125 60.5704 0.186814 59.9008C0.296488 59.1735 0.712095 58.8099 1.45095 58.7695C2.17827 58.7348 2.8594 58.9484 3.52899 59.1966C4.1524 59.4275 4.77004 59.6815 5.35304 59.9066C5.81483 59.7046 5.73979 59.289 5.85524 58.9715C6.13231 58.2211 6.59987 57.667 7.37336 57.3957C8.28538 57.0782 9.07042 57.3322 9.53798 58.1807C9.76887 58.6021 9.96513 59.0754 10.0459 59.5545C10.2768 60.9168 10.4904 62.279 10.6116 63.6529C10.7155 64.8881 10.6867 66.1292 10.7213 67.4741C12.0201 68.3284 13.5324 68.8249 15.1487 68.9345C16.3435 69.0153 17.5557 68.998 18.7564 68.9692C19.8416 68.9461 20.846 68.594 21.7926 68.0514C23.3107 67.174 24.6037 66.0137 25.8737 64.8246C26.3874 64.3398 26.8492 63.8029 27.3918 63.2199C26.8896 62.9255 26.2893 63.0179 25.764 62.8678C25.2098 62.712 24.6268 62.6369 24.0669 62.4984C23.4608 62.3483 22.8605 62.1809 22.2659 61.9904C21.7176 61.8115 21.1692 61.6095 20.6324 61.3959C20.0956 61.1823 19.5645 60.9514 19.0392 60.709C18.5139 60.4665 17.9944 60.2068 17.4922 59.9239C16.9843 59.6469 16.4879 59.3467 16.003 59.035C15.5181 58.7233 15.0332 58.3943 14.5714 58.0479C14.0693 57.6785 13.5844 57.286 13.1053 56.8877C12.6608 56.5183 12.2221 56.1315 11.8065 55.7332C11.3909 55.3349 10.9984 54.9136 10.6174 54.5268C7.77742 55.5197 5.16833 55.0636 2.84208 53.3954C0.827542 51.9524 -0.0960298 49.8628 0.00787201 47.3634C0.100229 45.1583 1.61835 43.6575 3.84069 43.5132C4.01386 43.5017 4.18126 43.4844 4.44679 43.467C4.44679 43.2246 4.46988 43.011 4.44102 42.809C3.90419 39.0801 4.5911 35.5416 6.05149 32.1129C7.05588 29.7578 8.42392 27.6278 9.99976 25.6248C10.2191 25.3477 10.4385 25.0649 10.6982 24.7301C10.5366 24.4241 10.3865 24.1124 10.2076 23.8181C9.16278 22.1556 8.23343 20.4297 7.47149 18.6172C7.22905 18.0457 7.02124 17.4512 6.84808 16.8566C6.74995 16.5218 6.72108 16.1524 6.7384 15.8003C6.79035 14.9056 7.22328 14.4092 8.12376 14.2649C8.55668 14.1956 9.01847 14.1783 9.45139 14.236C10.7328 14.4034 12.0028 14.617 13.2842 14.8132C13.4574 14.8363 13.6306 14.8421 13.9827 14.8652C13.7114 14.565 13.544 14.3803 13.3766 14.2014C12.528 13.2893 11.6102 12.4293 10.8483 11.448C9.09928 9.19099 8.63749 6.62808 9.33595 3.86891C9.47448 3.32054 9.74001 2.77217 10.069 2.31038C10.7271 1.38681 11.7545 1.28291 12.6262 2.01022C13.0302 2.35079 13.3766 2.77217 13.7287 3.17046C13.9307 3.40135 14.0981 3.6611 14.3521 4.00167C14.4849 3.78232 14.6003 3.6611 14.6407 3.5168C14.7677 3.04346 14.8254 2.54704 14.9986 2.09103C15.1833 1.59461 15.4084 1.09242 15.7144 0.665267C16.3551 -0.22367 17.1113 -0.212126 17.7866 0.642178C17.9483 0.849982 18.081 1.08087 18.2773 1.37526C18.462 1.15591 18.5774 0.982745 18.7217 0.838437C19.3856 0.17462 20.1129 0.255433 20.5689 1.08087C20.7825 1.46762 20.9787 1.889 21.0595 2.31615C21.2847 3.44753 21.4925 4.59045 21.6079 5.73914C21.7003 6.66848 21.6483 7.60937 21.6714 8.54449C21.6772 8.74652 21.7003 8.94855 21.7349 9.41034C22.0466 8.94278 22.2082 8.69457 22.3699 8.45213C22.7681 7.86335 23.1376 7.25149 23.5763 6.69157C23.8476 6.34523 24.1997 6.04507 24.5633 5.79686C25.5908 5.10418 26.751 5.27735 27.5534 6.21247C28.3673 7.15913 28.7136 8.30782 28.8637 9.52001C29.1119 11.5172 29.1523 13.5202 28.9272 15.5232C28.9157 15.6502 28.9388 15.783 28.9561 15.9908C29.2101 16.0139 29.464 16.0716 29.718 16.0543C34.4571 15.6849 38.8383 16.9028 42.9193 19.2002C45.7478 20.7934 48.0971 22.9868 49.95 25.6652C50.585 26.5772 51.1102 27.5643 51.6875 28.5167C51.8433 28.7765 52.0107 29.0247 52.2012 29.3191C52.4494 29.0824 52.6341 28.8977 52.8304 28.7245C54.0888 27.6336 55.6646 27.5816 56.9807 28.5975C58.0082 29.3941 58.6604 30.4331 58.8971 31.7146C59.0818 32.6843 59.0934 33.6599 58.9144 34.6354C58.6547 36.0496 58.2622 37.4119 57.6157 38.6933C56.6574 40.5982 55.9879 41.262 54.031 42.2318C53.9387 42.607 53.8348 43.0341 53.7367 43.467C52.8246 47.4615 51.2776 51.1846 48.9168 54.5499C48.5069 55.1329 48.0625 55.6986 47.5545 56.195C45.6381 58.0768 43.5716 59.7623 41.1414 60.9572C40.9048 61.0726 40.6797 61.2169 40.4488 61.3555C40.4141 61.3728 40.4084 61.4305 40.3391 61.5575C40.4545 61.6787 40.5758 61.8519 40.7316 61.9789C42.0997 63.0641 43.56 64.0107 45.2283 64.5649C47.5949 65.3499 49.9442 65.3961 52.2763 64.3802C53.8348 63.699 55.0816 62.6427 56.0283 61.2516C56.8537 60.0394 57.6099 58.7695 58.3776 57.5169C58.6547 57.0609 58.9087 56.5875 58.8567 55.9699C57.4944 54.9886 56.3688 53.7475 55.4164 52.3391C54.9546 51.6522 54.6949 50.9076 54.8103 50.0648C54.9373 49.1643 55.7454 48.5121 56.594 48.639C56.8075 48.6737 57.0211 48.7603 57.2231 48.8526C57.4598 48.9681 57.6792 49.1239 57.9735 49.3086C58.0717 49.0431 58.164 48.8064 58.2506 48.5698C58.4815 47.9464 58.6316 47.2768 58.9548 46.7053C59.5032 45.724 60.548 45.6663 61.2695 46.5437C61.5697 46.9131 61.7544 47.3749 62.0142 47.8425C62.297 47.7501 62.5799 47.6231 62.8742 47.5596C63.7632 47.3749 64.4616 47.779 64.7387 48.6564C64.8599 49.0316 64.9119 49.4298 65.0042 49.8628C65.3506 49.909 65.7085 49.9263 66.0432 50.0186C66.9726 50.2611 67.3478 50.9422 67.0534 51.8542C66.961 52.1428 66.7879 52.4141 66.6493 52.7028C66.8802 52.9856 67.1458 53.2338 67.3247 53.534C67.6941 54.1516 67.5383 54.8847 66.961 55.3234C66.7186 55.5081 66.4358 55.687 66.1472 55.7679C65.3794 55.9814 64.5944 56.2874 63.8151 56.2874C62.4933 56.2874 61.2811 56.7145 60.1382 56.8992C59.0934 58.579 58.1467 60.1895 57.1135 61.748C55.5665 64.0858 53.4019 65.5693 50.6369 66.1119C48.8129 66.4697 46.9888 66.3658 45.2283 65.7713C44.2643 65.4423 43.3522 64.9632 42.4171 64.5418C42.1458 64.4206 41.8861 64.2647 41.6263 64.1262C41.3781 64.4725 41.6263 64.6861 41.736 64.8939C42.7288 66.8392 43.7505 68.7671 44.7376 70.7124C46.9022 74.9724 48.5877 79.4344 50.204 83.9195C50.7177 85.3453 51.0352 86.823 51.041 88.3642C51.0468 89.865 50.3425 90.8001 48.986 91.3081C48.3742 91.5389 47.7565 91.7468 47.1043 91.9776C49.9038 94.9966 55.3587 97.4094 58.8163 96.9361C58.9029 96.6301 59.001 96.3011 59.0934 95.9606C59.5898 94.0326 60.4037 92.2663 61.7717 90.7943C62.1296 90.4076 62.5683 90.0901 62.9897 89.7611C63.1629 89.6225 63.3707 89.5244 63.5727 89.4378C64.8484 88.901 66.0432 89.155 66.2106 90.9502C66.2741 91.6313 66.176 92.2894 65.9451 92.9185C65.1889 94.9793 63.9421 96.6936 62.17 97.9924C61.7486 98.3041 61.2349 98.5004 60.75 98.7139C60.3056 98.9102 59.8553 98.8756 59.5205 98.5004C59.2781 98.2291 59.0126 98.206 58.6835 98.206C55.8089 98.2175 53.1421 97.4556 50.6369 96.0587C48.7955 95.0312 47.1158 93.7959 45.5746 92.3182C40.697 92.9763 35.8136 92.9647 30.9071 92.5953C30.4742 92.9474 30.2779 93.4323 30.1625 93.9633C29.8739 95.2679 29.6026 96.5724 29.2851 97.8712C28.7598 100.036 28.1999 102.189 27.6631 104.354C27.588 104.654 27.5361 104.96 27.461 105.323C27.767 105.664 28.0787 106.01 28.1249 106.547C28.1595 106.928 28.4135 107.286 28.5693 107.655C29.0253 108.717 29.4929 109.779 29.9489 110.847C30.2318 111.517 30.3472 112.215 30.2722 112.943C30.1279 114.374 29.0196 115.067 27.7035 114.484C27.2244 114.276 26.7568 113.959 26.4047 113.572C24.9905 112.008 24.344 110.166 24.5576 108.042C24.6211 107.384 24.8577 106.807 25.435 106.472C25.966 106.166 26.1161 105.698 26.2546 105.167C27.0454 102.016 27.9401 98.8871 28.5578 95.6893C28.7656 94.6041 29.0773 93.542 29.3601 92.399C29.1292 92.3298 28.933 92.249 28.7252 92.2085C27.1147 91.868 25.4869 91.5736 23.888 91.1811C22.6354 90.8751 21.4116 90.4595 20.1764 90.0843C19.9686 90.0208 19.7608 89.9227 19.5703 89.813C19.2817 89.6399 19.1547 89.3224 19.2817 89.0049C19.4144 88.6759 19.5934 88.3642 19.7665 88.0582C20.6151 86.5401 21.4694 85.0278 22.3179 83.5096C24.3151 79.9481 25.6658 76.1268 26.7222 72.2017C27.3687 69.7946 27.894 67.3529 28.4712 64.9285C28.4712 64.7611 28.4827 64.588 28.5347 64.2128ZM21.6887 31.2759C21.4982 31.5991 21.3308 31.8474 21.1923 32.1129C20.3957 33.6541 19.6107 35.2068 18.8083 36.7423C18.4331 37.4581 17.9771 38.1161 17.3537 38.6414C16.7303 39.1724 16.0088 39.3629 15.2353 39.057C14.7908 38.878 14.3579 38.6241 13.9711 38.3412C13.6941 38.1392 13.492 37.8275 13.2554 37.562C12.782 37.891 12.7705 38.3701 12.6262 38.7684C12.0374 40.3615 11.3389 41.9027 10.4442 43.3401C10.0921 43.9 9.66497 44.4252 9.19741 44.8986C8.6779 45.4354 8.01986 45.6778 7.24637 45.5047C6.99816 45.4469 6.7384 45.4469 6.50751 45.4181C6.44978 45.5855 6.38629 45.6778 6.40361 45.7413C6.5306 46.1165 6.66336 46.4975 6.82499 46.8612C8.35465 50.2957 10.7271 53.1184 13.4516 55.6409C15.2583 57.3091 17.3306 58.6136 19.5703 59.67C23.6571 61.5979 27.9575 62.331 32.4426 61.9616C33.903 61.8403 35.3633 61.6095 36.7891 61.2862C37.9032 61.0322 39.0172 60.6628 40.0447 60.1721C43.6524 58.452 46.7002 56.0449 48.8244 52.5989C49.3843 51.6926 49.8692 50.7344 50.3252 49.7704C52.132 45.9318 53.2691 41.9489 52.9689 37.637C52.8131 35.3916 52.3744 33.2269 51.572 31.1374C51.4912 30.9296 51.3354 30.7506 51.1737 30.4966C50.6196 32.2341 49.7653 32.9152 48.1779 32.9614C47.9124 32.9672 47.6411 32.9441 47.3813 32.9152C46.2846 32.794 45.3091 32.3438 44.4663 31.6742C43.6697 31.0392 42.954 30.2946 42.1978 29.6077C42.0535 29.4749 41.9496 29.2094 41.6205 29.3595C41.5282 29.6712 41.4416 30.0118 41.3204 30.3408C40.974 31.247 40.1717 32.1591 38.7344 32.0321C38.2957 31.9917 37.8512 31.9282 37.4241 31.8127C36.1484 31.4664 35.0747 30.7622 34.1108 29.879C33.8279 29.6192 33.5335 29.371 33.1583 29.0362C33.014 29.5327 32.9101 29.9136 32.7947 30.2888C32.1655 32.3149 30.8609 33.7753 28.9792 34.7104C27.4957 35.4493 26.0295 35.3512 24.6672 34.4276C24.0496 34.0062 23.5128 33.4578 22.9933 32.9095C22.5372 32.4246 22.162 31.8762 21.6887 31.2759ZM11.6564 25.2265C10.5654 26.8081 9.45716 28.2627 8.51628 29.8213C6.9058 32.4765 5.84369 35.3512 5.5089 38.4624C5.34727 39.9806 5.4454 41.4929 5.61857 42.9995C5.65898 43.3516 5.73402 43.7095 6.06304 43.9346C7.06742 44.61 8.12953 44.4657 8.89725 43.5421C9.04156 43.3689 9.18587 43.1957 9.29554 43.0053C10.5597 40.8406 11.668 38.6125 12.1413 36.1246C12.1817 35.9053 12.2106 35.6802 12.2741 35.4724C12.4126 35.0452 12.961 34.924 13.2265 35.2761C13.4689 35.5936 13.6479 35.9573 13.8499 36.2978C14.1732 36.8346 14.5022 37.3657 15.0448 37.712C15.7201 38.1392 16.3147 38.0988 16.8342 37.4985C17.2383 37.0309 17.6019 36.5114 17.8905 35.963C18.8603 34.1101 19.7896 32.2283 20.7363 30.3639C20.8748 30.0868 21.0018 29.7982 21.175 29.5442C21.3828 29.244 21.8965 29.2325 22.1101 29.5211C22.289 29.7693 22.416 30.0579 22.5719 30.3292C23.2472 31.4952 24.0323 32.5747 25.1463 33.3597C26.2315 34.1274 27.3975 34.1967 28.5578 33.5964C30.3241 32.6843 31.4555 31.2528 31.8018 29.2729C31.9115 28.661 31.9288 28.0376 31.9865 27.4142C32.0096 27.1487 31.9981 26.8774 32.05 26.6176C32.1078 26.3175 32.5811 26.1674 32.812 26.3636C32.9447 26.4791 33.0486 26.6234 33.1468 26.7677C33.4238 27.1718 33.6547 27.6105 33.9607 27.9914C35.1094 29.423 36.5005 30.4909 38.3534 30.8257C39.4906 31.0335 40.1544 30.5659 40.3449 29.423C40.4488 28.8111 40.4603 28.1819 40.5296 27.5585C40.5527 27.3392 40.6104 27.1198 40.6854 26.9178C40.772 26.6984 41.2049 26.5772 41.3839 26.7331C41.5513 26.8716 41.7071 27.0448 41.8168 27.2295C42.4518 28.2685 43.283 29.1459 44.1835 29.9425C44.8126 30.4966 45.5342 30.9584 46.2615 31.3856C46.8849 31.755 47.6122 31.8358 48.3338 31.7723C49.1996 31.6973 49.5921 31.3625 49.7768 30.5024C49.8981 29.9367 49.9673 29.3595 50.0885 28.7996C50.1694 28.4244 50.0943 28.1069 49.9038 27.7836C47.9759 24.5281 45.3726 21.9305 42.0708 20.1007C38.2091 17.9534 34.0646 16.9028 29.6083 17.2607C28.6732 17.3357 27.7497 17.4454 26.8376 17.6821C25.4176 18.0515 23.9976 18.4152 22.4911 18.8019C22.2717 19.5177 21.6252 19.916 20.8979 20.1815C20.2745 20.4124 19.628 20.6202 18.9757 20.7068C18.5543 20.7645 18.2022 20.9088 17.879 21.1397C17.5211 21.3995 17.1921 21.7054 16.8688 22.0113C16.0896 22.7444 15.3334 23.5006 14.5426 24.2163C13.7864 24.9148 12.8917 25.3824 11.6564 25.2265ZM30.0239 63.2834C29.897 63.7452 29.7757 64.08 29.718 64.4263C29.2389 67.2432 28.5231 70.0024 27.7554 72.75C26.878 75.8844 25.8563 78.9726 24.419 81.9049C24.3209 82.107 24.217 82.3032 24.1304 82.511C23.9688 82.9209 24.0438 83.1749 24.4652 83.3884C25.0193 83.6655 25.5793 83.983 26.1796 84.1273C28.298 84.6353 30.428 85.1259 32.5695 85.5357C34.8612 85.9687 37.1874 85.7955 39.5079 85.7724C41.9611 85.7435 44.27 85.149 46.5097 84.2254C47.2832 83.9079 48.0798 83.5558 48.4492 82.6553C46.3827 76.6233 43.6524 70.874 40.5815 65.2806C39.987 64.1955 39.4848 63.0525 38.6998 62.0077C35.9002 62.8909 33.0256 63.1738 30.0239 63.2834ZM20.7016 88.976C20.9383 89.0799 21.1692 89.2127 21.4174 89.282C22.9644 89.6976 24.4998 90.1536 26.0584 90.4999C29.3659 91.233 32.7081 91.7525 36.108 91.7063C37.7993 91.6833 39.4906 91.6659 41.1819 91.614C43.3696 91.5447 45.5169 91.1811 47.618 90.5634C48.126 90.4133 48.6224 90.194 49.0957 89.9573C49.5171 89.7495 49.7538 89.3801 49.7884 88.8895C49.8923 87.3136 49.6729 85.8013 48.9976 84.2774C48.7494 84.387 48.5416 84.4505 48.3626 84.5544C46.4982 85.6454 44.4778 86.3323 42.3594 86.6671C40.114 87.0192 37.8339 87.0192 35.5654 86.9788C32.6965 86.9269 29.92 86.2977 27.1493 85.6166C26.018 85.3395 24.927 84.9758 23.8995 84.4332C23.7148 84.3351 23.5128 84.2831 23.3396 84.2196C22.4449 85.53 21.0711 88.0121 20.7016 88.976ZM20.1995 14.8767C20.5862 11.9213 20.592 9.02936 20.4765 6.13166C20.4419 5.42166 20.3611 4.70589 20.2283 4.00744C20.1013 3.32054 20.0436 2.599 19.5645 1.89477C19.426 2.18339 19.2874 2.39696 19.2124 2.63363C19.0623 3.09542 18.9815 3.58606 18.7968 4.0363C18.7333 4.19216 18.4562 4.31915 18.2657 4.34224C18.133 4.35955 17.9309 4.20947 17.8443 4.07671C17.7289 3.89777 17.6943 3.66688 17.625 3.45907C17.4461 2.9107 17.2844 2.35656 17.0766 1.81973C17.0131 1.65233 16.8284 1.53112 16.6841 1.36949C16.2454 1.86014 16.0549 2.35656 15.9683 2.88761C15.8125 3.85159 15.6855 4.82134 15.5585 5.79109C15.5239 6.05662 15.5643 6.33946 15.4777 6.5819C15.4142 6.76661 15.2353 6.99173 15.0679 7.03791C14.9005 7.08409 14.6176 6.98019 14.4906 6.84165C14.2886 6.61653 14.1789 6.3106 14.0288 6.0393C13.6594 5.38126 13.3188 4.70012 12.909 4.06517C12.6435 3.6611 12.2971 3.29745 11.9393 2.96842C11.5929 2.64517 11.1427 2.71444 10.9176 3.11273C10.6982 3.49371 10.502 3.90931 10.3981 4.33069C9.91895 6.37409 10.1902 8.32514 11.3274 10.103C12.8975 12.5563 15.1371 14.2937 17.5384 15.8061C18.4793 15.477 19.3509 15.1711 20.1995 14.8767ZM2.23599 68.0167C2.8594 68.3169 3.40777 68.2707 3.95614 68.0167C4.19858 67.9071 4.41216 67.7339 4.65459 67.6358C5.0067 67.4914 5.40499 67.8147 5.33573 68.1957C5.28955 68.4554 5.16256 68.6979 5.11638 68.9576C5.02402 69.4656 4.81045 69.9909 5.16833 70.4815C6.98084 70.47 8.16994 69.7022 8.82798 68.1149C9.46871 66.5679 9.78041 64.9747 9.37058 63.3007C9.29554 63.0006 9.34172 62.6773 9.29554 62.3714C9.157 61.4478 9.00692 60.53 8.83953 59.6122C8.79335 59.3525 8.68367 59.0985 8.56245 58.8676C8.36042 58.4635 7.93327 58.3596 7.54653 58.5963C7.22905 58.7926 6.98661 59.0696 6.95198 59.4391C6.91157 59.8316 6.95775 60.2299 6.99238 60.6224C7.01547 60.8821 7.12515 61.1361 7.1136 61.3901C7.10783 61.6614 6.98084 61.9096 6.69222 62.0135C6.40361 62.1174 6.14962 62.0077 5.988 61.7768C5.77442 61.4767 5.52621 61.2516 5.1741 61.1188C4.4237 60.836 3.69639 60.4896 2.94021 60.2299C2.45534 60.0682 1.95315 59.8316 1.42786 59.9932C1.19697 61.367 1.37014 61.7826 2.37452 62.3772C2.48997 62.4464 2.61696 62.4868 2.73241 62.5561C3.07875 62.7697 3.22306 63.0352 3.13647 63.3123C3.03834 63.6124 2.7959 63.699 2.51306 63.7221C2.29371 63.7394 2.06859 63.7048 1.85502 63.7452C1.57217 63.8029 1.40477 64.0223 1.35282 64.3051C1.30087 64.6168 1.4625 64.8304 1.7338 64.9285C2.06282 65.0498 2.40916 65.1306 2.7555 65.2229C3.05566 65.3037 3.36736 65.3384 3.65598 65.4423C4.01386 65.575 4.11199 66.0657 3.82915 66.3254C3.63289 66.5044 3.39623 66.6314 3.18265 66.793C2.80168 67.0932 2.37452 67.3529 2.23599 68.0167ZM22.1043 17.4858C23.8245 17.405 25.435 16.9201 27.0339 16.366C27.588 16.1755 27.7554 15.7599 27.7901 15.2346C27.9171 13.4106 27.9171 11.5807 27.7208 9.76245C27.6227 8.8331 27.3687 7.92108 26.7914 7.14759C26.295 6.48377 25.6947 6.35101 25.0771 6.88783C24.5806 7.32076 24.1304 7.83449 23.7725 8.38864C22.8663 9.77977 22.2371 11.2979 21.8273 12.9084C21.5964 13.8204 21.4116 14.7266 21.3943 15.6733C21.3828 16.3256 21.5098 16.9028 22.1043 17.4858ZM17.3306 19.9737C17.1286 19.3965 16.9381 18.8539 16.7592 18.3113C16.5802 17.7687 16.407 17.2203 16.2512 16.7412C14.9466 16.2852 10.6174 15.4424 9.34749 15.402C8.91457 15.3905 8.45278 15.2866 8.0314 15.5925C7.75433 16.2621 8.01986 16.8913 8.26229 17.5031C9.04156 19.4542 9.99399 21.3129 11.1254 23.085C11.2235 23.2351 11.3159 23.3909 11.4313 23.5237C11.9162 24.0894 12.4588 24.199 13.0937 23.8296C13.4343 23.6276 13.7633 23.3851 14.0577 23.1138C15.1544 22.0748 16.2396 21.0243 17.3306 19.9737ZM9.70538 53.5513C9.35904 53.0895 9.13391 52.772 8.89148 52.4661C7.62157 50.8441 6.52483 49.1239 5.69938 47.2306C5.46849 46.6995 5.278 46.1512 5.05288 45.6201C4.70654 44.8178 4.05427 44.5061 3.21151 44.76C2.1494 45.0775 1.42209 45.7644 1.23738 46.89C0.867948 49.1181 1.68762 50.9307 3.35582 52.3449C4.9028 53.6552 6.8019 53.9207 8.75871 53.8457C9.0127 53.8341 9.26091 53.6956 9.70538 53.5513ZM60.0343 47.2768C59.913 47.4673 59.7456 47.6693 59.6533 47.906C59.2839 48.8295 59.203 49.8051 59.1684 50.7806C59.1569 51.1385 59.1857 51.5425 58.7817 51.6926C58.2852 51.8773 58.0948 51.4502 57.835 51.15C57.4944 50.7459 57.1423 50.3419 56.7498 49.9955C56.6344 49.8916 56.3227 49.9263 56.1495 50.0013C56.034 50.0533 55.9475 50.2899 55.9359 50.4516C55.9128 50.9653 56.1379 51.4155 56.4439 51.7965C57.1481 52.6566 57.8927 53.4762 58.6143 54.319C59.3589 55.1791 60.3171 55.3638 61.3965 55.2484C61.9218 55.1906 62.4529 55.1906 62.9839 55.1849C63.971 55.1733 64.935 55.0405 65.8412 54.6249C66.0202 54.5441 66.1471 54.3652 66.3549 54.1862C66.1125 53.9784 65.9624 53.811 65.7835 53.7014C65.5584 53.5686 65.2928 53.4936 65.0562 53.3723C64.5078 53.0895 64.4963 52.6046 65.0273 52.2467C65.2063 52.1198 65.4256 52.0447 65.593 51.9062C65.7546 51.7734 65.9393 51.6176 65.8181 51.2654C65.6565 51.2308 65.4545 51.1673 65.2467 51.1558C64.6983 51.1327 64.3866 51.5425 63.9941 51.8311C63.8613 51.9293 63.5438 51.935 63.3995 51.8427C63.2552 51.7446 63.1513 51.479 63.1571 51.2885C63.1629 51.0807 63.3303 50.8845 63.3822 50.6709C63.4919 50.2437 63.6073 49.8166 63.6477 49.3779C63.665 49.1932 63.5323 48.9392 63.388 48.818C63.1398 48.616 62.8512 48.7833 62.678 48.9738C62.4125 49.2625 62.1931 49.603 61.9911 49.9378C61.7833 50.2784 61.6505 50.694 61.1368 50.6305C60.7904 50.5901 60.6865 50.2726 60.6981 49.5222C60.7038 48.9912 60.6981 48.4543 60.6519 47.929C60.623 47.6289 60.5018 47.323 60.0343 47.2768ZM54.2331 40.8291C54.6429 40.5636 54.8449 40.4712 55.0008 40.3269C55.2605 40.0845 55.5376 39.8478 55.7339 39.5534C57.2116 37.3484 58.0428 34.9471 57.7888 32.2514C57.6791 31.0681 57.0788 30.1734 56.161 29.4518C55.4222 28.8688 54.3601 28.9727 53.8001 29.4403C53.119 30.006 52.6399 30.7218 53.0151 31.6511C53.0671 31.7723 53.1017 31.9051 53.1421 32.0321C53.8694 34.393 54.1984 36.8058 54.1869 39.2763C54.1927 39.715 54.2158 40.1537 54.2331 40.8291ZM64.8137 90.4249C64.6002 90.4364 64.3462 90.3787 64.1846 90.4768C63.6939 90.7655 63.1744 91.0541 62.7703 91.4524C61.4427 92.7742 60.7096 94.4309 60.2132 96.2145C60.0747 96.7225 60.2363 97.1496 60.5769 97.5075C60.7096 97.4787 60.802 97.4729 60.877 97.4325C62.8916 96.2492 64.1499 94.4713 64.9003 92.3067C65.1024 91.7121 65.1254 91.0772 64.8137 90.4249ZM26.9184 107.078C25.9487 107.297 25.6139 107.863 25.6428 108.746C25.6947 110.276 26.1911 111.609 27.2013 112.758C27.4957 113.099 27.8478 113.364 28.3038 113.468C28.679 113.555 29.0196 113.341 29.0888 112.96C29.187 112.417 29.0946 111.898 28.8868 111.396C28.4943 110.455 28.1075 109.508 27.6919 108.579C27.4553 108.059 27.1667 107.563 26.9184 107.078ZM21.1634 18.6634C20.6035 17.861 20.4765 16.949 19.8127 16.2794C18.9815 16.4757 18.26 16.77 17.7751 17.5724C17.9194 18.0111 18.0348 18.4902 18.2311 18.9289C18.4504 19.4311 18.7448 19.5639 19.3163 19.46C19.9224 19.356 20.5112 19.1598 21.1634 18.6634Z" fill="#1D262D"/>
<path fill-rule="evenodd" clip-rule="evenodd" d="M35.5712 49.1762C35.5482 48.7317 35.4847 48.2872 35.5193 47.8428C35.5308 47.6696 35.7386 47.4676 35.9118 47.3694C36.1023 47.254 36.4833 47.4849 36.5352 47.7389C36.7892 48.9626 37.0143 50.1979 36.6564 51.4389C36.1081 53.3322 34.0531 54.4925 32.1425 54.0249C30.1049 53.5227 28.9388 52.1027 28.8696 50.0189C28.8638 49.84 28.8754 49.661 28.91 49.4879C28.9677 49.1646 29.2852 48.9222 29.5796 48.9684C29.8971 49.0203 30.0067 49.2512 30.0529 49.5341C30.1395 50.0536 30.1568 50.6019 30.3184 51.0984C30.7456 52.4087 32.2695 53.2226 33.6202 52.9282C34.4976 52.7377 35.4962 51.6871 35.5886 50.7867C35.6405 50.2614 35.6001 49.7188 35.6001 49.1877C35.5828 49.1762 35.577 49.1762 35.5712 49.1762Z" fill="#1D262D"/>
<path fill-rule="evenodd" clip-rule="evenodd" d="M23.7034 46.7112C23.6976 47.7617 22.7856 48.6391 21.7177 48.6218C20.7595 48.6045 19.9687 47.7964 19.9629 46.8208C19.9571 45.7876 20.7537 45.0545 21.8793 45.0661C23.0396 45.0834 23.7149 45.6895 23.7034 46.7112Z" fill="#1D262D"/>
<path fill-rule="evenodd" clip-rule="evenodd" d="M42.9543 40.9443C42.8908 42.2489 41.39 43.1725 40.224 42.6241C39.5371 42.3008 39.1503 41.4581 39.3524 40.7135C39.6352 39.6629 40.9917 38.9529 42.0134 39.3281C42.608 39.5417 42.9889 40.1997 42.9543 40.9443Z" fill="#1D262D"/>
</svg>
