<svg width="128" height="216" viewBox="0 0 128 216" fill="none" xmlns="http://www.w3.org/2000/svg">
<g opacity="0.2">
<path d="M44.2866 24.6081C37.6811 27.614 33.2367 34.2286 30.0218 40.5074C26.6083 47.1601 25.8218 54.4079 28.4411 61.4726C33.6949 75.6325 49.8382 83.9636 64.1945 85.497C78.9633 87.0763 89.9062 76.4259 92.5255 62.3805C95.3281 47.3585 87.8214 32.4128 75.168 24.2648C68.4632 19.9466 60.4298 17.2154 52.488 19.2829C44.7982 21.2894 38.4829 26.6985 32.6487 31.8253C31.7858 32.5806 32.8549 34.0302 33.7179 33.2673C38.1546 29.3687 42.7517 25.3786 48.1277 22.8152C54.7255 19.6643 61.4455 19.733 68.1731 22.5787C80.651 27.8658 90.0971 39.5767 91.2043 53.2406C92.2963 66.7444 84.5149 82.6437 69.6316 83.8262C56.8254 84.8486 40.9189 77.6771 33.5193 67.225C28.9909 60.8317 27.3414 52.9812 29.8309 45.4741C32.2211 38.2721 37.8186 29.5061 44.9509 26.2636C46.0047 25.7983 45.3404 24.1351 44.2866 24.6081Z" fill="#485A83"/>
<path d="M42.4081 48.1062C42.8282 48.686 43.2481 49.2734 43.6681 49.8532C44.0957 49.4413 44.5234 49.0293 44.9434 48.6173C44.386 48.2664 44.0957 47.3432 44.7067 46.8702C45.2336 46.4659 46.066 46.8168 46.2875 47.3814C46.2875 47.1525 46.2951 46.9236 46.2951 46.6947C46.0202 47.3127 44.9434 47.2288 44.7219 46.6184C44.2561 46.9618 43.798 47.3127 43.3321 47.656C43.8209 47.9459 44.1187 48.2511 44.47 48.6631C44.5234 48.7241 44.4089 48.9835 44.5463 48.6936C44.5769 48.625 44.5998 48.5944 44.638 48.541C44.638 48.541 44.5463 48.5181 44.5387 48.5258C44.554 48.5258 44.5693 48.5334 44.5845 48.5487C44.7831 48.7012 44.8136 48.953 44.6838 49.2887C45.3024 48.3274 43.8972 47.1982 43.2786 48.1748C42.3393 49.6549 44.1874 50.8298 45.5009 50.1279C46.234 49.7388 46.4326 48.8691 46.1806 48.1138C45.9056 47.2746 45.1802 46.7024 44.4547 46.2599C43.7216 45.8174 42.7289 46.3896 43.0649 47.2975C43.5765 48.6707 45.2183 49.22 46.5471 48.7394C47.158 48.5181 47.7307 48.0375 47.9598 47.4119C48.2271 46.6642 47.5475 45.8555 46.9671 45.4664C45.7606 44.6425 43.9583 44.7569 43.0877 46.0234C42.2248 47.2746 42.5303 49.2047 43.8362 50.0363C44.6609 50.5551 45.7453 49.6778 45.1114 48.8004C44.6914 48.2206 44.2714 47.6331 43.8514 47.0533C43.1717 46.0997 41.7361 47.1754 42.4081 48.1062Z" fill="#485A83"/>
<path d="M71.9912 51.4629C71.8385 51.2493 71.7698 51.2036 71.7927 51.3104C71.8003 51.3409 71.8003 51.3638 71.7927 51.3943C71.785 51.3943 71.7774 51.5088 71.7621 51.5088C71.6857 51.5011 71.4719 51.3257 71.3726 51.0739C71.0366 50.1736 72.0905 49.2505 72.648 48.6783C72.373 48.7851 72.0981 48.8995 71.8232 49.0063C72.541 49.1055 73.0603 50.0592 72.3883 50.5703C72.2355 50.6924 72.037 50.7534 71.8461 50.7687C71.5712 50.7916 71.449 50.6085 71.4413 50.8526C71.4261 51.1883 71.5865 50.7992 71.6705 50.8755C72.541 51.6385 73.6559 50.2346 72.7854 49.4717C71.3879 48.2434 68.8831 50.0973 69.9064 51.7529C70.4257 52.5921 71.7468 52.6913 72.6021 52.4319C73.5719 52.142 74.3509 51.3257 74.4807 50.311C74.6029 49.3878 74.1676 48.4265 73.465 47.8315C73.129 47.5415 72.6938 47.3279 72.2508 47.2516C71.5407 47.1372 71.1894 47.5721 70.7465 48.068C69.9905 48.9148 69.3413 50.0134 69.5475 51.1883C69.7231 52.1877 70.4639 53.149 71.5101 53.294C73.6713 53.5915 74.4348 50.1126 72.2126 49.6777C71.0977 49.4641 70.861 51.2417 71.9912 51.4629Z" fill="#485A83"/>
<path d="M44.1873 60.2519C50.1514 68.7204 62.5529 70.7269 70.8995 64.6159C71.8311 63.9292 70.762 62.4949 69.8304 63.1739C62.2474 68.7204 51.0296 66.8512 45.6306 59.1762C44.9663 58.2378 43.523 59.3135 44.1873 60.2519Z" fill="#485A83"/>
<path d="M44.7528 79.4622C42.3015 97.8029 39.8426 116.144 37.3913 134.477C36.7957 138.947 36.1924 143.41 35.5968 147.881C35.0546 151.94 33.6114 156.838 33.9092 160.927C34.2605 165.703 42.9582 166.313 46.6313 166.825C58.8418 168.534 71.5717 165.886 82.3008 159.897C87.7913 156.838 92.7701 152.894 96.9243 148.171C98.8181 146.02 100.796 143.639 102.117 141.084C103.446 138.505 102.109 136.781 100.849 134.37C92.0523 117.502 83.4767 100.534 76.7186 82.7199C76.3062 81.6366 74.6415 82.3079 75.0539 83.3913C80.2542 97.101 86.5008 110.353 93.1673 123.407C94.748 126.504 96.3517 129.602 97.963 132.684C98.7571 134.21 99.8491 135.789 100.422 137.406C101.216 139.619 100.193 140.9 98.9327 142.709C95.5269 147.599 91.2123 151.81 86.348 155.243C76.3902 162.262 64.0574 165.97 51.8698 165.489C49.1971 165.383 46.5244 165.062 43.8975 164.536C42.3321 164.223 40.7819 163.834 39.2546 163.369C36.5514 162.537 35.6808 160.767 36.055 157.99C37.124 149.994 38.1932 141.999 39.2623 134.011C41.683 115.907 44.1037 97.8029 46.532 79.6987C46.6847 78.5543 44.9055 78.3102 44.7528 79.4622Z" fill="#485A83"/>
<path d="M62.7744 166.787C65.3936 174.881 68.0129 182.983 70.6322 191.078C70.9224 191.971 71.7013 193.474 71.6937 194.359C71.686 196.09 70.594 197.83 69.4715 198.982C68.3718 200.111 67.2111 201.133 66.1954 202.354C64.2558 204.696 62.1787 207.71 61.4304 210.7C60.514 214.317 63.37 217.231 66.6384 214.591C69.0057 212.676 70.6474 209.281 72.0143 206.611C73.8089 203.109 75.0766 199.424 76.0082 195.61C76.2831 194.488 74.5038 194.259 74.2289 195.373C73.3889 198.814 72.2358 202.133 70.6703 205.314C69.7081 207.26 68.6162 209.159 67.3638 210.929C67.1042 211.296 66.8369 211.662 66.5772 212.028C65.8289 213.363 64.6377 213.294 63.0188 211.83C62.7515 210.357 65.0194 207.092 65.7067 206.039C66.4016 204.971 67.1805 203.941 68.0129 202.98C69.5096 201.255 71.9915 199.913 73.198 197.96C74.0915 196.518 73.7936 195.251 73.366 193.687C72.5183 190.59 71.3805 187.546 70.3954 184.494C68.41 178.368 66.4322 172.242 64.4468 166.108C64.0802 165.017 62.4154 165.688 62.7744 166.787Z" fill="#485A83"/>
<path d="M84.1635 156.129C86.821 162.4 89.8985 168.48 93.4647 174.286C95.3356 177.338 97.3286 180.306 99.4439 183.189C101.093 185.44 101.414 186.31 104.232 186.165C107.172 186.012 110.517 184.395 113.342 185.791C113.724 186.05 114.106 186.31 114.488 186.569C116.068 187.683 115.916 188.637 114.022 189.43C112.059 191.238 112.907 190.735 111.12 190.666C109.608 190.613 107.92 189.873 106.469 189.484C104.469 188.95 102.46 188.438 100.467 187.889C99.8257 187.706 99.1919 187.523 98.5504 187.34C98.7795 186.501 99.001 185.669 99.2301 184.83C99.3828 184.547 99.7876 184.395 99.9326 184.105C100.628 182.755 101.17 181.778 100.131 180.458C99.4134 179.55 97.9701 180.618 98.6879 181.526C99.841 182.991 94.7094 185.387 96.5116 187.973C97.0843 188.789 97.9854 188.995 98.8941 189.308C101.49 190.185 104.247 190.727 106.897 191.437C109.478 192.123 112.823 193.451 115.419 192.085C117.351 191.07 117.977 188.934 117.061 187.004C116.137 185.059 113.976 183.754 111.884 183.487C110.28 183.281 108.669 183.655 107.103 183.922C103.988 184.456 102.437 184.265 100.505 181.603C94.6101 173.477 89.7381 164.689 85.8283 155.442C85.3777 154.397 83.713 155.06 84.1635 156.129Z" fill="#485A83"/>
<path d="M34.2373 31.2684C33.405 35.0525 32.5726 38.8443 31.7402 42.6284C32.3359 42.6284 32.9239 42.636 33.5196 42.636C33.237 37.3947 34.5581 32.1992 37.5363 27.8429C38.7123 26.1263 40.7206 23.2349 42.0876 26.3781C43.2865 29.1323 42.9352 32.2068 41.3086 34.694C41.8203 34.7702 42.3319 34.8466 42.8435 34.9152C41.3545 32.1916 41.7286 29.3001 43.8974 27.0571C43.3628 26.9121 42.8359 26.7596 42.3014 26.6146C42.7443 32.5425 41.6294 38.1805 39.0177 43.5133C39.5904 43.6735 40.1632 43.8261 40.7359 43.9863C41.5606 39.3096 42.8894 34.8237 44.7526 30.4521C44.2028 30.4445 43.6453 30.4445 43.0955 30.4368C44.3326 32.7027 44.8825 35.1746 44.3021 37.7456C44.0425 38.9129 43.5766 39.9886 42.9046 40.9804C41.5682 40.7439 40.2319 40.5074 38.8955 40.2785C37.8799 39.1418 38.5596 35.8841 38.7657 34.4498C38.9643 33.0689 38.8421 30.1317 40.7206 30.3606C41.7133 29.9867 42.0646 30.3606 41.7821 31.4821C41.8508 32.39 41.8432 33.2978 41.744 34.1981C41.492 37.143 40.5221 39.7674 39.0636 42.3079C39.6363 42.3842 40.209 42.4682 40.7818 42.5445C40.2243 37.0972 42.2327 32.0695 46.4174 28.5295C45.9592 28.3998 45.5086 28.2701 45.0505 28.1481C46.5166 32.1534 46.3487 36.1969 44.577 40.065C45.1497 40.1412 45.7225 40.2252 46.2952 40.3015C45.417 34.9305 46.3792 29.7655 49.2352 25.1193C48.7235 25.043 48.2119 24.9667 47.7003 24.8981C48.861 28.6593 48.5785 32.3289 46.9443 35.9147C47.517 36.0749 48.0897 36.2274 48.6625 36.3877C48.8381 32.4739 49.4185 28.6592 50.4189 24.8751C49.9378 25.0659 49.4567 25.2642 48.9679 25.455C51.9767 27.6064 53.0228 31.1387 51.6024 34.5566C52.1141 34.4956 52.6334 34.4346 53.145 34.3735C50.5639 30.4292 50.0599 25.8135 51.717 21.3962C51.2054 21.4573 50.6861 21.5183 50.1744 21.5793C51.6483 23.7384 52.7097 26.0882 53.1679 28.6745C53.3436 29.651 53.4123 30.6352 53.4199 31.627C53.4504 32.2755 53.4276 32.9164 53.3512 33.5648C53.481 34.8618 53.0839 34.961 52.1599 33.8624C49.5406 32.6799 51.4269 29.3916 53.672 29.1094C55.0312 28.9415 56.673 29.5137 57.6962 30.3987C60.0864 32.4586 60.2545 35.9985 60.0407 38.89C60.453 38.6535 60.8654 38.417 61.2854 38.1882C56.7188 35.579 54.4737 30.5894 55.329 25.455C54.9166 25.6915 54.5043 25.928 54.0843 26.1568C57.0014 27.3317 59.0785 29.5518 59.9643 32.5883C60.6974 35.0983 60.8348 39.7369 57.0625 36.4334C53.6948 33.4886 56.6272 28.9873 60.4759 28.5906C64.8744 28.1404 67.6388 32.306 68.3108 36.113C68.6468 35.7773 68.9829 35.4416 69.3189 35.1136C63.8665 33.9386 60.0788 28.9949 60.369 23.418C59.9566 23.6545 59.5442 23.891 59.1242 24.1199C65.0195 27.1639 69.3188 32.039 71.6708 38.2339C71.9916 37.8296 72.3047 37.4176 72.6254 37.0133C70.2581 36.5479 68.0665 35.6782 66.1345 34.1981C65.0196 33.3512 61.7054 30.4063 61.7436 28.6593C62.6981 27.4004 63.6603 26.134 64.6148 24.8751C65.2181 25.0125 65.8214 25.1498 66.417 25.2795C67.4403 25.5999 68.3414 26.0577 69.2577 26.5994C71.6403 28.0108 73.4196 29.9943 74.7101 32.451C75.1072 32.0619 75.4967 31.6804 75.8938 31.2913C72.7629 30.1241 70.3955 28.377 68.3795 25.7067C68.1733 26.1798 67.9749 26.6528 67.7687 27.1334C71.6861 26.8359 75.0995 28.1633 77.7494 31.0777C78.177 30.6657 78.6047 30.2538 79.0247 29.8418C76.1763 27.6446 73.3355 25.455 70.4872 23.2578C70.1817 23.7689 69.8839 24.2724 69.5785 24.7836C71.8618 25.7449 74.145 26.7138 76.4283 27.6751C77.3447 28.0641 78.1618 26.7672 77.3371 26.1492C68.7996 19.7788 54.8632 11.669 46.089 22.3956C45.585 23.0136 46.1424 23.9215 46.9061 23.8452C53.0228 23.2044 59.1395 22.5559 65.2563 21.915C66.2795 21.8082 66.2643 20.29 65.2639 20.1374C61.8199 19.611 58.3759 19.0846 54.9319 18.5582C53.9392 18.4056 53.5115 19.8933 54.4584 20.2747C53.985 20.1985 53.5115 20.1298 53.0381 20.0535C51.969 19.6262 51.2589 21.2742 52.3356 21.7014C53.5803 22.1973 55.3596 22.6627 56.1538 21.1826C56.7265 20.1069 56.1996 19.0311 55.1687 18.6192C55.0083 19.1914 54.8556 19.7636 54.6952 20.3357C58.1392 20.8622 61.5832 21.3886 65.0272 21.915C65.0272 21.3199 65.0349 20.7325 65.0349 20.1374C58.9181 20.7782 52.8014 21.4267 46.6847 22.0676C46.9596 22.5482 47.2268 23.0365 47.5017 23.5172C55.5734 13.6526 68.5399 21.8235 76.2221 27.5606C76.5275 27.0495 76.8254 26.546 77.1309 26.0348C74.8476 25.0735 72.5643 24.1122 70.2811 23.1433C69.3571 22.7542 68.5552 24.0435 69.3723 24.6691C72.2207 26.8664 75.0614 29.0559 77.9098 31.2532C78.6811 31.8482 79.8952 30.7954 79.185 30.0172C76.0846 26.607 72.1443 25.0125 67.5395 25.3634C66.8599 25.4168 66.5392 26.2713 66.9287 26.7901C69.0974 29.6739 71.793 31.6957 75.1759 32.9545C75.8326 33.1986 76.749 32.5273 76.3596 31.7949C74.5421 28.3388 71.8007 25.5084 68.1276 24.0207C65.7908 23.0746 62.1712 22.2126 60.3613 24.6005C58.3148 27.3012 60.6592 31.0853 62.4613 33.2062C65.0348 36.235 68.5094 38.0432 72.3658 38.8061C73.0531 38.9434 73.5418 38.1805 73.3203 37.5855C70.8003 30.9557 66.1115 25.7449 59.8115 22.4948C59.3152 22.2431 58.5974 22.6398 58.5668 23.1967C58.2155 29.796 62.5835 35.5103 69.0515 36.9064C69.6013 37.0285 70.1589 36.4411 70.0596 35.907C68.9141 29.4756 61.4763 23.1357 55.5581 28.9873C51.4803 33.0155 55.161 40.4845 60.9036 39.0884C61.3389 38.9816 61.5603 38.7451 61.6825 38.3178C63.2403 32.6035 60.2315 26.729 54.7563 24.5242C54.2064 24.3029 53.6108 24.6463 53.5115 25.2261C52.5112 31.2227 55.2909 36.8454 60.537 39.8513C61.0334 40.1336 61.736 39.6759 61.7818 39.1494C62.1941 33.7632 59.5367 25.4397 52.3967 27.5606C47.2039 29.1017 48.5708 37.3337 53.985 36.6242C54.3973 36.5708 54.6875 36.2503 54.7639 35.8536C55.833 30.414 54.7028 25.104 51.5872 20.5341C51.213 19.9848 50.2738 20.0916 50.0447 20.7172C48.1585 25.7525 48.7464 30.9633 51.6864 35.4721C52.0606 36.052 52.9846 35.8918 53.229 35.2891C54.9472 31.1616 53.7024 26.6833 50.0599 24.0817C49.4566 23.6545 48.7847 23.9978 48.609 24.6615C47.6087 28.4533 47.0283 32.2602 46.8526 36.174C46.8068 37.1582 48.1279 37.6083 48.5708 36.647C50.4112 32.6112 50.6479 28.499 49.3421 24.2648C49.1588 23.6621 48.1508 23.479 47.8072 24.0436C44.6992 29.1018 43.5385 34.7092 44.493 40.5685C44.6381 41.4458 45.837 41.6289 46.2112 40.805C48.1814 36.4716 48.3341 31.978 46.6923 27.5149C46.5014 26.9961 45.7606 26.7596 45.3254 27.1334C40.6443 31.093 38.3533 36.7157 38.9795 42.8115C39.0788 43.7804 40.2853 43.7575 40.6977 43.048C42.3242 40.2175 43.3628 37.1582 43.5613 33.8853C43.6759 32.0314 43.9585 28.8347 42.1868 27.6522C37.773 24.7073 36.7497 35.3348 36.7421 37.3795C36.7345 40.3625 38.4831 46.1302 42.6221 43.7575C47.2268 41.1254 46.9061 33.7479 44.7373 29.796C44.3784 29.1475 43.4087 29.0025 43.0803 29.7807C41.156 34.3049 39.7814 38.9358 38.9337 43.7804C38.7505 44.8103 40.2166 45.1308 40.6519 44.2534C43.401 38.6459 44.5312 32.6493 44.0653 26.4239C44.0043 25.5847 42.9657 25.4702 42.4694 25.9814C39.8806 28.6516 39.369 32.3518 41.1559 35.6247C41.4461 36.1512 42.2785 36.4716 42.6909 35.846C45.585 31.421 44.9817 25.9738 41.2246 22.266C40.9726 22.0142 40.3999 21.9989 40.1326 22.2507C34.2908 27.6369 31.2898 34.961 31.7174 42.903C31.7785 43.9787 33.2905 43.8414 33.4966 42.9106C34.329 39.1265 35.1614 35.3348 35.9937 31.5507C36.261 30.3834 34.4817 30.1469 34.2373 31.2684Z" fill="#485A83"/>
<path d="M44.2408 92.1419C40.5906 95.186 36.9404 98.2224 33.2826 101.267C29.7012 104.25 26.0128 108.324 21.9808 110.666C18.8652 112.481 13.115 109.483 9.54117 109.498C6.85316 109.514 3.80625 109.964 1.80552 111.94C0.354608 113.382 -0.470112 115.739 0.285888 117.723C1.25571 120.271 4.11169 120.965 6.56296 121.003C12.7026 121.103 18.4986 117.898 22.3168 113.244C23.0499 112.352 21.6448 111.238 20.9117 112.131C17.3532 116.472 11.4503 119.836 5.63135 119.188C1.20989 118.692 0.751689 114.19 4.56224 112.192C5.73824 111.574 7.11282 111.413 8.41864 111.322C12.0994 111.047 14.963 112.527 18.4223 113.229C22.8285 114.122 26.3947 109.331 29.4187 106.813C34.7107 102.403 40.0103 97.9936 45.3023 93.5839C46.1957 92.8438 45.1266 91.4019 44.2408 92.1419Z" fill="#485A83"/>
<path d="M80.3457 95.2699C90.1585 94.5757 99.8796 95.5369 109.379 98.1003C109.776 98.2071 110.158 97.8791 110.326 97.5663C112.8 92.9125 119.009 86.9922 124.033 92.2182C126.905 95.2089 124.935 98.8862 121.277 99.7559C117.397 100.679 113.816 98.2377 110.754 96.2083C109.799 95.5751 108.677 96.9712 109.639 97.6121C114.244 100.671 122.315 104.738 126.37 98.4589C129.035 94.3315 125.469 89.6166 121.231 88.6325C118.627 88.0298 116.008 88.8995 113.885 90.4177C112.541 91.379 111.403 92.6073 110.433 93.9424C109.104 95.7734 109.463 96.1091 107.142 95.6819C98.0621 94.0111 89.3948 92.8438 80.1319 93.4999C78.9635 93.5762 79.1926 95.3538 80.3457 95.2699Z" fill="#485A83"/>
<path d="M34.3747 29.6662C18.5827 21.0375 -0.218118 33.1451 0.698248 50.9823C0.744067 51.8825 2.09571 52.0199 2.41644 51.2188C7.75427 37.9134 27.5859 43.1623 35.6881 32.2982C36.1845 31.6269 35.6424 30.8334 34.8711 30.8487C26.5092 31.0394 18.3841 32.7026 10.6179 35.8001C9.53354 36.2273 10.1979 37.8218 11.2899 37.4632C18.2314 35.1592 25.1728 32.8552 32.1143 30.5435C33.0765 30.2231 32.6717 28.6362 31.6637 28.8193C24.7375 30.1086 17.819 31.3904 10.8928 32.6797C11.1066 33.2137 11.3281 33.7555 11.5419 34.2895C12.7866 33.1146 14.0085 32.2448 15.5663 31.5048C16.6048 31.0089 15.9405 29.3457 14.8943 29.8416C13.2295 30.6274 11.8091 31.5735 10.4651 32.8476C9.88476 33.3969 10.1291 34.6404 11.1142 34.4573C18.0404 33.168 24.959 31.8863 31.8852 30.5969C31.7325 30.0247 31.5874 29.4525 31.4347 28.8727C24.4932 31.1767 17.5517 33.4808 10.6103 35.7924C10.8317 36.3494 11.0608 36.8987 11.2823 37.4556C18.9187 34.4192 26.8834 32.8094 35.0925 32.6187C34.8176 32.1381 34.5503 31.6498 34.2754 31.1691C26.0816 42.1629 6.38732 36.4638 0.759306 50.5016C1.33203 50.5779 1.90476 50.6619 2.47749 50.7382C1.62985 34.1369 19.1935 23.3873 33.6721 31.2988C34.6801 31.8634 35.3827 30.2155 34.3747 29.6662Z" fill="#485A83"/>
<path d="M72.0293 18.7641C71.7697 19.6643 71.51 20.5646 71.2428 21.4649C71.7926 21.7014 72.3424 21.9302 72.8922 22.1667C74.7937 15.598 77.2144 7.63303 83.3846 3.81078C91.2729 -1.07194 102.819 3.83367 109.997 7.96109C110.005 7.41178 110.005 6.85486 110.013 6.30555C107.034 7.26684 104.232 8.60958 101.719 10.494C98.8177 12.6683 96.7711 15.6132 94.1061 18.0164C88.6919 22.8991 81.1471 23.2577 74.221 23.5018C74.557 23.7612 74.893 24.0207 75.2214 24.28C75.1603 18.1385 78.1766 12.7293 83.3082 9.41061C82.8577 9.05204 82.3995 8.69349 81.9489 8.34255C80.605 12.8285 77.7642 16.3151 73.549 18.4132C73.9384 18.8099 74.3202 19.199 74.7097 19.5957C76.9319 13.2634 80.8417 8.10602 86.3551 4.26851C85.8817 3.98623 85.4082 3.7116 84.9271 3.42932C84.3926 7.76272 82.5675 11.44 79.4977 14.5299C80.0246 14.7587 80.5591 14.98 81.086 15.2089C81.5977 10.021 84.0566 5.67995 88.2566 2.58248C87.806 2.22391 87.3478 1.86531 86.8973 1.51437C83.8504 7.44229 80.2156 12.9506 75.9927 18.1003C76.4585 18.4742 76.9319 18.848 77.3977 19.2142C80.6584 14.8503 84.5148 11.1882 89.0431 8.16704C88.6308 7.73981 88.2184 7.31257 87.8061 6.88534C85.1715 11.0356 82.1934 14.8808 78.841 18.4818C79.3068 18.8556 79.7802 19.2295 80.2461 19.5957C84.5301 14.7816 89.4937 10.8449 95.1752 7.80086C94.7704 7.48043 94.3581 7.16763 93.9534 6.8472C92.7774 12.0809 89.929 16.3837 85.6221 19.5728C86.0344 20 86.4468 20.4273 86.8592 20.8469C89.7992 17.1467 93.0676 13.8356 96.7254 10.8526C96.313 10.4253 95.9005 9.99809 95.4882 9.57848C93.1133 13.3244 90.0512 16.2235 86.1872 18.3902C86.5995 18.8175 87.0119 19.2447 87.4242 19.672C89.9213 16.0099 92.8231 12.8133 96.2595 9.99808C96.8093 9.54796 96.6795 8.41884 95.8472 8.38832C94.9919 8.3578 94.129 8.32729 93.2737 8.29677C93.3424 8.86897 93.4187 9.44117 93.4875 10.021C98.5733 8.15183 103.751 6.64123 109.05 5.48158C109.814 5.31374 110.234 4.04729 109.287 3.765C102.307 1.70511 95.198 1.91109 88.3635 4.42874C87.5693 4.71866 87.7068 5.73333 88.3482 6.08428C93.5638 8.9605 99.4209 15.6743 90.6315 19.0845C84.9271 21.297 77.9018 21.4038 71.8996 21.03C70.7541 20.9613 70.5021 22.7389 71.6628 22.8076C76.4432 23.1051 81.2159 22.9296 85.9352 22.0904C89.4556 21.4648 93.7625 20.6256 95.9541 17.49C99.8257 11.9588 93.4035 6.83959 89.0508 4.43638C89.0432 4.98569 89.0431 5.54261 89.0355 6.09191C95.3966 3.74211 102.071 3.49033 108.585 5.4129C108.661 4.84071 108.745 4.26851 108.821 3.69632C103.377 4.88648 98.0464 6.42762 92.8155 8.35018C92.0136 8.64773 92.1206 10.0362 93.0293 10.0744C93.8846 10.1049 94.7475 10.1354 95.6027 10.1659C95.4653 9.6319 95.3279 9.09019 95.1905 8.55614C91.6472 11.4629 88.6079 14.7664 86.0268 18.5581C85.4312 19.4355 86.3857 20.3281 87.2639 19.8322C91.2654 17.5816 94.4421 14.568 96.901 10.6924C97.405 9.89893 96.5115 8.72399 95.6639 9.41825C91.8839 12.5005 88.4934 15.9184 85.4617 19.733C84.8279 20.5264 85.8741 21.6174 86.6988 21.0071C91.3952 17.5281 94.4573 12.7751 95.7326 7.07607C95.8701 6.45047 95.0835 5.81724 94.5108 6.12241C88.5544 9.31144 83.3388 13.416 78.8486 18.4665C78.0774 19.3363 79.4748 20.4196 80.2537 19.5804C83.6061 15.9794 86.5766 12.1343 89.2188 7.98395C89.7533 7.14473 88.8675 6.1148 87.9817 6.70988C83.3235 9.82261 79.3603 13.5914 76.0003 18.0851C75.313 19.0082 76.6723 20.0992 77.4054 19.1989C81.7275 13.9195 85.4388 8.25864 88.5544 2.20102C88.9744 1.38469 87.8748 0.629376 87.1951 1.13291C82.6362 4.48977 79.8719 9.31908 79.3144 14.9571C79.2228 15.8955 80.2995 16.2464 80.9028 15.6361C84.2093 12.3098 86.126 8.30439 86.7064 3.65818C86.8057 2.88 85.9122 2.37649 85.2784 2.81899C79.5435 6.80908 75.3665 12.2869 73.0527 18.8785C72.8159 19.5499 73.465 20.4349 74.2133 20.0611C78.841 17.757 82.1093 13.9958 83.5984 9.02915C83.8504 8.18231 83.0257 7.44993 82.2391 7.96109C76.5271 11.6536 73.3657 17.7265 73.442 24.5013C73.4497 25.0124 74.0072 25.2947 74.4425 25.2795C80.5668 25.0659 87.1494 24.7683 92.5101 21.4572C95.3126 19.733 97.2675 17.2001 99.5126 14.8579C102.636 11.6078 106.393 9.34962 110.677 7.96872C111.502 7.7017 111.295 6.65646 110.692 6.31314C103.224 2.01788 91.7159 -2.62833 83.3312 1.78137C76.1835 5.54259 73.3199 14.2323 71.2352 21.4649C70.9221 22.5558 72.5639 23.273 72.8846 22.1667C73.1442 21.2665 73.4039 20.3662 73.6712 19.466C73.9995 18.3674 72.3501 17.6578 72.0293 18.7641Z" fill="#485A83"/>
<path d="M8.39597 32.3213C5.90652 36.1054 3.40939 39.8895 0.919931 43.6736C0.293748 44.6272 1.55372 45.6648 2.325 44.7874C7.0901 39.3783 12.764 35.1517 19.3084 32.1229C20.1789 31.7185 19.904 30.1698 18.8578 30.3987C13.7261 31.5278 9.28946 33.8318 5.47128 37.4481C4.97491 37.9211 5.01303 39.0197 5.88358 39.0579C14.444 39.4317 22.8593 38.4399 31.0989 36.1054C32.2138 35.7926 31.5342 34.1294 30.4269 34.4422C22.4927 36.6928 14.36 37.6465 6.12035 37.2879C6.2578 37.8219 6.3952 38.3636 6.53265 38.8977C10.0988 35.5103 14.2607 33.2444 19.0716 32.1839C18.9189 31.6118 18.7738 31.0396 18.6211 30.4597C11.8018 33.6106 5.86828 38.0432 0.897 43.6736C1.36282 44.0474 1.83634 44.4212 2.30216 44.7874C4.79162 41.0033 7.28865 37.2192 9.77811 33.4351C10.4272 32.4815 9.02979 31.36 8.39597 32.3213Z" fill="#485A83"/>
<path d="M36.9633 141.358C47.7077 147.187 59.88 147.935 71.724 145.562C81.8193 143.54 93.0601 139.97 99.0394 131.005C99.9252 129.678 97.7871 128.442 96.9013 129.762C91.3267 138.108 80.4372 141.305 71.0597 143.181C59.8877 145.409 48.3415 144.73 38.2004 139.23C36.8182 138.467 35.5659 140.595 36.9633 141.358Z" fill="#485A83"/>
</g>
</svg>
