<svg width="161" height="188" viewBox="0 0 161 188" fill="none" xmlns="http://www.w3.org/2000/svg">
<g opacity="0.2">
<path d="M47.4553 76.4519C50.2808 67.1977 53.0986 57.951 55.9241 48.6968C58.4822 40.3046 60.2615 30.3942 66.5768 23.8712C79.4211 10.6116 99.879 14.8382 115.534 19.4158C130.661 23.8407 146.797 30.9588 150.63 47.8499C152.425 55.7691 152.15 64.7411 150.668 72.706C149.798 77.398 147.858 81.4338 143.674 83.9972C139.626 86.4767 134.647 87.7661 129.982 88.3611C109.707 90.9398 91.2651 80.2055 75.5801 68.6549C74.7477 68.0445 73.7321 69.2881 74.5721 69.8984C89.547 80.9379 106.652 91.0238 125.919 90.3066C133.662 90.0167 144.124 88.056 148.981 81.3423C153.616 74.9414 153.448 65.1149 153.311 57.5543C153.15 49.0553 151.172 40.5411 145.537 33.9418C140.344 27.8537 133.09 23.9551 125.72 21.1247C109.715 14.9679 89.1117 8.94845 72.8691 17.3254C63.7284 22.0402 59.9255 30.1501 57.0313 39.5951C53.3353 51.6569 49.6699 63.7264 45.9891 75.7958C45.699 76.7724 47.1575 77.4437 47.4553 76.4519Z" fill="#485A83"/>
<path d="M92.869 82.0289C94.7857 84.6305 96.6948 87.232 98.6115 89.8336C99.5126 91.0543 100.444 92.893 101.956 93.4346C104.766 94.4417 106.66 90.711 108.692 89.5361C109.585 89.0173 108.63 87.728 107.745 88.2391C106.989 88.674 106.378 89.2233 105.744 89.8184C103.942 91.5197 103.354 92.7938 100.986 90.3448C98.4054 87.6822 96.3664 84.0659 94.1672 81.0753C93.5486 80.2437 92.2504 81.1897 92.869 82.0289Z" fill="#485A83"/>
<path d="M110.83 87.3846C111.318 89.5895 111.99 91.7333 112.968 93.7779C113.693 95.3037 114.61 97.684 116.282 98.3706C117.534 98.8818 118.619 98.3172 119.497 97.3941C121.414 95.3724 122.903 92.7174 124.522 90.4515C125.117 89.6123 123.873 88.5977 123.277 89.4369C122.361 90.7186 121.452 92.0079 120.535 93.2896C119.573 94.64 118.275 97.7451 115.946 95.8759C115.007 95.1206 114.426 93.1752 113.961 92.069C113.296 90.4897 112.8 88.8723 112.426 87.2015C112.204 86.2021 110.608 86.3776 110.83 87.3846Z" fill="#485A83"/>
<path d="M123.926 91.0848C125.553 94.7316 128.439 99.7593 133.281 98.5004C137.916 97.295 137.206 91.1916 140.421 88.5595C141.215 87.9034 140.276 86.6064 139.474 87.2626C137.343 89.0097 136.87 91.4587 135.755 93.8619C134.579 96.4024 132.639 97.9359 129.722 96.3948C127.469 95.2046 126.408 92.7022 125.423 90.4898C125.003 89.559 123.506 90.1388 123.926 91.0848Z" fill="#485A83"/>
<path d="M44.5917 75.3762C45.6149 75.5364 45.8593 73.9495 44.836 73.7893C43.8128 73.6291 43.5684 75.216 44.5917 75.3762Z" fill="#485A83"/>
<path d="M43.8665 74.4607C42.5073 88.9867 39.7505 104.634 33.252 117.833C30.7931 122.83 23.1949 134.678 16.3909 128.781C9.96873 123.211 15.4898 114.018 16.5284 107.449C17.0782 103.963 15.7113 99.5456 11.3585 100.301C6.38727 101.171 3.85964 107.205 2.39346 111.34C-1.34836 121.876 -0.821453 134.037 4.81418 143.826C10.9996 154.568 22.8055 161.464 35.2222 161.312C36.2531 161.297 36.0622 159.702 35.0389 159.717C22.8207 159.87 11.1218 152.614 5.52436 141.789C-0.0119985 131.085 0.247639 116.917 6.33382 106.45C7.18909 104.978 8.35746 103.574 9.80837 102.658C11.3127 101.705 13.512 101.064 14.8025 103.612C15.2149 104.421 15.1233 105.977 15.024 106.755C14.604 110.234 13.092 113.507 12.336 116.917C11.3891 121.182 11.5876 126.088 14.7796 129.437C22.5993 137.631 31.9615 124.241 34.9473 118.008C41.2931 104.756 44.0956 89.2156 45.4549 74.7048C45.5466 73.6825 43.9582 73.4307 43.8665 74.4607Z" fill="#485A83"/>
<path d="M126.209 93.5566C121.986 105.512 117.756 117.459 113.533 129.414C109.631 140.454 107.111 153.904 95.5415 159.389C85.3698 164.211 72.6553 165.104 61.5673 164.699C49.708 164.272 38.0549 161.693 27.0891 157.169C26.1345 156.773 25.4778 158.237 26.4324 158.634C44.164 165.958 63.8353 168.216 82.7429 164.776C90.1884 163.425 98.2066 161.32 103.605 155.666C106.706 152.424 108.5 148.258 110.028 144.1C111.815 139.241 113.487 134.343 115.213 129.467C119.367 117.718 123.521 105.962 127.675 94.2128C128.011 93.2439 126.553 92.5801 126.209 93.5566Z" fill="#485A83"/>
<path d="M91.876 36.0857C91.624 36.2307 91.0971 35.4677 91.311 35.2694C91.5171 35.0863 92.1662 35.8263 91.9524 36.0247C92.2197 35.9942 92.487 35.9713 92.7542 35.9408C92.0517 35.5364 92.3342 34.0716 93.1131 33.919C92.8688 33.8122 92.6168 33.7054 92.3724 33.5986C92.823 34.2776 92.9222 35.0252 92.7466 35.8187C92.8535 35.6432 92.9604 35.4677 93.0673 35.2922C92.5939 35.5974 92.3189 35.01 92.0517 34.7811C91.9906 34.7277 92.0746 34.4607 91.9295 34.7048C91.7615 34.9871 91.8531 34.6972 91.8989 34.8345C91.96 35.0558 92.2197 34.9337 92.0822 35.1778C91.5859 36.0857 93.0597 36.7342 93.5484 35.8339C94.144 34.743 93.2353 33.4078 92.0746 33.2171C90.5702 32.973 90.0739 34.5598 90.7153 35.6737C91.2728 36.6426 92.5557 37.2606 93.64 36.7876C95.152 36.1315 94.3426 33.652 93.6706 32.6373C93.5255 32.416 93.1971 32.2635 92.9299 32.3169C90.5244 32.7746 89.9975 36.1925 92.0975 37.3979C92.319 37.5276 92.716 37.4895 92.8993 37.314C93.724 36.5435 93.7546 35.4449 93.075 34.5522C92.4411 33.7206 91.2651 33.3086 90.364 33.9724C88.4168 35.4067 90.7917 38.5576 92.823 37.3751C93.724 36.8563 92.7619 35.5669 91.876 36.0857Z" fill="#485A83"/>
<path d="M126.439 40.7243C126.332 40.7319 126.179 40.32 126.278 40.2665C126.072 40.2589 125.866 40.2589 125.652 40.2513C126.446 40.6251 126.431 42.0213 125.622 42.3722C125.828 42.3799 126.034 42.3798 126.248 42.3875C125.996 42.2578 125.973 41.594 126.263 41.4643C126.744 41.2507 126.92 42.1205 126.645 42.4104C126.82 42.3112 126.996 42.2196 127.172 42.1205C126.179 42.2807 125.408 40.6785 126.24 40.0529C125.973 40.0834 125.706 40.1063 125.438 40.1369C125.935 40.2818 125.522 41.2279 125.217 41.0982C125.354 41.2431 125.499 41.388 125.637 41.533C125.308 40.7624 125.347 40.0377 125.721 39.2976C125.507 39.4502 125.293 39.6104 125.079 39.763C126.775 39.6791 127.897 42.151 125.919 42.7079C124.4 43.1352 124.194 40.8311 125.454 40.6785C126.477 40.5564 126.294 38.962 125.27 39.084C123.835 39.2595 122.941 40.6327 123.033 42.0289C123.14 43.6082 124.583 44.6 126.11 44.3024C127.668 43.9972 128.867 42.5324 128.577 40.9227C128.271 39.1984 126.584 38.0846 124.896 38.1685C124.614 38.1838 124.377 38.3974 124.255 38.6339C123.644 39.8317 123.354 42.9902 125.499 42.7231C126.668 42.5782 127.37 41.2279 127.263 40.1445C127.202 39.5647 126.882 39.0382 126.362 38.7712C125.637 38.3974 125.026 38.8246 124.644 39.4578C123.903 40.6862 124.415 42.4027 125.507 43.2496C126.011 43.6463 126.721 43.8676 127.363 43.715C128.172 43.5243 128.508 42.5553 128.416 41.8153C128.241 40.3886 126.614 39.229 125.316 40.1826C124.278 40.9379 124.132 42.7384 125.14 43.5853C126.492 44.722 127.767 42.6774 127.828 41.4796C127.89 40.2666 126.599 37.7565 125.163 39.1298C123.964 40.2818 125.003 42.4714 126.622 42.3341C127.653 42.2273 127.47 40.6327 126.439 40.7243Z" fill="#485A83"/>
<path d="M62.8967 20.9264C56.4516 23.1618 46.8374 22.6582 44.0425 30.44C41.6142 37.1919 50.0753 41.655 54.7258 44.493C55.0694 44.699 55.6727 44.4702 55.7873 44.0887C57.7193 37.8785 59.6589 31.6683 61.5909 25.4582C61.904 24.4664 60.6669 23.917 60.1247 24.802C57.5894 28.9447 55.0465 33.095 52.5113 37.2376C53.0229 37.3139 53.5345 37.3979 54.0385 37.4742C53.3436 33.7435 54.1836 30.3637 56.5891 27.4188C56.1156 27.2815 55.6422 27.1442 55.1687 27.0069C55.8254 31.2792 54.0843 35.2235 50.4876 37.6267C50.8923 37.7412 51.3047 37.8633 51.7094 37.9777C50.8847 35.7194 51.0374 33.5985 52.1218 31.4624C51.7094 31.5615 51.2971 31.6607 50.8847 31.7599C51.5643 34.2622 51.0756 34.2089 49.4109 31.5997C49.0367 31.6378 48.6549 31.6759 48.2807 31.7141C48.0058 31.7217 47.7309 31.7217 47.456 31.7294C46.9978 31.7751 46.5396 31.8285 46.0738 31.8743C46.7763 32.4465 47.1047 33.2247 47.0589 34.2165C47.0971 35.1854 48.4411 35.0557 48.6473 34.247C48.8382 33.4993 49.0596 32.3702 49.64 31.8209C50.0447 30.8062 50.648 31.0427 51.4345 32.5228C52.7556 32.9271 53.1985 33.6672 52.7556 34.7429C52.7938 36.2077 52.328 37.375 52.6029 38.8856C52.7327 39.6027 53.84 39.9155 54.1302 39.1221C55.6498 34.9794 57.1618 30.8291 58.6814 26.6865C59.0327 25.7175 57.5742 25.0614 57.2153 26.0303C55.6956 30.173 54.1836 34.3233 52.664 38.466C53.1756 38.5423 53.6873 38.6262 54.1913 38.7025C53.7178 36.0628 56.1156 30.0738 51.8393 29.1049C48.9756 28.4564 47.6163 31.8362 47.0513 34.0105C47.5782 34.0181 48.1127 34.0334 48.6396 34.041C48.5938 32.7593 48.2502 31.8896 47.3567 30.9359C46.9214 30.4706 46.3029 30.5316 45.9745 31.0809C44.9207 32.8356 46.1578 35.7195 48.5022 35.1778C50.7396 34.659 50.7778 31.7522 49.2734 30.4858C48.9222 30.1883 48.4411 30.2951 48.1433 30.6002C46.3334 32.4465 47.456 36.3451 50.3884 35.9407C53.0458 35.5745 53.4811 32.21 51.8774 30.5239C51.4956 30.1272 50.8465 30.4095 50.6403 30.8215C49.3574 33.362 49.2276 35.9025 50.1974 38.5804C50.3807 39.0839 50.9993 39.2136 51.4193 38.9314C55.4665 36.223 57.4825 31.6378 56.7418 26.8314C56.6425 26.16 55.7644 25.8701 55.3214 26.4194C52.664 29.6771 51.6483 33.5298 52.4196 37.6725C52.5723 38.4965 53.5422 38.5728 53.9469 37.909C56.4822 33.7663 59.0251 29.6161 61.5603 25.4734C61.0716 25.2521 60.5829 25.0385 60.0942 24.8173C58.1622 31.0275 56.2225 37.2377 54.2905 43.4478C54.6418 43.3105 55.0007 43.1808 55.352 43.0435C50.2738 39.9461 41.0567 34.4988 47.5323 28.0139C51.656 23.8789 58.2233 24.2604 63.4542 22.4446C64.4622 22.0784 63.8665 20.5907 62.8967 20.9264Z" fill="#485A83"/>
<path d="M51.312 50.4973C48.4942 51.0313 45.7756 51.8705 43.2174 53.1751C41.5451 54.022 38.5822 55.2045 38.0705 57.2186C37.62 59.0115 39.636 60.8349 40.644 61.9793C42.6982 64.3215 44.9738 66.4195 47.4327 68.3345C48.2574 68.9753 49.1891 67.7852 48.4407 67.0909C47.1043 65.8321 45.7603 64.5809 44.424 63.322C43.9429 62.8719 42.9273 62.2311 42.6371 61.6512C41.8505 61.1706 41.904 60.4916 42.7898 59.6219C42.7287 58.4546 43.1793 57.8519 44.1491 57.7985C43.7825 57.5772 43.4236 57.3636 43.0571 57.1424C43.4007 58.7521 43.4236 60.2093 43.1029 61.842C42.9273 62.727 44.2865 63.1313 44.6302 62.2921C45.3251 60.5832 46.0123 58.8818 46.7073 57.1729C46.1956 57.0203 45.6916 56.8754 45.18 56.7228C45.0654 58.5233 44.9509 60.3238 44.8287 62.1319C44.7752 62.9711 46.0047 63.4823 46.356 62.582C47.1654 60.4764 47.9749 58.3707 48.7843 56.2726C48.2727 56.1963 47.7611 56.1124 47.2571 56.0361C47.3411 57.623 47.4174 59.2099 47.5014 60.7968C47.5243 61.2774 48.1505 61.6818 48.5934 61.4529C49.2502 61.1096 49.5327 60.9646 49.9527 60.3009C50.3422 59.6753 51.2662 57.4323 51.3502 57.0966C51.0982 58.096 52.6865 58.3325 52.9385 57.3407C53.2211 56.2192 52.4651 55.1359 51.2051 55.1511C48.4713 55.174 49.7236 59.0726 48.0054 59.9652C48.372 60.1865 48.7309 60.4001 49.0974 60.6213C49.0134 59.0344 48.9371 57.4475 48.8531 55.8607C48.8149 55.0748 47.6007 54.8994 47.3258 55.6242C46.5163 57.7298 45.7069 59.8355 44.8974 61.9336C45.4091 62.0861 45.9131 62.2311 46.4247 62.3837C46.5393 60.5832 46.6538 58.7827 46.776 56.9745C46.8294 56.1277 45.6153 55.6318 45.2487 56.5244C44.5538 58.2334 43.8665 59.9347 43.1716 61.6436C43.6833 61.7962 44.1873 61.9412 44.6989 62.0937C45.0502 60.3161 45.0425 58.7522 44.6607 56.9669C44.5462 56.4252 44.1033 56.1658 43.5687 56.3108C41.7436 56.8219 39.72 58.5843 40.0102 60.7281C40.1782 61.9412 41.1709 62.4676 42.0796 63.322C43.8665 64.9929 45.6534 66.6713 47.4403 68.3421C47.7763 67.9301 48.1123 67.5105 48.4483 67.0985C46.0353 65.2141 40.0025 61.0562 40.3309 57.8595C40.6898 54.434 48.5705 52.6564 51.5029 52.0994C52.5109 51.8934 52.3353 50.2989 51.312 50.4973Z" fill="#485A83"/>
<path d="M45.0121 71.7219C41.8124 74.9872 35.5735 71.9584 33.7026 77.3065C31.9844 82.235 36.3066 86.0572 39.8117 88.6741C40.2241 88.9792 40.835 88.8648 41.0488 88.3765C43.1717 83.6464 45.0579 78.8323 46.7073 73.9191C47.0281 72.9578 45.6688 72.3017 45.2412 73.263C43.5917 76.9479 41.6979 80.4802 39.5139 83.8829C39.9644 84.1575 40.415 84.4398 40.8732 84.7145C41.7895 82.235 42.7059 79.7555 43.6146 77.2836C43.103 77.131 42.599 76.9861 42.0873 76.8335C41.4001 79.641 40.247 81.968 38.4372 84.2338C38.8572 84.2415 39.2848 84.2567 39.7048 84.2643C38.0783 82.3875 37.6964 80.1751 38.6815 77.8939C38.2234 77.9397 37.7652 77.9931 37.2994 78.0389C37.3834 78.9239 37.4597 79.8089 37.5437 80.6939C37.895 80.5565 38.2539 80.4269 38.6052 80.2895C39.0328 79.725 39.4604 79.1527 39.8957 78.5882C40.1019 78.1152 40.3157 77.6422 40.5219 77.1692C39.7964 77.131 39.071 77.0853 38.3379 77.0471C37.5055 77.0013 36.9634 78.2449 37.8874 78.573C39.4452 79.1299 40.5295 80.1903 41.087 81.762C41.2397 81.4187 41.3848 81.0677 41.5375 80.7244C40.583 81.0677 39.6284 81.4034 38.6739 81.7467C37.7041 82.0976 38.2921 83.5854 39.2619 83.242C40.2164 82.8987 41.171 82.563 42.1179 82.2197C42.5379 82.0671 42.7135 81.5789 42.5684 81.1821C41.8506 79.1528 40.5601 77.8405 38.5364 77.1234C38.3837 77.6345 38.2386 78.1381 38.0859 78.6492C38.8114 78.6874 39.5368 78.7331 40.2699 78.7713C41.0488 78.8171 41.5299 77.9092 40.8961 77.3523C37.5743 74.4608 33.9699 79.6258 37.9408 81.7696C38.3074 81.968 38.8572 81.7467 39.0023 81.3652C39.6055 79.7402 39.4757 78.5729 38.5899 77.1081C38.2692 76.5817 37.4368 76.7343 37.2077 77.2531C35.9935 80.053 36.3983 82.9216 38.399 85.2333C38.7274 85.6147 39.323 85.6986 39.6666 85.2638C41.6215 82.8071 42.9121 80.1446 43.6528 77.0929C43.8666 76.2155 42.4386 75.7959 42.1255 76.6427C41.2092 79.1222 40.2928 81.6017 39.3841 84.0736C39.0939 84.867 40.2164 85.7215 40.7433 84.9052C42.9961 81.3881 44.9815 77.7414 46.6844 73.9344C46.1957 73.7131 45.707 73.4995 45.2183 73.2783C43.5688 78.1915 41.6826 83.0055 39.5597 87.7356C39.9721 87.6364 40.3844 87.5373 40.7968 87.4381C39.071 86.1488 37.1772 84.806 36.0164 82.9521C33.9317 79.6258 35.039 75.9027 39.0939 75.1245C41.7514 74.6134 44.2179 74.7965 46.2339 72.7366C46.9823 71.9965 45.7299 70.9895 45.0121 71.7219Z" fill="#485A83"/>
<path d="M42.5223 93.0685C40.3383 92.1835 38.0321 91.7639 35.6724 91.9775C34.191 92.1148 31.2281 92.4429 30.4873 94.0298C29.8001 95.5098 31.2052 97.5316 32.0146 98.6989C33.2975 100.56 35.031 101.972 37.0241 103.009C37.3143 103.162 37.7877 103.063 37.9786 102.781C39.6433 100.339 40.8499 97.7529 41.667 94.9224C41.1401 94.8385 40.6055 94.7622 40.0786 94.6783C39.9106 96.3338 39.3837 97.6384 38.3452 98.9354C38.8033 99.0041 39.2615 99.0727 39.7121 99.149C39.3226 98.264 38.9332 97.379 38.5437 96.494C38.1161 95.5251 36.7873 96.1049 37.047 97.0815C36.6881 96.8068 36.3368 96.5322 35.9779 96.2575C35.6724 96.4788 35.367 96.7077 35.0615 96.9289C35.2983 97.1425 35.5426 97.3485 35.7793 97.5621C36.0008 97.1959 36.2146 96.8373 36.4361 96.4711C35.0386 96.5245 33.9695 95.9981 33.1143 94.8995C32.8546 95.3191 32.6026 95.7464 32.343 96.166C34.2063 96.2041 35.9015 96.5169 37.6503 97.2036C37.7266 96.6924 37.8106 96.1812 37.887 95.6777C36.627 95.9142 35.619 95.7464 34.5041 95.1208C33.7175 94.6783 32.9157 95.9752 33.6717 96.4788C34.2139 96.8373 36.963 98.6608 35.0692 99.5534C34.1375 99.9882 34.7179 101.484 35.6572 101.049C38.7117 99.6144 36.627 96.5322 34.6797 95.2352C34.4048 95.6853 34.1223 96.1355 33.8473 96.5932C35.2066 97.3562 36.543 97.5697 38.0779 97.2798C38.8033 97.1425 39.1012 96.0591 38.3146 95.754C36.4513 95.0216 34.6033 94.6401 32.595 94.5944C31.9535 94.5791 31.3579 95.2505 31.8237 95.8608C33.0379 97.4324 34.6415 98.1572 36.627 98.0809C37.1615 98.058 37.4517 97.44 37.2837 96.9899C36.9248 96.021 36.3215 95.548 35.3135 95.3573C34.863 95.2734 34.4964 95.6167 34.3972 96.0287C34.0383 97.5393 34.8248 99.4313 36.6117 99.3779C38.1772 99.3321 38.9103 97.8673 38.5437 96.5093C38.0473 96.7076 37.551 96.906 37.047 97.0967C37.4364 97.9817 37.8259 98.8667 38.2153 99.7517C38.4521 100.293 39.1928 100.446 39.5823 99.9653C40.7812 98.47 41.4608 96.8526 41.6517 94.9453C41.7586 93.8924 40.3459 93.7322 40.0633 94.7011C39.3303 97.2493 38.2077 99.6068 36.7186 101.796C37.0393 101.72 37.3524 101.644 37.6732 101.567C36.2223 100.812 34.9317 99.8356 33.8932 98.5615C33.1677 97.6765 31.7473 95.96 32.2666 94.8537C32.8241 93.6788 35.3593 93.5873 36.5812 93.5492C38.4139 93.4881 40.1626 93.8695 41.8579 94.5562C42.8201 94.9224 43.4768 93.4576 42.5223 93.0685Z" fill="#485A83"/>
<path d="M36.7571 110.844C34.7564 109.639 31.0604 108.342 29.8309 111.356C28.8306 113.805 31.5339 115.361 32.4808 117.253C32.8626 118.016 34.176 117.825 34.0233 116.864C33.7789 115.3 33.5422 113.744 33.2979 112.18C32.7862 112.309 32.2669 112.439 31.7553 112.569C32.0226 113.179 32.2899 113.782 32.5571 114.392C32.9771 115.338 34.3746 114.781 34.0539 113.805C33.8935 113.889 33.7255 113.972 33.5651 114.049C33.8248 113.629 34.0768 113.202 34.3364 112.782C33.7331 112.714 33.3284 112.492 33.0459 111.92C32.6869 112.263 32.328 112.607 31.9691 112.95C32.6182 113.164 33.2597 113.37 33.9088 113.583C34.8786 113.904 35.5506 112.439 34.5655 112.119C33.9164 111.905 33.2749 111.699 32.6259 111.485C32.0302 111.287 31.2131 111.821 31.5491 112.515C32.0684 113.576 32.9008 114.232 34.0844 114.377C34.7182 114.453 35.3444 113.66 34.8557 113.11C33.8629 112.004 32.0837 112.95 32.5571 114.4C33.0535 114.201 33.5499 114.003 34.0539 113.812C33.7866 113.202 33.5193 112.599 33.252 111.989C32.9008 111.188 31.5644 111.447 31.7095 112.378C31.9539 113.942 32.1906 115.498 32.4349 117.062C32.9466 116.933 33.4659 116.803 33.9775 116.673C33.3208 115.361 32.0684 114.453 31.4422 113.148C30.9382 112.103 31.5797 111.256 32.6717 111.081C33.8935 110.89 35.1153 111.722 36.108 112.317C36.9786 112.843 37.6277 111.371 36.7571 110.844Z" fill="#485A83"/>
<path d="M26.1039 128.186C25.3708 127.194 22.9806 123.471 24.1108 122.395C24.7676 121.769 26.669 122.265 27.5243 122.426C28.769 122.662 29.9297 123.066 31.0828 123.585C30.9454 123.234 30.8156 122.876 30.6781 122.525C30.2505 123.364 29.7159 124.196 28.9752 124.798C28.4865 125.195 28.3796 125.477 28.0665 124.882C27.7381 124.257 27.8603 123.593 27.3257 122.998C26.7836 122.387 25.8596 122.738 25.8825 123.562C25.9054 124.493 25.661 125.233 25.2028 126.019C25.6152 125.92 26.0276 125.821 26.4399 125.721C25.6916 125.02 25.5236 124.18 25.7526 123.211C25.5159 123.433 25.2868 123.661 25.0501 123.883C25.6687 123.669 26.0505 123.913 26.1956 124.63C26.4323 124.333 26.6614 124.035 26.8981 123.738C26.6996 123.547 26.4934 123.356 26.2948 123.166C25.9894 123.463 25.6839 123.753 25.3785 124.051C26.5392 124.142 27.6999 124.241 28.8607 124.333C29.8839 124.417 30.1359 122.83 29.105 122.746C27.9443 122.654 26.7836 122.555 25.6228 122.464C25.073 122.418 24.6912 122.807 24.7065 123.349C24.7446 124.661 25.8214 125.493 27.089 125.332C27.5243 125.279 27.8374 124.882 27.7916 124.44C27.6541 122.975 26.333 121.93 24.8668 122.288C24.4926 122.38 24.2559 122.586 24.1643 122.96C23.7901 124.508 24.2788 125.882 25.4243 126.957C25.8366 127.346 26.4247 127.072 26.6614 126.66C27.2799 125.607 27.5014 124.569 27.4708 123.364C26.9897 123.555 26.5086 123.745 26.0276 123.929C26.8752 124.875 26.3101 126.843 28.1047 126.919C29.9145 126.988 31.4417 124.524 32.1367 123.166C32.3352 122.777 32.1137 122.273 31.7319 122.105C29.9908 121.319 28.1581 120.785 26.249 120.61C25.1647 120.511 23.4007 120.228 22.5988 121.19C21.8352 122.098 22.301 123.585 22.5759 124.592C23.0188 126.24 23.7901 127.743 24.8057 129.116C25.4243 129.963 26.7225 129.017 26.1039 128.186Z" fill="#485A83"/>
<path d="M13.7942 125.188C14.7411 124.249 15.9095 123.631 17.2229 123.364C16.9251 123.128 16.6273 122.899 16.3295 122.662C16.7647 124.661 16.7189 126.668 16.0851 128.628C16.5433 128.583 17.0015 128.529 17.4673 128.483C16.864 127.522 16.5662 126.469 16.5967 125.325C16.612 124.768 16.1233 124.173 15.5047 124.455C14.8633 124.753 14.3746 125.126 13.9851 125.722C13.42 126.576 14.6571 127.591 15.2298 126.729C15.4666 126.37 15.6956 126.134 16.0927 125.943C15.7262 125.653 15.3673 125.363 15.0007 125.073C14.9549 126.668 15.3215 128.064 16.1615 129.422C16.4593 129.902 17.3604 129.841 17.5436 129.277C18.2615 127.041 18.4142 124.768 17.9178 122.472C17.8338 122.075 17.4825 121.678 17.0244 121.77C15.2604 122.128 13.8095 122.914 12.5418 124.173C11.8164 124.905 13.0687 125.905 13.7942 125.188Z" fill="#485A83"/>
<path d="M14.2981 111.6C15.4207 111.737 16.6577 112.523 16.7188 113.767C16.7799 114.949 15.4283 115.857 14.3821 115.338C14.5348 115.62 14.6952 115.91 14.8479 116.193C15.0999 115.01 15.3519 113.828 15.6039 112.645C15.8177 111.638 14.2294 111.394 14.0156 112.401C13.7636 113.583 13.5116 114.766 13.2596 115.941C13.1832 116.292 13.4199 116.643 13.7254 116.795C15.5887 117.726 17.9559 116.376 18.2919 114.339C18.6585 112.096 16.6272 110.249 14.5501 110.005C13.5192 109.891 13.2672 111.478 14.2981 111.6Z" fill="#485A83"/>
<path d="M63.9426 21.9029C62.5375 15.3951 57.7495 3.83688 67.4477 1.83039C75.0917 0.251148 80.3073 7.35395 84.1484 12.8012C84.744 13.6481 86.0422 12.6944 85.4466 11.8552C81.0633 5.63738 74.916 -1.98419 66.287 0.472419C56.1459 3.35626 60.7888 14.8535 62.3466 22.0859C62.568 23.0854 64.164 22.9099 63.9426 21.9029Z" fill="#485A83"/>
<path d="M64.6835 3.10455C65.1035 6.17149 64.9584 9.02482 64.2483 12.0231C64.7752 12.107 65.3097 12.1833 65.8366 12.2672C66.2032 9.00193 66.5774 5.73666 66.9439 2.47136C67.0585 1.44904 65.5465 1.21253 65.3555 2.22722C64.4621 7.07939 63.561 11.9392 62.6675 16.7914C62.4766 17.8137 64.0345 18.0349 64.2559 17.0355C65.0119 13.5489 66.0428 10.1692 67.3639 6.85052C66.9057 6.89629 66.4475 6.9497 65.9817 6.99547C67.257 9.11639 67.593 11.2525 67.1501 13.6481C66.9897 14.5255 68.3414 14.9451 68.6774 14.0983C69.525 11.9392 70.3803 9.78014 71.2279 7.62107C70.7392 7.39983 70.2505 7.18617 69.7617 6.96493C68.853 9.61226 67.9443 12.2596 67.0355 14.8993C66.7606 15.6851 67.8603 16.5549 68.3948 15.7309C70.4872 12.5114 72.5795 9.29185 74.6795 6.07232C74.2061 5.935 73.7326 5.79769 73.2592 5.66036C73.8014 7.90335 73.5875 9.91744 72.5414 11.985C72.1443 12.7708 73.1141 13.3201 73.7479 12.9615C74.7712 12.3817 75.8021 11.8019 76.8254 11.222C76.4588 10.8406 76.0923 10.4515 75.7257 10.07C73.5723 12.2291 71.2432 14.1059 68.6926 15.7767C69.0057 16.2116 69.3264 16.6388 69.6395 17.0736C72.0603 15.0595 74.7025 13.9915 77.841 13.7702C77.6501 13.2896 77.4592 12.8089 77.2759 12.3283C74.229 14.968 70.8614 16.9439 67.0584 18.3172C67.425 18.6071 67.7839 18.897 68.1504 19.1869C69.2654 13.343 77.1766 6.19441 71.6326 0.32755C71.3043 0.731898 70.9835 1.12858 70.6552 1.53293C72.9461 2.66968 75.237 3.80645 77.5355 4.93558C77.6883 4.42442 77.8333 3.92089 77.9861 3.40973C76.7566 3.28767 75.5272 3.16561 74.2901 3.04355C73.4424 2.95963 72.9308 4.27948 73.8395 4.56939C77.3752 5.68325 79.8875 8.13221 81.0559 11.6493C81.3766 12.6334 82.8734 12.0383 82.5526 11.0618C81.2621 7.16328 78.429 4.34049 74.5039 3.11218C74.3512 3.62334 74.2061 4.12687 74.0534 4.63803C75.2828 4.76009 76.5123 4.88215 77.7494 5.00421C78.6504 5.09576 79.0246 3.89035 78.1999 3.47837C75.909 2.34162 73.6181 1.2049 71.3195 0.0757733C70.6399 -0.259912 69.7846 0.686123 70.3421 1.2812C75.2064 6.43092 67.5777 13.6558 66.5621 18.9428C66.4475 19.5608 67.0966 20.0109 67.6541 19.8125C71.5715 18.4011 75.0766 16.3565 78.2304 13.6253C78.8337 13.1065 78.4901 12.1223 77.6654 12.1833C74.2824 12.4198 71.3043 13.61 68.7003 15.7843C67.9061 16.448 68.7843 17.6458 69.6472 17.0813C72.3123 15.3342 74.733 13.3506 76.9781 11.0924C77.673 10.3905 76.6039 9.53599 75.8784 9.94034C74.8552 10.5202 73.8243 11.1 72.801 11.6798C73.2057 12.0078 73.6028 12.3283 74.0075 12.6563C75.1912 10.3294 75.4737 8.02538 74.8552 5.48486C74.7177 4.90504 73.8548 4.42441 73.4348 5.0729C71.3425 8.29242 69.2501 11.5119 67.1501 14.7315C67.6006 15.0061 68.0512 15.2884 68.5094 15.5631C69.4181 12.9157 70.3268 10.2684 71.2355 7.62107C71.5639 6.65979 70.1512 5.99602 69.7694 6.96493C68.9217 9.12399 68.0665 11.2831 67.2188 13.4422C67.7305 13.5947 68.2345 13.7397 68.7461 13.8923C69.273 11.0466 68.769 8.52132 67.2875 6.04946C66.9744 5.53067 66.1192 5.668 65.9054 6.19441C64.5308 9.65045 63.4617 13.1598 62.6752 16.7914C63.2021 16.8753 63.7366 16.9516 64.2635 17.0355C65.157 12.1833 66.0581 7.32353 66.9515 2.47136C66.4246 2.38743 65.8901 2.31114 65.3632 2.22722C64.9966 5.49252 64.6224 8.75779 64.2559 12.0231C64.1414 13.0607 65.6075 13.2667 65.8443 12.2672C66.585 9.14689 66.7225 6.0952 66.2872 2.92145C66.1345 1.89914 64.5384 2.0746 64.6835 3.10455Z" fill="#485A83"/>
<path d="M81.6891 9.16959C77.8862 8.65844 74.9844 6.03399 73.9993 2.34147C73.6404 2.68478 73.2815 3.02812 72.9225 3.37143C76.4276 5.46183 79.4898 8.07865 82.1167 11.199C82.4985 10.8328 82.888 10.4666 83.2698 10.1004C79.6731 7.72007 76.0764 5.33974 72.472 2.96706C71.6167 2.4025 70.6011 3.64607 71.464 4.21063C75.0607 6.59093 78.6575 8.97126 82.2618 11.3439C82.9644 11.8093 84.0487 11.0006 83.4149 10.2453C80.6047 6.90375 77.3287 4.14199 73.5793 1.89901C72.8996 1.49466 72.3498 2.34148 72.5025 2.92893C73.6175 7.14024 77.1378 10.169 81.4371 10.7565C82.468 10.8862 82.72 9.30692 81.6891 9.16959Z" fill="#485A83"/>
<path d="M101.391 116.826C102.43 115.262 102.819 113.683 103.262 111.882C104.217 108.006 106.149 105.557 110.402 105.886C115.266 106.259 119.199 109.105 124.239 108.823C129.203 108.54 134.357 106.297 139.321 107.579C139.932 107.694 140.512 107.884 141.07 108.159C142.032 112.05 140.749 113.21 137.206 111.638C135.969 111.272 134.838 110.524 133.617 110.097C131.891 109.502 130.425 109.403 128.691 109.929C127.706 110.234 128.294 111.722 129.279 111.424C133.365 110.173 136.557 114.491 140.612 113.69C142.253 113.362 143.941 111.981 144.132 110.227C144.728 104.84 135.19 105.512 132.15 105.985C128.386 106.58 124.606 107.648 120.765 107.099C117.13 106.58 113.907 104.459 110.204 104.276C108.065 104.169 105.797 104.611 104.171 106.091C101.399 108.624 102.117 112.843 100.139 115.811C99.5738 116.673 100.818 117.688 101.391 116.826Z" fill="#485A83"/>
<path d="M115.389 128.163C120.994 119 132.914 120.335 141.994 121.724C142.315 121.77 142.735 121.586 142.849 121.258C144.552 116.437 150.745 115.834 155.121 116.673C156.167 116.811 157.129 117.169 158.007 117.749C157.503 119.054 156.999 120.358 156.495 121.663C155.839 122.105 152.501 121.274 151.654 121.19C148.828 120.915 146.011 120.64 143.185 120.358C142.162 120.259 141.91 121.846 142.941 121.945C147.553 122.395 152.417 123.356 157.053 123.311C159.176 123.288 160.772 122.197 160.779 119.931C160.779 114.217 151.784 114.346 148.019 115.231C145.392 115.849 143.834 117.07 142.101 119.008C141.581 119.588 141.91 119.694 141.085 119.969C140.497 120.167 138.252 119.557 137.618 119.481C135.625 119.237 133.617 119.061 131.601 119.054C124.652 119.038 117.695 121.35 113.923 127.507C113.38 128.384 114.854 129.033 115.389 128.163Z" fill="#485A83"/>
<path d="M131.486 110.326C129.577 109.548 127.66 108.777 125.751 107.999C125.85 108.411 125.949 108.823 126.049 109.235C128.263 106.168 132.692 105.802 135.403 108.426C135.541 107.953 135.678 107.48 135.816 107.007C133.983 107.03 132.318 106.809 130.562 106.282C129.607 106 128.92 107.35 129.905 107.747C132.517 108.785 135.128 109.822 137.748 110.86C137.755 110.364 137.77 109.876 137.778 109.38C135.724 110.326 133.318 110.166 131.524 108.708C130.371 107.762 130.852 107.259 132.074 106.778C133.38 106.267 134.861 106.755 135.716 107.816C135.777 107.442 135.831 107.068 135.892 106.694C134.395 107.594 132.654 106.915 132.028 105.351C131.638 104.398 130.149 104.978 130.531 105.939C131.57 108.518 134.494 109.403 136.839 107.984C137.198 107.762 137.266 107.182 137.014 106.862C134.846 104.146 130.714 104.512 128.958 107.465C128.813 107.709 128.897 108.052 129.042 108.266C131.127 111.325 135.006 112.408 138.374 110.867C138.969 110.593 139.084 109.662 138.404 109.387C135.793 108.35 133.181 107.312 130.562 106.275C130.34 106.763 130.126 107.251 129.905 107.739C131.929 108.335 133.899 108.617 136.006 108.594C136.762 108.586 136.862 107.602 136.419 107.175C133.112 103.978 127.492 104.497 124.804 108.22C124.514 108.624 124.598 109.25 125.102 109.456C127.011 110.234 128.928 111.005 130.837 111.783C131.791 112.18 132.448 110.715 131.486 110.326Z" fill="#485A83"/>
<path d="M144.681 118.016C148.049 117.917 151.348 118.26 154.639 119C154.578 118.489 154.525 117.978 154.464 117.459C152.18 118.527 149.561 118.085 147.866 116.177C147.805 116.551 147.751 116.925 147.69 117.299C149.416 116.078 151.837 116.864 152.57 118.817C152.791 118.451 153.005 118.092 153.226 117.726C151.699 117.818 150.172 117.879 148.645 117.993C147.828 118.054 146.881 118.001 146.346 118.733C145.628 119.71 146.453 120.694 147.553 120.587C147.934 120.549 148.164 120.251 148.255 119.916C148.278 119.847 148.293 119.771 148.309 119.702C148.576 118.703 146.988 118.466 146.72 119.458C146.697 119.527 146.682 119.603 146.659 119.672C146.896 119.45 147.125 119.221 147.362 119C147.438 119.038 147.514 119.084 147.583 119.122C147.545 119.389 147.499 119.656 147.461 119.923C147.896 119.328 149.714 119.549 150.348 119.511C151.363 119.45 152.386 119.397 153.402 119.336C153.929 119.305 154.227 118.703 154.059 118.245C152.952 115.3 149.294 114.217 146.736 116.025C146.407 116.261 146.277 116.826 146.56 117.146C148.721 119.58 152.066 120.366 155.044 118.977C155.777 118.634 155.655 117.619 154.868 117.436C151.44 116.666 147.996 116.345 144.483 116.444C143.467 116.452 143.658 118.039 144.681 118.016Z" fill="#485A83"/>
<path d="M56.0848 83.3335C64.6681 86.2937 73.4804 88.346 82.4913 89.4446C83.5146 89.5666 83.7666 87.9874 82.7357 87.8577C73.8622 86.7667 65.1873 84.7754 56.7415 81.861C55.7717 81.533 55.1073 82.9978 56.0848 83.3335Z" fill="#485A83"/>
<path d="M51.1207 91.7257C59.8491 96.5168 69.2724 99.6295 79.1385 100.988C80.1618 101.132 80.4062 99.5456 79.3829 99.4007C69.6542 98.0579 60.3913 94.9833 51.7774 90.2608C50.8687 89.7649 50.2196 91.2298 51.1207 91.7257Z" fill="#485A83"/>
<path d="M47.5402 103.231C55.7645 108.472 64.7907 111.981 74.4049 113.637C75.4205 113.812 75.6649 112.225 74.6493 112.05C65.3253 110.448 56.5282 107.068 48.5482 101.987C47.6929 101.438 46.6773 102.681 47.5402 103.231Z" fill="#485A83"/>
<path d="M87.6838 35.6202C86.9813 39.1221 92.4718 41.0828 94.0602 37.787C95.534 34.72 91.4791 29.9059 88.9591 33.4307C88.0504 34.7047 88.0122 36.6654 89.2187 37.7641C90.6162 39.0381 92.8766 38.7101 94.1824 37.4742C95.6562 36.078 95.5798 33.8427 94.4344 32.2634C93.3347 30.7528 90.914 29.6313 89.2187 30.8672C87.6533 32.004 87.8595 34.5369 89.15 35.8034C90.9904 37.6039 93.8922 36.6807 95.618 35.2312C95.9158 34.9794 95.9922 34.659 95.8929 34.2928C95.45 32.683 93.1438 29.906 91.3875 31.5463C90.1351 32.7135 90.4711 35.0023 92.0747 35.6508C93.0293 36.0399 93.6937 34.575 92.7315 34.1859C92.3344 34.0257 91.8838 32.8737 92.51 32.6677C92.7315 32.5914 93.4187 33.2018 93.5638 33.3315C94.0144 33.7587 94.2358 34.2928 94.3962 34.8802C94.4878 34.5674 94.5795 34.2546 94.6711 33.9418C93.6249 34.8268 91.7693 35.8034 90.4558 34.8345C89.2951 33.9723 89.4555 31.7904 91.2195 31.9963C92.6856 32.1642 93.9762 33.8503 93.6631 35.3075C93.3958 36.5434 91.7082 37.4513 90.5551 36.7799C89.5929 36.223 89.7227 34.6361 90.578 34.0258C91.5707 33.3162 92.51 34.7429 92.7085 35.5974C93.4493 38.7864 88.7758 38.2905 89.2569 35.872C89.4707 34.8497 87.89 34.6132 87.6838 35.6202Z" fill="#485A83"/>
<path d="M129.317 36.4367C127.385 37.7718 126.102 39.8393 125.827 42.1815C125.621 43.9515 125.965 47.171 128.187 47.4991C130.31 47.8119 132.341 45.3095 132.845 43.4937C133.433 41.3651 132.509 39.0688 130.44 38.138C126.874 36.5359 123.521 41.7771 126.935 43.8447C130.967 46.286 134.976 39.5036 130.684 37.2759C126.927 35.3228 123.598 40.5489 127.095 42.9063C130.249 45.0348 133.777 39.6486 130.608 37.6192C127.225 35.4601 123.452 40.4802 126.812 43.0283C130.402 45.752 134.388 41.0142 131.868 37.6192C128.615 33.2324 121.192 39.2747 125.247 42.6926C126.576 43.8141 129.142 43.4251 129.493 41.5178C129.844 39.6181 127.622 38.3364 126.095 39.3205C125.751 39.5494 125.652 40.1216 125.919 40.442C127.454 42.2654 130.34 41.1363 130.363 38.8018C130.379 37.7718 128.783 37.9702 128.767 38.9848C128.76 39.702 127.614 39.969 127.21 39.4884C127.148 39.8622 127.095 40.236 127.034 40.6099C126.942 40.9761 126.858 41.3423 126.767 41.7009C125.911 41.2278 125.621 40.6175 125.896 39.8698C126.003 39.1298 126.293 38.7483 126.866 38.3058C127.79 37.5963 129.279 37.3979 130.241 38.2066C132.387 40.0148 129.775 43.7455 127.584 41.5559C124.896 38.8704 131.532 37.6192 130.004 40.7472C129.485 41.8077 128.027 42.1433 127.446 40.915C126.851 39.6409 127.744 38.2906 129.164 38.4279C130.562 38.5653 131.272 40.0301 130.715 41.2355C130.134 42.4867 127.347 43.6692 127.171 41.3957C126.927 38.199 131.83 39.4731 131.394 42.5858C131.257 43.5547 130.058 45.7749 128.859 45.8359C128.141 45.874 127.614 44.8517 127.492 44.2872C127.393 43.8065 127.37 43.3182 127.393 42.83C127.477 40.7319 128.538 38.9009 130.264 37.7184C131.119 37.1462 130.172 35.8492 129.317 36.4367Z" fill="#485A83"/>
<path d="M123.705 73.8428C125.324 75.155 126.95 76.4748 128.569 77.787C128.905 77.3751 129.241 76.9555 129.577 76.5435C128.836 76.0171 128.096 75.483 127.355 74.9566C126.515 74.3539 125.499 75.5974 126.347 76.2002C127.088 76.7266 127.828 77.2606 128.569 77.787C129.402 78.3821 130.387 77.1996 129.577 76.5435C127.958 75.2313 126.332 73.9114 124.713 72.5992C123.919 71.9431 122.903 73.1943 123.705 73.8428Z" fill="#485A83"/>
<path d="M139.764 76.3146C138.611 77.0164 137.458 77.7107 136.305 78.4126C136.733 78.5957 137.153 78.7788 137.58 78.9695C137.557 77.726 138.199 76.6274 139.214 75.9331C140.07 75.3533 139.123 74.0563 138.268 74.6361C136.748 75.6661 135.954 77.3369 135.984 79.1526C135.992 79.8087 136.794 79.9842 137.26 79.7096C138.413 79.0077 139.566 78.3134 140.719 77.6115C141.597 77.0699 140.642 75.7805 139.764 76.3146Z" fill="#485A83"/>
<path d="M64.5613 147.884C70.6628 149.151 76.7643 150.417 82.8581 151.684C82.6519 151.31 82.4533 150.936 82.2472 150.562C78.1235 163.013 69.4944 172.954 60.9417 182.613C60.3155 183.315 61.3006 184.253 62.0413 183.765C64.7981 181.926 67.8221 180.713 71.1363 180.347C72.7399 180.171 74.4352 180.118 76.0235 180.423C77.6959 180.743 82.0563 182.414 78.2533 185.107C75.9777 186.717 70.8995 186.191 68.4101 185.748C65.0272 185.146 62.0032 183.734 59.2617 181.69C58.437 181.072 57.4213 182.315 58.2537 182.933C62.1177 185.832 66.669 187.541 71.5257 187.663C74.3512 187.739 81.1628 187.579 81.537 183.551C81.8501 180.148 77.3064 178.851 74.7406 178.676C69.8381 178.34 65.1493 179.759 61.0868 182.468C61.4533 182.849 61.8199 183.238 62.1864 183.62C70.8308 173.862 79.5515 163.791 83.7133 151.218C83.8813 150.707 83.6523 150.211 83.1024 150.097C77.001 148.83 70.8995 147.564 64.8057 146.297C63.7901 146.091 63.5533 147.678 64.5613 147.884Z" fill="#485A83"/>
<path d="M105.064 153.584C108.844 156.132 108.859 161.03 108.508 165.127C108.065 170.284 107.118 175.373 105.797 180.377C105.599 181.125 106.538 181.453 107.065 181.148C110.219 179.317 113.632 178.035 117.244 177.501C120.069 177.089 124.781 176.448 127.187 178.485C128.691 179.759 128.332 181.651 126.988 182.956C126.072 183.849 123.949 183.841 122.788 183.734C121.024 183.566 119.237 183.048 117.527 182.605C113.372 181.537 109.325 180.156 105.354 178.539C104.4 178.15 103.735 179.614 104.697 180.004C110.409 182.323 117.42 185.245 123.674 185.397C126.843 185.474 130.982 183.154 129.798 179.408C128.767 176.151 124.544 175.64 121.665 175.601C116.137 175.533 110.868 177.082 106.11 179.851C106.53 180.11 106.958 180.362 107.378 180.622C108.92 174.755 110.219 168.56 110.241 162.472C110.257 158.611 109.455 154.621 106.064 152.34C105.224 151.768 104.209 153.004 105.064 153.584Z" fill="#485A83"/>
</g>
</svg>
