<svg width="230" height="149" viewBox="0 0 230 149" fill="none" xmlns="http://www.w3.org/2000/svg">
<g opacity="0.1">
<path d="M83.9733 18.8922C82.1711 19.6704 83.7289 22.3101 85.5235 21.5396C92.6482 18.465 100.643 22.7755 104.683 28.8026C109.28 35.646 109.548 44.4959 109.471 52.4532C109.433 56.2373 109.761 60.7615 107.715 64.126C105.653 67.5133 101.4 69.2604 97.6348 69.8555C90.1817 71.0228 82.3697 67.8338 77.8184 61.8677C76.6348 60.319 73.9772 61.8448 75.1685 63.4164C80.3231 70.1759 88.6162 73.9372 97.146 72.9911C101.277 72.5334 105.653 70.9541 108.608 67.9253C111.968 64.4845 112.373 59.8231 112.487 55.2532C112.739 45.2818 112.671 33.7921 106.111 25.5907C100.819 18.9761 92.0144 15.4209 83.9733 18.8922Z" fill="#485A83"/>
<path d="M254.531 38.4765C254.165 30.0233 250.728 22.0813 244.871 15.9932C244.199 15.2989 242.932 15.4439 242.466 16.306C238.793 23.0655 237.082 30.6947 237.815 38.385C238.167 42.0928 239.152 45.5488 240.419 49.0354C241 50.6375 242.359 52.4609 241.893 54.1927C241.55 55.4897 240.03 56.7638 238.9 57.397C236.525 58.7169 233.524 58.9458 230.897 58.3659C221.939 56.3976 218.778 47.5858 215.425 40.1931C213.432 35.7987 210.951 31.656 206.651 29.8936C200.603 17.6792 190.951 7.67731 177.045 3.07688C175.083 2.4284 173.082 1.89435 171.073 1.45948C170.837 1.09328 170.432 0.826253 169.859 0.818623C169.08 0.810994 168.301 0.810998 167.523 0.810998C157.824 -0.691961 147.783 0.0251841 138.115 1.88672C133.51 2.24529 128.921 2.68779 124.331 3.23709C116.909 4.12971 109.509 5.2512 102.155 6.60921C97.9781 7.38739 93.297 9.09634 89.2268 7.17378C86.5312 5.89969 84.3625 3.77114 81.6287 2.54283C72.2436 -1.64562 60.9799 1.74939 53.481 8.1732C47.5323 13.2695 43.6835 20.113 40.8122 27.3607C33.7639 39.0258 33.1071 52.5296 33.2675 65.8731C33.3668 73.8533 33.8937 82.2531 32.3129 90.1264C30.8468 97.4657 24.753 107.147 16.0475 102.287C12.3134 100.205 8.1439 95.9323 3.44753 97.9922C0.240255 99.4036 -0.500477 103.333 0.293705 106.438C2.54643 115.25 16.3836 119.552 24.2719 120.346C35.2683 121.452 46.341 116.905 50.7014 106.308C51.0221 105.537 50.6708 104.95 50.1057 104.668C53.3665 98.0685 55.7948 91.0801 57.2151 83.8323C57.6122 81.8106 57.9253 79.7659 58.1697 77.7213C58.2231 77.2407 58.2767 76.7676 58.3301 76.287C58.0017 74.9519 58.521 74.3568 59.9032 74.4941C61.4152 73.8456 62.8813 74.4407 64.3933 74.7383C69.7846 75.7911 75.1759 76.8439 80.5672 77.8968C79.3607 89.7373 84.645 101.914 87.9287 113.068C89.8225 119.499 91.7086 125.923 93.6024 132.354C94.7555 136.283 95.313 142.379 98.8029 145.08C102.224 147.727 107.959 147.674 112.06 147.925C116.794 148.215 122.56 148.688 126.989 146.621C135.748 142.532 134.274 132.286 131.746 124.58C142.368 121.94 153.151 120.132 164.063 119.179C164.033 119.316 164.01 119.461 164.017 119.629C164.285 124.771 164.552 129.913 164.819 135.055C164.964 137.809 164.552 141.547 167.622 142.86C170.837 144.233 175.808 142.951 179.115 142.356C179.183 142.341 179.244 142.326 179.313 142.318C184.384 142.577 189.653 141.792 193.494 138.595C199.267 133.781 201.672 124.702 204.215 117.965C209.629 103.668 213.364 88.2115 214.456 72.9454C215.349 60.4182 213.661 46.8839 208.896 34.9366C213.028 39.2318 214.7 47.3417 217.51 51.7132C221.451 57.8471 228.025 62.5849 235.631 61.5855C238.64 61.1887 241.786 59.8155 243.649 57.3207C244.268 56.4968 244.627 55.6804 244.795 54.8794C245.032 55.3753 245.475 55.6728 246.139 55.7644C253.882 56.7867 254.753 43.5347 254.531 38.4765ZM205.437 104.279C203.192 112.122 200.748 120.308 197.091 127.616C195.724 130.348 194.387 133.079 192.387 135.169C192.081 135.108 191.753 135.139 191.417 135.291C188.118 136.772 184.743 137.962 181.222 138.793C180.688 138.915 180.061 139.083 179.382 139.259C177.526 139.175 175.671 138.915 173.83 138.549C172.57 138.297 171.784 139.472 171.936 140.426C171.432 140.395 170.967 140.327 170.554 140.197C166.744 139.007 167.797 133.468 167.645 130.424C167.461 126.823 167.27 123.222 167.087 119.629C167.049 118.889 166.591 118.423 166.033 118.24C166.499 117.294 166.079 115.936 164.751 116.051C153.235 117.027 141.849 118.912 130.646 121.704C129.799 120.59 127.806 121.109 127.836 122.429C127.386 122.551 126.935 122.657 126.485 122.78C124.583 123.298 125.393 126.251 127.302 125.732C127.813 125.595 128.317 125.473 128.829 125.335C130.204 129.104 131.41 133.155 130.562 137.092C129.325 142.89 124.912 144.721 119.421 144.965C114.702 145.171 109.822 144.92 105.164 144.134C102.216 143.638 100.361 143.005 99.0167 139.846C98.1156 137.74 97.665 135.284 97.0235 133.087C94.3737 124.084 91.7316 115.082 89.0818 106.087C86.3174 96.6723 82.4229 86.8993 83.744 76.9431C83.8432 76.1726 83.4232 75.7148 82.8658 75.5546C82.6825 75.3257 82.4152 75.1502 82.0333 75.0739C75.6646 73.8304 69.3036 72.5868 62.9349 71.3433C59.6512 70.7024 56.3522 70.0234 55.5199 74.0135C54.3057 79.8651 53.9468 85.6404 52.1675 91.4158C50.2126 97.748 47.4407 103.745 44.0348 109.428C43.6683 110.039 43.7828 110.626 44.1188 111.053C39.0101 116.356 30.9461 118.187 23.4854 117.18C18.5752 116.516 13.5198 114.654 9.30456 112.076C6.98311 110.657 4.24928 108.734 3.37874 106.018C2.45473 103.134 3.74536 99.9224 7.281 100.739C11.6948 101.761 14.505 106.056 19.1861 106.606C23.5083 107.117 27.6166 104.912 30.4115 101.73C37.6355 93.4986 36.513 79.9643 36.3908 69.8098C36.2839 60.3038 36.1235 50.6528 38.3304 41.5664C38.9108 41.5358 39.4682 41.2154 39.6744 40.4906C40.797 36.6302 42.0341 32.6173 43.5538 28.7111C43.7294 28.4212 43.905 28.1389 44.0883 27.8566C44.3174 27.5057 44.3708 27.1624 44.3097 26.8496C47.3719 19.5713 51.5872 12.8423 58.2079 8.42497C62.8661 5.31987 68.5552 3.4202 74.1909 3.80929C80.3916 4.23652 83.7592 8.57755 89.2345 10.5001C94.5036 12.3464 100.834 9.9203 106.073 8.99716C113.167 7.74597 120.307 6.72365 127.47 5.93021C128.356 5.83103 129.241 5.74711 130.12 5.65555C130.425 6.20486 131.021 6.59395 131.807 6.39559C134.052 5.83866 136.32 5.3275 138.604 4.88501C148.119 4.1526 157.664 3.82454 167.217 3.85506C167.881 3.96187 168.546 4.06868 169.202 4.19838C182.482 6.74654 193.158 14.0172 200.542 25.3085C201.382 26.5902 202.153 27.8948 202.887 29.2146C201.787 29.7716 202.054 31.9459 203.673 32.1595C203.956 32.1977 204.238 32.2511 204.505 32.3121C215.364 54.6352 212.134 80.9027 205.437 104.279ZM244.146 19.7696C244.23 19.8688 244.306 19.968 244.39 20.0672C244.039 20.3037 243.802 20.708 243.833 21.2955C243.901 22.5543 243.97 23.8208 244.039 25.0796C243.863 24.2938 243.207 23.8513 242.55 23.7902C243 22.4246 243.535 21.0819 244.146 19.7696ZM240.992 30.771C241.145 34.1279 241.297 37.4923 241.443 40.8492C241.45 41.2307 241.465 41.6045 241.473 41.986C240.702 38.2858 240.549 34.5017 240.992 30.771ZM243.245 47.8376C242.871 46.9068 242.55 45.9608 242.26 45.0071C242.626 45.2436 243.084 45.3123 243.504 45.2284C243.695 46.7924 243.894 48.3564 244.085 49.9204C243.825 49.2414 243.527 48.5471 243.245 47.8376ZM247.483 52.5982C247.361 51.6293 247.239 50.6604 247.124 49.6839C247.926 50.1874 249.109 50.0272 249.384 48.8599C250.889 42.4513 251.026 35.9665 249.781 29.6495C250.27 31.0685 250.667 32.5257 250.95 34.0287C251.546 37.1261 252.431 51.1716 247.483 52.5982Z" fill="#485A83"/>
<path d="M52.8625 37.5L53.901 37.1948C50.9152 38.3621 51.7018 43.7178 54.8632 44.2519C58.0247 44.7859 60.6592 40.5822 59.0556 37.8051C57.3374 36.4166 54.7105 36.2869 52.8625 37.5Z" fill="#485A83"/>
</g>
</svg>
