<svg width="34" height="34" viewBox="0 0 34 34" fill="none" xmlns="http://www.w3.org/2000/svg">
<path d="M24.0837 29.75V26.9167C24.0837 25.4138 23.4866 23.9724 22.4239 22.9097C21.3612 21.847 19.9199 21.25 18.417 21.25H7.08366C5.58076 21.25 4.13943 21.847 3.07672 22.9097C2.01401 23.9724 1.41699 25.4138 1.41699 26.9167V29.75" stroke="#2DC8A8" stroke-width="2" stroke-linecap="round" stroke-linejoin="round"/>
<path d="M12.7507 15.5833C15.8803 15.5833 18.4173 13.0463 18.4173 9.91667C18.4173 6.78705 15.8803 4.25 12.7507 4.25C9.62104 4.25 7.08398 6.78705 7.08398 9.91667C7.08398 13.0463 9.62104 15.5833 12.7507 15.5833Z" stroke="#2DC8A8" stroke-width="2" stroke-linecap="round" stroke-linejoin="round"/>
<path d="M32.584 29.75V26.9167C32.583 25.6612 32.1652 24.4415 31.3959 23.4492C30.6267 22.4568 29.5497 21.7481 28.334 21.4342" stroke="#2DC8A8" stroke-width="2" stroke-linecap="round" stroke-linejoin="round"/>
<path d="M22.667 4.4342C23.8859 4.7463 24.9663 5.4552 25.7378 6.44914C26.5093 7.44309 26.9281 8.66555 26.9281 9.92379C26.9281 11.182 26.5093 12.4045 25.7378 13.3984C24.9663 14.3924 23.8859 15.1013 22.667 15.4134" stroke="#2DC8A8" stroke-width="2" stroke-linecap="round" stroke-linejoin="round"/>
</svg>
