<svg width="233" height="166" viewBox="0 0 233 166" fill="none" xmlns="http://www.w3.org/2000/svg">
<path d="M35.781 133.815C34.6689 128.796 27.0608 122.311 27.0608 122.311L12.9327 134.917C19.996 123.895 20.2065 97.681 20.2065 97.681L37.4388 100.202C40.1343 112.744 35.781 133.815 35.781 133.815Z" fill="#FE8083"/>
<path opacity="0.3" d="M36.5853 134.09C35.51 129.232 28.1466 122.952 28.1466 122.952L14.4678 135.146C14.8277 134.796 26.4372 123.691 27.7537 121.571C27.7504 121.559 36.3545 126.354 36.5853 134.09Z" fill="#FE8083"/>
<path d="M84.1332 96.2725L88.7912 129.928C82.6033 127.686 75.0802 117.408 75.0802 117.408L58.2756 136.154C58.2135 136.233 58.1748 136.276 58.1748 136.276C63.3731 122.852 58.3509 99.0406 58.3509 99.0406C66.3548 98.905 84.1332 96.2725 84.1332 96.2725Z" fill="#1D85E8"/>
<path opacity="0.3" d="M89.0914 130.342C83.1056 128.177 75.8305 118.264 75.8305 118.264L59.5678 136.323C60.8541 134.805 74.7111 118.46 76.0332 116.037C76.0332 116.037 85.0316 128.736 89.0914 130.342Z" fill="url(#paint0_linear_758_1)"/>
<path d="M122.303 83.3169L131.584 110.147C127.726 109.861 117.088 101.044 117.088 101.044C117.332 104.847 111.128 119.425 110.749 120.334C110.74 120.365 110.729 120.384 110.729 120.384C110.729 120.384 98.5607 90.5444 99.5312 90.4956C106.906 90.145 122.303 83.3169 122.303 83.3169Z" fill="#FFC258"/>
<path opacity="0.3" d="M131.605 114.604C127.831 114.324 117.426 105.678 117.426 105.678C117.665 109.407 111.594 123.697 111.224 124.587C111.563 123.638 117.326 107.608 116.102 102.973C116.098 102.96 129.594 112.833 131.605 114.604Z" fill="#FFC258"/>
<path d="M180.469 86.4283C175.113 88.4446 162.064 81.119 162.064 81.119C160.439 87.2004 163.744 96.8008 163.744 96.8008C157.043 93.3424 140.14 75.3749 140.14 75.3749C158.426 66.5947 167.123 60.3017 167.123 60.3017L180.469 86.4283Z" fill="#1D85E8"/>
<path opacity="0.3" d="M183.456 90.6019C178.107 92.6156 165.075 85.2989 165.075 85.2989C163.451 91.3727 166.752 100.961 166.752 100.961C166.752 100.961 161.447 91.4059 163.981 83.301C163.981 83.301 181.101 89.411 183.456 90.6019Z" fill="url(#paint1_linear_758_1)"/>
<path d="M213.731 60.0547C210.711 60.7059 198.962 51.6528 198.962 51.6528C197.901 55.0897 199.345 71.6639 199.345 71.6639C193.041 70.7566 179.058 57.108 179.058 57.108C193.788 46.8171 203.188 36.2008 203.188 36.2008C206.128 43.6946 213.731 60.0547 213.731 60.0547Z" fill="#FFC258"/>
<path opacity="0.3" d="M213.697 61.0427C210.637 61.7012 198.731 52.5474 198.731 52.5474C197.656 56.0226 199.12 72.7819 199.12 72.7819C199.12 72.7819 194.641 60.9973 198.174 50.9893C198.159 50.9948 211.369 59.4647 213.697 61.0427Z" fill="#FFC258"/>
<path d="M215.995 22.9739C213.093 27.0287 207.245 34.2664 197.36 42.8662C183.286 55.0993 157.911 72.6654 116.932 86.8473C75.9672 101.025 42.5153 99.1841 21.6543 95.1526C16.6134 94.1768 12.0623 93.0261 8.00549 91.8273L6.13184 92.4475C9.77756 93.5513 13.8645 94.6375 18.3601 95.5884C19.2798 95.7974 20.2244 95.9854 21.1832 96.1686C25.1536 96.9467 29.5913 97.6344 34.4418 98.1468C41.0099 98.8609 48.3615 99.2386 56.3887 99.0589C63.824 98.9082 71.8495 98.2797 80.3814 96.983C86.0841 96.135 92.0238 94.9774 98.1701 93.4563C104.32 91.9469 110.682 90.0973 117.235 87.8254C117.936 87.5804 118.637 87.3355 119.324 87.0952C128.735 83.7615 137.314 80.2541 145.12 76.6814L145.134 76.6768C154.66 72.3167 163.033 67.8503 170.326 63.4846C174.865 60.7754 178.983 58.1027 182.708 55.509C188.922 51.1923 194.065 47.1149 198.212 43.4955C200.764 41.2771 203.049 39.1472 205.075 37.1413C211.676 30.6172 215.69 25.3601 217.714 22.405L215.995 22.9739V22.9739Z" fill="#092C4C"/>
<defs>
<linearGradient id="paint0_linear_758_1" x1="58.8814" y1="134.767" x2="85.7557" y2="122.827" gradientUnits="userSpaceOnUse">
<stop stop-color="#E7510D"/>
<stop offset="0.5743" stop-color="#DC430C"/>
<stop offset="1" stop-color="#D1360C"/>
</linearGradient>
<linearGradient id="paint1_linear_758_1" x1="163.236" y1="93.1769" x2="181.104" y2="85.2699" gradientUnits="userSpaceOnUse">
<stop stop-color="#E7510D"/>
<stop offset="0.5743" stop-color="#DC430C"/>
<stop offset="1" stop-color="#D1360C"/>
</linearGradient>
</defs>
</svg>
