<svg width="1600" height="286" viewBox="0 0 1600 286" fill="none" xmlns="http://www.w3.org/2000/svg">
<path d="M306.329 237.576H228.124V221.892C228.124 178.485 262.81 143.309 305.555 143.309H306.329V237.576V237.576Z" fill="#86E286"/>
<path d="M306.329 237.576H384.566V221.892C384.566 178.485 349.88 143.309 307.135 143.309H306.361V237.576H306.329Z" fill="#75D875"/>
<path d="M366.321 208.658H351.138L360.26 111.357H366.321V208.658Z" fill="#D8AF8B"/>
<path d="M366.32 208.658H381.503L372.413 111.357H366.32V208.658Z" fill="#CEA282"/>
<path d="M366.383 134.174H365.899C340.143 134.174 319.286 113.294 319.286 87.508V86.4753C319.286 51.847 333.309 32.3545 358.195 8.27933L366.383 0.340332V134.174Z" fill="#86E286"/>
<path d="M366.384 134.174H366.867C392.624 134.174 413.481 113.294 413.481 87.508V86.4753C413.481 51.847 399.458 32.3545 374.572 8.27933L366.384 0.340332V134.174Z" fill="#75D875"/>
<path d="M510.028 189.36H499.229L505.708 120.2H510.028V189.36Z" fill="#D8AF8B"/>
<path d="M510.027 189.36H520.826L514.347 120.2H510.027V189.36Z" fill="#CEA282"/>
<path d="M509.187 136.402H508.865C490.555 136.402 475.727 121.556 475.727 103.226V102.516C475.727 77.8918 485.72 64.047 503.385 46.9104L509.22 41.2627V136.402H509.187Z" fill="#86E286"/>
<path d="M509.187 136.401H509.51C527.82 136.401 542.648 121.556 542.648 103.225V102.515C542.648 77.8913 532.655 64.0465 514.99 46.9099L509.155 41.2622V136.401H509.187Z" fill="#75D875"/>
<path d="M440.462 277.174H343.271V257.939C343.271 204.722 386.37 161.606 439.495 161.606H440.462V277.174Z" fill="#86E286"/>
<path d="M440.463 277.174H537.687V257.939C537.687 204.722 494.587 161.606 441.462 161.606H440.495V277.174H440.463Z" fill="#75D875"/>
<path d="M599.902 223.246H517.249V206.917C517.249 161.671 553.869 125.009 599.064 125.009H599.902V223.246V223.246Z" fill="#86E286"/>
<path d="M599.901 223.246H682.554V206.917C682.554 161.671 645.934 125.009 600.739 125.009H599.901V223.246V223.246Z" fill="#75D875"/>
<path d="M892.735 216.824H835.322V205.465C835.322 174.031 860.757 148.568 892.154 148.568H892.735V216.824Z" fill="#86E286"/>
<path d="M892.733 216.824H950.146V205.465C950.146 174.031 924.711 148.568 893.314 148.568H892.733V216.824Z" fill="#75D875"/>
<path d="M762.532 227.506H665.341V208.272C665.341 155.055 708.44 111.939 761.565 111.939H762.532V227.506Z" fill="#86E286"/>
<path d="M762.533 227.506H859.757V208.272C859.757 155.054 816.658 111.938 763.533 111.938H762.565V227.506H762.533Z" fill="#75D875"/>
<path d="M1574.4 205.754H1491.74V189.424C1491.74 144.179 1528.36 107.517 1573.56 107.517H1574.4V205.754Z" fill="#86E286"/>
<path d="M1574.4 205.754H1657.05V189.424C1657.05 144.179 1620.43 107.517 1575.23 107.517H1574.4V205.754Z" fill="#75D875"/>
<path d="M1254.07 193.298H1196.66V181.938C1196.66 150.504 1222.09 125.042 1253.49 125.042H1254.07V193.298Z" fill="#86E286"/>
<path d="M1254.07 193.298H1311.48V181.938C1311.48 150.504 1286.04 125.042 1254.65 125.042H1254.07V193.298Z" fill="#75D875"/>
<path d="M1404.09 196.487H1306.87V177.252C1306.87 124.035 1349.97 80.9194 1403.09 80.9194H1404.06V196.487H1404.09Z" fill="#86E286"/>
<path d="M1404.09 196.487H1501.28V177.252C1501.28 124.035 1458.19 80.9194 1405.06 80.9194H1404.09V196.487V196.487Z" fill="#75D875"/>
<path d="M0 194.2C0 194.2 355.036 181.001 451.274 181.001C547.512 181.001 776.062 203.301 899.363 203.301C1022.66 203.301 1197.09 177.935 1323.39 177.935C1449.7 177.935 1600 205.915 1600 205.915V394.16H0V194.2Z" fill="#45B554"/>
<g opacity="0.39">
<path opacity="0.39" d="M515.766 297.44C515.766 309.026 455.646 318.417 381.503 318.417C307.36 318.417 247.24 309.026 247.24 297.44C247.24 285.855 307.36 276.463 381.503 276.463C455.646 276.463 515.766 285.887 515.766 297.44Z" fill="#86E286"/>
</g>
<g opacity="0.39">
<path opacity="0.39" d="M1161.26 244.804C1161.26 256.389 1077.19 265.781 973.485 265.781C869.781 265.781 785.71 256.389 785.71 244.804C785.71 233.218 869.781 223.827 973.485 223.827C1077.19 223.827 1161.26 233.218 1161.26 244.804Z" fill="#86E286"/>
</g>
</svg>
