<svg width="88" height="88" viewBox="0 0 88 88" fill="none" xmlns="http://www.w3.org/2000/svg">
<path d="M71.3028 50.479L76.0683 46.8339C79.0637 44.5448 81.1106 41.2318 81.8178 37.5282C82.5249 33.8245 81.8427 29.9901 79.9015 26.758L78.6526 24.6789C77.2267 22.3075 76.6357 19.5268 76.9739 16.7802C77.3121 14.0337 78.56 11.4796 80.5186 9.52517L87.521 2.5209C87.6609 2.38565 87.7726 2.22385 87.8494 2.04497C87.9263 1.86608 87.9667 1.67368 87.9684 1.47899C87.9701 1.2843 87.933 1.09123 87.8593 0.91103C87.7856 0.730834 87.6768 0.567124 87.5391 0.429454C87.4015 0.291784 87.2378 0.182911 87.0577 0.109186C86.8775 0.0354622 86.6845 -0.00163642 86.4899 5.53607e-05C86.2952 0.00174714 86.1029 0.0421955 85.924 0.11904C85.7452 0.195885 85.5835 0.307587 85.4482 0.447628L78.4459 7.4519C76.0244 9.86865 74.4816 13.0268 74.0635 16.4227C73.6453 19.8186 74.3758 23.2568 76.1386 26.1891L77.3875 28.2682C78.9578 30.8821 79.5097 33.9832 78.9377 36.9785C78.3658 39.9738 76.7101 42.6531 74.2873 44.504L69.5218 48.1491C66.2228 50.6928 63.6976 54.1056 62.2293 58.0046C60.7609 61.9037 60.4076 66.1348 61.2089 70.2235C61.5494 71.9226 61.5302 73.6743 61.1526 75.3656C60.775 77.0569 60.0473 78.6503 59.0165 80.0431C57.9856 81.4359 56.6745 82.5972 55.1676 83.4523C53.6606 84.3073 51.9913 84.8371 50.2672 85.0074C48.5431 85.1777 46.8025 84.9848 45.1575 84.4412C43.5124 83.8975 41.9995 83.0152 40.7162 81.851C39.4329 80.6868 38.4077 79.2666 37.7066 77.6819C37.0055 76.0971 36.6441 74.3831 36.6457 72.6501V69.8378L43.3197 73.1838C43.5438 73.2958 43.7928 73.3485 44.0431 73.3369C44.2933 73.3252 44.5364 73.2496 44.7491 73.1173C44.9619 72.9849 45.1371 72.8003 45.2582 72.5809C45.3793 72.3615 45.4422 72.1148 45.4408 71.8642V63.0667C45.4422 62.8161 45.3793 62.5694 45.2582 62.35C45.1371 62.1306 44.9619 61.946 44.7491 61.8136C44.5364 61.6813 44.2933 61.6057 44.0431 61.594C43.7928 61.5824 43.5438 61.6351 43.3197 61.7471L38.7213 64.0476L59.7709 25.6539L61.8231 31.8004C61.9021 32.0375 62.0405 32.2505 62.2249 32.4191C62.4094 32.5877 62.6339 32.7063 62.8771 32.7637C62.9872 32.7887 63.0998 32.8015 63.2128 32.8019C63.6015 32.8018 63.9743 32.6473 64.2491 32.3723L70.4687 26.151C70.6451 25.9743 70.7735 25.7555 70.8417 25.5153C70.9099 25.2751 70.9157 25.0215 70.8584 24.7784C70.8012 24.5354 70.6828 24.311 70.5146 24.1265C70.3463 23.942 70.1337 23.8036 69.897 23.7243L60.8205 20.7068L36.1121 0.353789C36.0425 0.305601 35.969 0.263416 35.8922 0.227691C35.8335 0.189532 35.7722 0.155247 35.709 0.125054C35.3688 -0.00835437 34.9908 -0.00835437 34.6507 0.125054C34.5874 0.155247 34.5262 0.189532 34.4674 0.227691C34.3907 0.263416 34.3171 0.305601 34.2475 0.353789L9.32809 20.8813C9.31132 20.8988 9.29565 20.9175 9.28118 20.937C9.25773 20.9575 9.23135 20.9722 9.21082 20.9942L1.00206 23.7317C0.765227 23.8108 0.55252 23.9491 0.38411 24.1335C0.2157 24.3179 0.0971701 24.5422 0.0397605 24.7853C-0.017649 25.0284 -0.0120351 25.2821 0.0560696 25.5223C0.124174 25.7626 0.252513 25.9815 0.428914 26.1583L6.64852 32.3796C6.92335 32.6546 7.29614 32.8091 7.68487 32.8092C7.7983 32.8088 7.91135 32.796 8.02202 32.7711C8.26495 32.7135 8.48913 32.5947 8.67332 32.4261C8.85751 32.2575 8.9956 32.0447 9.0745 31.8078L10.9215 26.2639L20.2282 43.243C20.3181 43.4163 20.4418 43.5698 20.5919 43.6946C20.7419 43.8194 20.9154 43.913 21.1021 43.9698C21.2889 44.0267 21.4851 44.0457 21.6792 44.0257C21.8733 44.0057 22.0615 43.9471 22.2328 43.8533C22.404 43.7596 22.5547 43.6326 22.6762 43.4798C22.7977 43.327 22.8875 43.1515 22.9402 42.9635C22.993 42.7756 23.0077 42.579 22.9835 42.3853C22.9593 42.1915 22.8967 42.0046 22.7993 41.8354L12.7362 23.478H33.714V61.7471L25.212 46.2342C25.1221 46.0609 24.9984 45.9074 24.8483 45.7826C24.6983 45.6578 24.5248 45.5642 24.3381 45.5073C24.1513 45.4505 23.9552 45.4315 23.761 45.4515C23.5669 45.4715 23.3787 45.5301 23.2074 45.6239C23.0362 45.7176 22.8855 45.8446 22.764 45.9974C22.6425 46.1502 22.5527 46.3257 22.5 46.5136C22.4472 46.7016 22.4325 46.8982 22.4567 47.0919C22.4809 47.2856 22.5435 47.4726 22.6409 47.6418L31.6383 64.055L27.04 61.7544C26.8164 61.6427 26.568 61.59 26.3184 61.6013C26.0688 61.6126 25.8262 61.6875 25.6136 61.819C25.4011 61.9505 25.2257 62.1342 25.1041 62.3525C24.9825 62.5709 24.9188 62.8167 24.9189 63.0667V71.8642C24.9175 72.1148 24.9804 72.3615 25.1014 72.5809C25.2225 72.8003 25.3978 72.9849 25.6105 73.1173C25.8232 73.2496 26.0663 73.3252 26.3166 73.3369C26.5668 73.3485 26.8159 73.2958 27.04 73.1838L33.714 69.8378V72.6501C33.7124 74.7926 34.1595 76.9116 35.0266 78.8707C35.8936 80.8298 37.1614 82.5855 38.7481 84.0246C40.3349 85.4637 42.2055 86.5543 44.2393 87.2262C46.2732 87.8981 48.4252 88.1364 50.5567 87.9256C52.6882 87.7148 54.7519 87.0598 56.6149 86.0026C58.4779 84.9454 60.0988 83.5095 61.3731 81.7875C62.6475 80.0655 63.5471 78.0955 64.0139 76.0045C64.4807 73.9135 64.5044 71.7479 64.0835 69.6472C63.3877 66.0967 63.6945 62.4226 64.9697 59.0368C66.2449 55.6511 68.4379 52.6876 71.3028 50.479ZM66.7147 25.7639L63.8504 28.6289L62.4168 24.3299L66.7147 25.7639ZM7.0443 28.6289L4.17856 25.7639L8.47643 24.3299L7.0443 28.6289ZM42.5091 69.4918L38.4575 67.4654L42.5091 65.4391V69.4918ZM14.3457 20.5455L33.714 4.59125V20.5455H14.3457ZM52.77 20.5455H36.6457V4.59125L58.2303 22.371L36.6457 61.7471V23.478H52.77C53.1588 23.478 53.5316 23.3235 53.8065 23.0485C54.0814 22.7736 54.2359 22.4006 54.2359 22.0117C54.2359 21.6229 54.0814 21.2499 53.8065 20.9749C53.5316 20.7 53.1588 20.5455 52.77 20.5455ZM27.8506 69.4918V65.4391L31.9022 67.4654L27.8506 69.4918Z" fill="#2DC8A8"/>
<path d="M19.0561 76.2631C18.598 76.2629 18.1416 76.3191 17.6972 76.4303C17.0351 75.4872 16.1589 74.7147 15.1404 74.1761C14.122 73.6374 12.9903 73.3481 11.8384 73.3318C10.6864 73.3155 9.54705 73.5727 8.51375 74.0822C7.48046 74.5918 6.5827 75.3392 5.89418 76.2631H5.8634C4.30833 76.2631 2.81695 76.881 1.71735 77.9809C0.61775 79.0808 0 80.5726 0 82.1281C0 83.6836 0.61775 85.1754 1.71735 86.2753C2.81695 87.3752 4.30833 87.9931 5.8634 87.9931C6.82542 87.9939 7.77216 87.7524 8.61627 87.2908C9.93546 87.9176 11.4131 88.1318 12.8559 87.9053C14.2987 87.6787 15.6396 87.022 16.7034 86.021C16.8486 85.8911 16.9665 85.7335 17.0502 85.5575C17.1338 85.3815 17.1816 85.1905 17.1906 84.9958C17.1996 84.8011 17.1698 84.6066 17.1027 84.4236C17.0357 84.2406 16.9329 84.0728 16.8003 83.93C16.6676 83.7872 16.5079 83.6723 16.3303 83.592C16.1528 83.5117 15.961 83.4676 15.7663 83.4622C15.5715 83.4569 15.3776 83.4905 15.196 83.561C15.0143 83.6316 14.8485 83.7376 14.7083 83.8729C13.992 84.5305 13.0791 84.9337 12.1107 85.0204C11.1423 85.107 10.1723 84.8723 9.35066 84.3524C9.095 84.187 8.79419 84.1053 8.49 84.1187C8.1858 84.1321 7.89333 84.2399 7.6532 84.4272C7.14474 84.8336 6.51422 85.0567 5.8634 85.0606C5.08587 85.0606 4.34018 84.7516 3.79038 84.2017C3.24058 83.6518 2.9317 82.9059 2.9317 82.1281C2.9317 81.3504 3.24058 80.6045 3.79038 80.0545C4.34018 79.5046 5.08587 79.1956 5.8634 79.1956C6.0366 79.1994 6.20918 79.2176 6.37938 79.2499C6.67893 79.3036 6.98776 79.2627 7.26304 79.1329C7.53831 79.0031 7.76638 78.7908 7.91559 78.5255C8.30669 77.8139 8.88849 77.2256 9.59556 76.8266C10.3026 76.4276 11.107 76.2338 11.9181 76.2671C12.7293 76.3003 13.5151 76.5592 14.1872 77.0146C14.8593 77.47 15.3911 78.104 15.7227 78.8452C15.8053 79.0257 15.9237 79.1876 16.0707 79.321C16.2177 79.4544 16.3902 79.5566 16.5779 79.6213C16.7655 79.686 16.9643 79.7119 17.1623 79.6975C17.3602 79.683 17.5532 79.6285 17.7295 79.5373C18.09 79.3523 18.485 79.2444 18.8895 79.2204C19.2939 79.1963 19.6989 79.2566 20.0789 79.3974C20.4588 79.5383 20.8053 79.7566 21.0963 80.0385C21.3874 80.3204 21.6167 80.6598 21.7697 81.0351C21.9226 81.4103 21.9959 81.8133 21.9849 82.2185C21.9739 82.6236 21.8788 83.022 21.7056 83.3884C21.5325 83.7548 21.285 84.0812 20.9791 84.3468C20.6731 84.6125 20.3152 84.8116 19.9282 84.9316C19.5637 85.0522 19.2611 85.3111 19.0853 85.6526C18.9096 85.9941 18.8748 86.3909 18.9885 86.7577C19.1022 87.1245 19.3552 87.4321 19.6932 87.6143C20.0312 87.7966 20.4272 87.8388 20.796 87.7321C22.1379 87.3177 23.2866 86.4353 24.033 85.2454C24.7795 84.0554 25.0741 82.637 24.8634 81.2482C24.6527 79.8593 23.9506 78.5922 22.8849 77.6773C21.8191 76.7625 20.4605 76.2606 19.0561 76.2631Z" fill="#2DC8A8"/>
<path d="M82.4771 61.7472C82.3305 61.7076 82.184 61.6768 82.0271 61.6519C81.5251 60.7516 80.7929 60.0009 79.9055 59.4766C79.0182 58.9523 78.0074 58.6733 76.9768 58.668C75.9462 58.6628 74.9328 58.9316 74.0401 59.4469C73.1475 59.9621 72.4078 60.7054 71.8966 61.6006H71.8263C70.66 61.6006 69.5414 62.064 68.7167 62.8889C67.892 63.7139 67.4287 64.8327 67.4287 65.9993C67.4287 67.1659 67.892 68.2848 68.7167 69.1097C69.5414 69.9346 70.66 70.3981 71.8263 70.3981C72.669 70.3981 73.4935 70.1531 74.1995 69.6928C74.9781 70.1149 75.8437 70.3515 76.7288 70.384C77.6139 70.4166 78.4945 70.2443 79.3021 69.8805C80.2716 70.3964 81.3994 70.5298 82.4625 70.2544C82.8182 70.3493 83.1848 70.3976 83.5531 70.3981C84.1805 70.4051 84.8021 70.2777 85.3762 70.0245C85.9504 69.7712 86.4637 69.3981 86.8817 68.93C87.2997 68.4619 87.6127 67.9098 87.7997 67.3107C87.9867 66.7116 88.0434 66.0794 87.966 65.4566C87.8885 64.8337 87.6787 64.2347 87.3506 63.6997C87.0225 63.1647 86.5838 62.7061 86.0639 62.3547C85.544 62.0034 84.9549 61.7674 84.3363 61.6626C83.7176 61.5578 83.0837 61.5867 82.4771 61.7472ZM83.0151 67.3527C82.8395 67.2816 82.6519 67.2453 82.4625 67.2456C82.2719 67.2456 82.0831 67.2829 81.9069 67.3556C81.6494 67.4495 81.3716 67.4729 81.102 67.4234C80.8325 67.3739 80.581 67.2533 80.3736 67.0741C80.1297 66.8515 79.8178 66.7178 79.4884 66.6946C79.1591 66.6715 78.8316 66.7602 78.5589 66.9465C78.0903 67.2791 77.5312 67.4602 76.9567 67.4656C76.2536 67.4608 75.5763 67.2002 75.0511 66.7325C74.9039 66.6023 74.7315 66.504 74.5447 66.4434C74.3578 66.3829 74.1604 66.3615 73.9649 66.3805C73.7697 66.3968 73.5797 66.4523 73.4064 66.5438C73.2331 66.6352 73.0801 66.7608 72.9564 66.9128C72.7893 67.1293 72.5655 67.2953 72.3098 67.3922C72.0541 67.4891 71.7766 67.5133 71.508 67.4619C71.2394 67.4106 70.9903 67.2858 70.7884 67.1014C70.5864 66.917 70.4396 66.6802 70.3641 66.4173C70.2886 66.1544 70.2874 65.8757 70.3607 65.6122C70.434 65.3487 70.5789 65.1107 70.7793 64.9246C70.9797 64.7385 71.2277 64.6116 71.4959 64.558C71.764 64.5044 72.0418 64.5263 72.2983 64.6211C72.4841 64.6853 72.6809 64.7114 72.877 64.698C73.0731 64.6846 73.2645 64.6319 73.4398 64.543C73.6152 64.454 73.7708 64.3308 73.8975 64.1804C74.0243 64.0301 74.1195 63.8559 74.1775 63.668C74.3521 63.0784 74.7102 62.5598 75.1996 62.1876C75.6891 61.8155 76.2844 61.6091 76.8991 61.5984C77.5138 61.5878 78.1159 61.7735 78.6179 62.1285C79.1199 62.4836 79.4956 62.9895 79.6905 63.5727C79.8293 63.8892 80.0656 64.1531 80.3649 64.3259C80.6642 64.4987 81.0108 64.5712 81.3543 64.5331C81.548 64.5335 81.7397 64.5719 81.9186 64.646C82.0952 64.7193 82.2845 64.7571 82.4757 64.7571C82.6668 64.7571 82.8561 64.7193 83.0327 64.646C83.1972 64.575 83.3739 64.5366 83.5531 64.5331C83.9418 64.5331 84.3147 64.6876 84.5896 64.9625C84.8645 65.2375 85.0189 65.6105 85.0189 65.9993C85.0234 66.2396 84.9676 66.4773 84.8568 66.6905C84.7461 66.9038 84.5837 67.086 84.3846 67.2205C84.1854 67.355 83.9558 67.4376 83.7166 67.4606C83.4774 67.4837 83.2363 67.4466 83.0151 67.3527Z" fill="#2DC8A8"/>
</svg>
