<svg width="40" height="40" viewBox="0 0 40 40" fill="none" xmlns="http://www.w3.org/2000/svg">
<path d="M21.6665 3.41676V6.75009C28.9832 7.65009 34.1665 14.3001 33.2665 21.6168C32.4998 27.6834 27.7332 32.5001 21.6665 33.2167V36.5501C30.8332 35.6334 37.4998 27.5001 36.5832 18.3334C35.8332 10.4168 29.5498 4.16676 21.6665 3.38342V3.41676ZM9.44984 32.9001C11.9745 35.0046 15.0653 36.3151 18.3332 36.6667V33.3334C15.9622 33.0268 13.7172 32.0885 11.8332 30.6168L9.44984 32.9001ZM11.8332 9.56675C13.6998 8.06675 15.9498 7.10009 18.3332 6.76676V3.43342C15.0832 3.75009 11.9832 5.00009 9.44984 7.10009L11.8332 9.56675ZM9.48317 11.8334L7.09984 9.45009C5.01593 11.979 3.73351 15.0719 3.4165 18.3334H6.74984C7.0665 15.9668 7.99984 13.7168 9.48317 11.8334ZM6.7665 21.6668H3.43317C3.7665 24.9334 5.04984 28.0167 7.1165 30.5501L9.48317 28.1667C8.01139 26.2827 7.07309 24.0378 6.7665 21.6668ZM16.6665 27.5001L26.6665 20.0001L16.6665 12.5001V27.5001Z" fill="white"/>
</svg>
