<svg width="88" height="88" viewBox="0 0 88 88" fill="none" xmlns="http://www.w3.org/2000/svg">
<path d="M20.1162 19.0448V2.75C20.1162 2.4765 20.0076 2.21419 19.8142 2.0208C19.6208 1.8274 19.3585 1.71875 19.085 1.71875C18.8115 1.71875 18.5492 1.8274 18.3558 2.0208C18.1624 2.21419 18.0537 2.4765 18.0537 2.75V19.0448C18.0537 19.3183 18.1624 19.5806 18.3558 19.774C18.5492 19.9674 18.8115 20.076 19.085 20.076C19.3585 20.076 19.6208 19.9674 19.8142 19.774C20.0076 19.5806 20.1162 19.3183 20.1162 19.0448Z" fill="#1D85E8" stroke="#1D85E8"/>
<path d="M26.335 19.0448V2.75C26.335 2.4765 26.2263 2.21419 26.0329 2.0208C25.8395 1.8274 25.5772 1.71875 25.3037 1.71875C25.0302 1.71875 24.7679 1.8274 24.5745 2.0208C24.3811 2.21419 24.2725 2.4765 24.2725 2.75V19.0448C24.2725 19.3183 24.3811 19.5806 24.5745 19.774C24.7679 19.9674 25.0302 20.076 25.3037 20.076C25.5772 20.076 25.8395 19.9674 26.0329 19.774C26.2263 19.5806 26.335 19.3183 26.335 19.0448Z" fill="#1D85E8" stroke="#1D85E8"/>
<path d="M77.3448 27.9022C78.7425 25.0927 79.4804 21.7864 79.4804 18.3016C79.4804 13.9422 78.3127 9.83022 76.1924 6.72358C73.9897 3.49611 71.0216 1.71875 67.8348 1.71875C63.8526 1.71875 60.1726 4.59336 58.0453 9.29242C53.595 7.43983 48.8206 6.49117 44.0001 6.50169C39.9069 6.50169 36.2418 7.08159 32.5913 8.31445V2.75C32.5913 2.4765 32.4827 2.21419 32.2893 2.0208C32.0959 1.8274 31.8336 1.71875 31.5601 1.71875C31.2866 1.71875 31.0243 1.8274 30.8309 2.0208C30.6375 2.21419 30.5288 2.4765 30.5288 2.75V16.8039C30.5288 19.0134 29.6511 21.1324 28.0888 22.6947C26.5264 24.2571 24.4074 25.1348 22.1979 25.1348C19.9884 25.1348 17.8694 24.2571 16.307 22.6947C14.7447 21.1324 13.8669 19.0134 13.8669 16.8039V2.75C13.8669 2.4765 13.7583 2.21419 13.5649 2.0208C13.3715 1.8274 13.1092 1.71875 12.8357 1.71875C12.5622 1.71875 12.2999 1.8274 12.1065 2.0208C11.9131 2.21419 11.8044 2.4765 11.8044 2.75V16.8039C11.8021 18.8916 12.4305 20.9314 13.6072 22.6559C8.94475 29.5615 6.76308 37.8447 7.41894 46.151C8.07479 54.4574 11.5294 62.2956 17.2178 68.3839V80.8589C17.2178 82.1362 17.7252 83.3611 18.6283 84.2642C19.5314 85.1673 20.7564 85.6747 22.0336 85.6747C23.3108 85.6747 24.5357 85.1673 25.4388 84.2642C26.342 83.3611 26.8493 82.1362 26.8493 80.8589V75.7625C32.456 78.7273 38.7356 80.1877 45.0751 80.0012C51.4147 79.8147 57.5976 77.9877 63.0203 74.6984V81.4574C63.0165 82.0922 63.1382 82.7215 63.3785 83.309C63.6188 83.8966 63.9729 84.4308 64.4204 84.881C64.8679 85.3312 65.4001 85.6885 65.9862 85.9323C66.5723 86.1761 67.2008 86.3016 67.8356 86.3016C68.4704 86.3016 69.0989 86.1761 69.685 85.9323C70.2711 85.6885 70.8032 85.3312 71.2508 84.881C71.6983 84.4308 72.0524 83.8966 72.2927 83.309C72.533 82.7215 72.6547 82.0922 72.6509 81.4574V66.2234C77.8542 59.6998 80.6901 51.6037 80.6947 43.259C80.7078 37.9574 79.5646 32.7167 77.3448 27.9022ZM67.8348 3.78125C73.1189 3.78125 77.4179 10.2953 77.4179 18.3016C77.4179 21.6411 76.6817 24.7845 75.2892 27.3922C73.4455 30.843 70.7283 32.8219 67.8348 32.8219C62.5514 32.8219 58.2531 26.3079 58.2531 18.3016C58.2403 15.8166 58.6814 13.3502 59.5547 11.0237C61.2805 6.55634 64.4532 3.78125 67.8348 3.78125ZM9.36724 43.2589C9.35166 36.5244 11.3074 29.9326 14.9932 24.2962C16.6684 25.9194 18.8427 26.9292 21.1635 27.1621L21.0869 55.0803H18.2491C17.9755 55.0803 17.7132 55.1889 17.5198 55.3823C17.3265 55.5757 17.2178 55.838 17.2178 56.1115V65.258C12.1266 59.0586 9.35103 51.2809 9.36724 43.2589ZM24.7868 80.8589C24.7868 81.5891 24.4968 82.2895 23.9804 82.8058C23.4641 83.3221 22.7638 83.6122 22.0336 83.6122C21.3034 83.6122 20.6031 83.3221 20.0867 82.8058C19.5704 82.2895 19.2803 81.5891 19.2803 80.8589V57.1428H24.7868V80.8589ZM44.0001 77.9553C37.9849 77.9585 32.0731 76.3915 26.8493 73.4092V56.1115C26.8493 55.838 26.7407 55.5757 26.5473 55.3823C26.3539 55.1889 26.0916 55.0803 25.8181 55.0803H23.1497L23.2264 27.1626C25.7929 26.9019 28.1714 25.6982 29.9014 23.7846C31.6314 21.871 32.5899 19.3836 32.5913 16.8039V10.498C36.2456 9.18053 39.8922 8.56419 44.0001 8.56419C48.5648 8.55381 53.0856 9.45485 57.2975 11.2145C56.5573 13.5038 56.1837 15.8957 56.1906 18.3016C56.1906 22.6609 57.3582 26.7726 59.4784 29.8794C61.4797 32.8109 64.1117 34.5469 66.9657 34.8391L66.8897 59.2378H64.0515C63.778 59.2378 63.5157 59.3464 63.3223 59.5398C63.1289 59.7332 63.0203 59.9955 63.0203 60.269V72.2571C57.378 75.9845 50.7624 77.9665 44.0001 77.9553ZM70.5891 81.4581C70.592 81.8214 70.5229 82.1817 70.3858 82.5182C70.2488 82.8548 70.0465 83.1608 69.7906 83.4187C69.5347 83.6767 69.2302 83.8814 68.8948 84.0211C68.5594 84.1608 68.1996 84.2328 67.8363 84.2328C67.4729 84.2328 67.1132 84.1608 66.7778 84.0211C66.4423 83.8814 66.1379 83.6767 65.882 83.4187C65.6261 83.1608 65.4238 82.8548 65.2867 82.5182C65.1497 82.1817 65.0806 81.8214 65.0834 81.4581V61.3009H70.5891V81.4581ZM71.6204 59.2384H68.9529L69.029 34.7978C71.7056 34.4176 74.1643 32.764 76.051 30.0848C77.7675 34.2643 78.6448 38.7407 78.6329 43.2589C78.6285 50.2077 76.5455 56.9963 72.6516 62.7516V60.2697C72.6516 59.9962 72.543 59.7339 72.3496 59.5405C72.1562 59.3471 71.8939 59.2384 71.6204 59.2384Z" fill="#1D85E8" stroke="#1D85E8"/>
<path d="M44.1957 25.1516C33.8781 25.1516 25.4839 33.5597 25.4839 43.8949C25.4839 54.2301 33.8781 62.6384 44.1957 62.6384C54.5134 62.6384 62.9078 54.2301 62.9078 43.8949C62.9078 33.5597 54.5136 25.1516 44.1957 25.1516ZM44.1957 60.5751C35.0152 60.5751 27.5464 53.092 27.5464 43.8941C27.5464 34.6962 35.0152 27.2133 44.1957 27.2133C53.3763 27.2133 60.8453 34.6963 60.8453 43.8941C60.8453 53.0918 53.3763 60.5759 44.1957 60.5759V60.5751Z" fill="#1D85E8" stroke="#1D85E8"/>
</svg>
