<svg width="63" height="85" viewBox="0 0 63 85" fill="none" xmlns="http://www.w3.org/2000/svg">
<g opacity="0.2">
<path d="M14.6776 45.016C24.6431 26.0283 40.7008 11.0809 60.3627 2.48888C61.656 1.92482 60.6384 -0.0165772 59.3517 0.540919C39.3747 9.26409 22.9493 24.546 12.8197 43.842C12.1763 45.0816 14.0211 46.2622 14.6776 45.016Z" fill="#485A83"/>
<path d="M57.4799 1.89176C63.2833 10.0706 60.4801 23.5357 58.3399 32.554C55.9963 42.425 51.9457 51.7319 46.4903 60.2714C45.7288 61.4585 47.5866 62.6326 48.3416 61.4389C54.7227 51.4433 59.2196 40.3721 61.3795 28.6975C63.0535 19.6529 64.7736 8.40462 59.1015 0.409474C58.2874 -0.731752 56.6724 0.757096 57.4799 1.89176Z" fill="#485A83"/>
<path d="M10.942 45.8093C21.8529 54.1389 33.4925 62.5473 47.699 63.2425C49.1104 63.3146 49.1892 61.124 47.7778 61.0519C33.998 60.3763 22.6866 52.0204 12.1106 43.9532C10.988 43.1005 9.826 44.9566 10.942 45.8093Z" fill="#485A83"/>
<path d="M45.6507 20.9451C40.1296 24.0802 30.8009 30.8883 33.1642 38.4374C35.1403 44.7469 42.0728 42.8121 45.8804 39.6049C49.5831 36.4894 57.9073 28.2254 53.7911 22.9062C49.2351 17.0099 42.0006 22.4078 39.0924 26.8087C36.5386 30.6784 31.4442 41.4216 40.0442 42.3071C46.3269 42.9564 53.3251 34.1676 54.277 28.6714C55.5768 21.1681 48.0141 18.6693 42.5389 22.5192C38.3702 25.451 32.3239 32.3574 35.718 37.775C40.5038 45.4159 50.4168 38.4964 53.4104 32.9805C56.1742 27.8843 53.824 18.5184 46.3925 21.0567C45.0664 21.5092 45.5391 23.6474 46.8718 23.1948C50.4496 21.9749 52.918 25.5166 52.5307 28.8091C52.2681 31.0916 50.9158 33.0527 49.4321 34.7317C47.2985 37.1388 43.9175 39.6508 40.4578 38.6538C36.2103 37.4273 36.6962 32.7968 38.6 29.7995C39.7357 28.0089 41.331 26.3168 42.9656 24.9657C44.016 24.0999 46.7667 22.2176 48.1782 22.6767C49.5305 24.2377 50.8829 25.7987 52.2353 27.3531C52.0974 28.0745 51.953 28.796 51.8151 29.5175C50.8829 32.4755 48.6246 34.9219 46.3925 36.9682C45.6573 37.6372 44.9417 38.2603 44.0948 38.7916C41.5608 40.3788 36.4992 42.5694 37.6218 34.1611C38.1667 30.1077 43.5959 23.1489 47.5873 22.7357C50.0098 22.4865 50.8501 23.1686 51.7035 25.3592C52.6489 27.7728 52.2812 28.2451 50.9748 30.3111C49.7275 32.2787 48.1782 34.1152 46.6026 35.8204C45.2305 37.3093 43.7206 38.7916 41.8824 39.6967C37.7925 41.7102 33.8535 38.444 35.416 33.9053C37.0769 29.0846 42.4405 25.2871 46.642 22.8997C47.8893 22.1913 46.8849 20.2434 45.6507 20.9451Z" fill="#485A83"/>
<path d="M12.104 43.1201C7.98123 42.884 4.213 43.7039 0.556353 45.6256C1.03559 46.1437 1.50826 46.6619 1.9875 47.1866C6.58293 38.4437 14.8153 32.6786 24.6036 31.3406C26.0019 31.1504 25.5095 29.0122 24.1243 29.2024C13.8109 30.6125 4.97452 36.8106 0.13619 46.0125C-0.349613 46.9308 0.543209 48.1048 1.56733 47.5735C4.94169 45.8027 8.23071 45.1009 12.0318 45.3173C13.4367 45.3895 13.5154 43.1988 12.104 43.1201Z" fill="#485A83"/>
<path d="M53.7326 45.3962C57.4615 52.5781 57.1136 60.9471 52.8004 67.7944C53.3781 67.742 53.9624 67.6961 54.5401 67.6436C52.3277 65.3218 50.1154 63 47.903 60.6847C46.9314 59.6616 45.3033 61.1373 46.2814 62.1605C48.4938 64.4823 50.7062 66.8041 52.9186 69.1193C53.4044 69.6309 54.2709 69.5784 54.6583 68.9685C59.385 61.4718 59.7723 52.2567 55.689 44.3927C55.0259 43.1334 53.0827 44.1435 53.7326 45.3962Z" fill="#485A83"/>
<path d="M39.6704 13.6058C45.0668 18.538 51.4347 21.7255 58.6627 22.952C60.0348 23.1881 60.6913 21.0893 59.2995 20.8532C52.4785 19.6923 46.406 16.8064 41.2919 12.13C40.2612 11.1856 38.6332 12.6547 39.6704 13.6058Z" fill="#485A83"/>
<path d="M41.7385 9.89328C41.6794 10.3262 41.6269 10.7525 41.5678 11.1854C42.1258 11.651 42.6773 12.1167 43.2353 12.5824C43.9968 11.5198 44.7584 10.4639 45.5199 9.40137C44.8897 9.37513 44.2529 9.34889 43.6226 9.32266C44.4301 10.5754 44.4958 11.8347 43.8261 13.094C43.3797 14.2286 45.2704 15.1206 45.8022 13.9991C46.9117 11.6773 48.3887 10.2343 50.7587 9.21116C50.2401 8.77828 49.7214 8.35196 49.2028 7.91908C48.822 10.0376 48.4413 12.1561 48.0671 14.268C47.8242 15.6256 49.6755 16.2618 50.1679 14.9042C51.2511 11.9134 52.7479 9.33577 54.7567 6.88279C54.0805 6.67291 53.4109 6.46959 52.7347 6.25971C52.8266 9.77521 51.8025 12.7004 49.5639 15.4092C50.2204 15.7109 50.8834 16.0126 51.5399 16.3143C52.4327 12.5102 54.2118 9.55222 57.1726 6.9943C56.5621 6.71227 55.9515 6.43024 55.341 6.14821C55.0128 10.1359 53.7589 13.4613 51.4283 16.7144C52.0848 17.0161 52.7479 17.3178 53.4044 17.6195C54.4744 13.3825 56.2995 9.67027 58.9845 6.22691C58.3083 6.01703 57.6387 5.81371 56.9625 5.60383C56.7984 9.83424 55.5248 13.2776 52.9448 16.6357C53.621 16.8456 54.2906 17.0489 54.9668 17.2588C55.2031 13.4219 56.6015 10.2147 59.2996 7.45341C58.6891 7.17139 58.0786 6.88935 57.468 6.60732C57.5206 10.9361 56.4242 14.7402 54.0477 18.3607C54.7042 18.6624 55.3673 18.9641 56.0237 19.2658C56.6343 16.5504 57.6912 14.2024 59.3062 11.9462C58.63 11.7363 57.9604 11.533 57.2842 11.3231C57.2251 14.8976 56.4045 18.0655 54.6451 21.194C55.3016 21.4958 55.9646 21.7975 56.6211 22.0992C57.3827 20.2627 58.1442 18.4328 58.9058 16.5963C58.2887 16.7341 57.665 16.8784 57.0479 17.0161C57.166 17.3309 57.2777 17.6457 57.3958 17.9671C57.4877 19.0887 58.7088 19.456 59.4178 18.5902C60.1137 17.7376 60.8096 16.8849 61.5054 16.0323C60.8292 15.8224 60.1597 15.6191 59.4835 15.4092C59.5951 17.1801 59.3653 18.7083 58.7285 20.3676C59.4309 20.5775 60.1268 20.794 60.8293 21.0038C61.1181 20.1381 61.4004 19.2789 61.6893 18.4131C62.1291 17.0751 60.0349 16.4324 59.5885 17.7769C59.2996 18.6427 59.0173 19.5019 58.7285 20.3676C58.2821 21.7187 60.3238 22.309 60.8293 21.0038C61.5645 19.1018 61.8074 17.5146 61.6761 15.4879C61.6039 14.3598 60.35 14.0056 59.6541 14.8648C58.9582 15.7175 58.2624 16.5701 57.5665 17.4228C58.2427 17.6326 58.9123 17.836 59.5885 18.0458C59.49 16.8062 59.3981 16.5635 58.676 15.5469C58.1376 14.7927 57.0938 15.2911 56.8181 15.9667C56.0566 17.8032 55.295 19.6331 54.5335 21.4695C54.0608 22.6108 55.9121 23.4437 56.5095 22.3746C58.4462 18.9116 59.4244 15.3764 59.4835 11.4084C59.5032 10.2868 58.0851 9.91296 57.4615 10.7853C55.6955 13.2514 54.5992 15.6847 53.9361 18.6427C53.6735 19.8167 55.2097 20.6234 55.9122 19.5478C58.479 15.6256 59.7264 11.3887 59.6673 6.69915C59.6541 5.82027 58.525 5.13816 57.8357 5.85307C54.7173 9.04719 53.063 12.7464 52.7873 17.2063C52.715 18.3738 54.1922 18.6361 54.8093 17.8294C57.5796 14.2221 58.9845 10.2475 59.1618 5.70222C59.2077 4.54132 57.77 4.26584 57.1398 5.07913C54.33 8.68646 52.4328 12.5692 51.3167 17.003C51.0082 18.2098 52.5706 18.9181 53.2928 17.9081C55.8203 14.3729 57.1857 10.5688 57.5402 6.2466C57.619 5.2759 56.3914 4.81022 55.7086 5.40051C52.4853 8.18799 50.4304 11.5526 49.4523 15.7044C49.1568 16.9636 50.6537 17.5408 51.4283 16.6095C53.9098 13.6055 55.0456 10.2474 54.9405 6.36465C54.9077 5.21031 53.5947 4.91517 52.9186 5.74157C50.7784 8.35196 49.2291 11.1329 48.0868 14.2942C48.7892 14.5041 49.4851 14.7205 50.1875 14.9304C50.5683 12.8119 50.9491 10.6934 51.3233 8.58152C51.494 7.64362 50.6865 6.89592 49.7674 7.28944C47.0561 8.45691 45.2376 10.1884 43.9706 12.8513C44.6271 13.153 45.2901 13.4547 45.9466 13.7564C46.7082 11.8281 46.5703 10.1425 45.5921 8.33884C45.1785 7.57802 44.1741 7.58459 43.6948 8.26014C42.9333 9.32266 42.1718 10.3786 41.4103 11.4412C40.7012 12.4315 42.2505 13.7695 43.0777 12.8382C44.2528 11.5133 44.4498 10.5688 43.7211 8.91602C43.1106 7.59114 41.1674 8.60776 41.7385 9.89328Z" fill="#485A83"/>
<path d="M62.1283 9.71644C61.2158 8.61456 60.9466 7.38151 61.3077 6.00417C60.5987 5.97793 59.8962 5.9517 59.1872 5.92546C60.2048 9.723 59.7255 13.5271 57.7429 16.9311C57.0339 18.1445 58.8852 19.3251 59.5943 18.1051C61.8526 14.2289 62.4828 9.78859 61.3208 5.44668C61.0517 4.44318 59.4892 4.25953 59.2004 5.36796C58.6489 7.51269 59.0888 9.48688 60.5002 11.1922C61.4062 12.2809 63.0211 10.7986 62.1283 9.71644Z" fill="#485A83"/>
<path d="M43.2608 13.9206C45.204 15.134 47.1538 16.3408 49.097 17.5542C49.399 16.8983 49.701 16.2358 50.0029 15.58C47.935 14.9044 47.2325 12.3399 48.4799 10.6281C47.8037 10.4182 47.1341 10.2149 46.4579 10.005C45.9524 13.1795 47.6133 16.3736 50.4887 17.8099C51.7361 18.433 52.9243 16.59 51.6638 15.9604C49.399 14.8257 48.2566 12.5826 48.6571 10.0837C48.8409 8.91625 47.2063 8.67358 46.6351 9.46063C44.5344 12.3465 46.0312 16.5835 49.3727 17.6788C50.5478 18.0657 51.329 16.3605 50.2787 15.7046C48.3354 14.4912 46.3857 13.2844 44.4424 12.071C43.2345 11.3233 42.0594 13.1729 43.2608 13.9206Z" fill="#485A83"/>
<path d="M19.4629 50.8071C12.9439 60.3764 6.04422 71.9854 11.8804 83.5682C12.5172 84.8275 14.4604 83.8174 13.8302 82.5582C8.38131 71.7362 15.2811 60.8355 21.3208 51.9746C22.1152 50.8137 20.2573 49.6462 19.4629 50.8071Z" fill="#485A83"/>
<path d="M12.577 84.3617C20.1332 84.4601 27.4466 81.8956 33.1252 76.865C37.8651 72.6739 42.4277 66.0758 40.235 59.517C39.7886 58.1921 37.6484 58.6578 38.0948 59.9958C40.1759 66.2201 35.2457 72.3985 30.6502 76.0845C25.523 80.2034 19.201 82.2498 12.6492 82.171C11.2443 82.1579 11.159 84.342 12.577 84.3617Z" fill="#485A83"/>
<path d="M24.8984 55.3194C20.0076 59.294 18.0052 65.6888 19.7712 71.7425C19.9222 72.2672 20.4933 72.7657 21.0842 72.5689C27.544 70.4701 32.3955 65.7347 34.5685 59.294C35.0214 57.956 32.9207 57.3198 32.4677 58.6578C30.5573 64.3114 26.2901 68.5812 20.5984 70.4308C21.0382 70.7062 21.4715 70.9817 21.9113 71.2572C20.3489 65.9052 22.0427 60.4614 26.3755 56.9394C27.4653 56.0474 25.9882 54.4274 24.8984 55.3194Z" fill="#485A83"/>
</g>
</svg>
