<svg width="88" height="88" viewBox="0 0 88 88" fill="none" xmlns="http://www.w3.org/2000/svg">
<g clip-path="url(#clip0_644_247)">
<path d="M71.6665 10.9987C54.1642 10.9987 46.6715 1.49325 46.3687 1.09982C45.892 0.459987 45.1602 0.0584976 44.3646 8.68943e-05C43.5683 -0.0636948 42.7848 0.228358 42.2249 0.797694C34.7262 8.30447 16.4651 10.9987 16.2811 11.0263C14.9269 11.221 13.9219 12.3805 13.9219 13.7487V56.2898C13.9467 64.9756 18.5007 73.0188 25.9357 77.5097L42.7526 87.5986C43.6247 88.1223 44.7137 88.1223 45.5852 87.5986L62.4027 77.5097C69.8377 73.0188 74.391 64.9756 74.4165 56.2898V13.7487C74.4165 12.2301 73.1852 10.9987 71.6665 10.9987ZM70 56.2898C69.9772 63.0447 66.7827 69.3033 61 72.7939L44.1692 83.5L28.7703 72.7939C22.9876 69.3033 18.0228 61.746 18 54.9912V15.4912C23.0737 14.5425 36.69 10.8021 44.1692 5C51.0348 11.166 60.7738 15.2992 70 15.4912V56.2898Z" fill="#FFC258"/>
<path d="M32.3641 44.8104L28.4761 48.6984L36.7254 56.9478C37.799 58.0213 39.5399 58.0213 40.6134 56.9478L62.6114 34.9498L58.7234 31.0618L38.6697 51.1154L32.3641 44.8104Z" fill="#FFC258"/>
</g>
<defs>
<clipPath id="clip0_644_247">
<rect width="88" height="88" fill="white"/>
</clipPath>
</defs>
</svg>
