<svg width="81" height="71" viewBox="0 0 81 71" fill="none" xmlns="http://www.w3.org/2000/svg">
<g opacity="0.2">
<path d="M1.82215 32.9515C7.79055 7.02348 42.7091 -7.22904 65.3821 6.30383C71.5151 9.96377 76.4305 15.3817 79.1369 22.0094C79.4078 22.6708 80.4094 22.191 80.1384 21.5296C75.1305 9.27838 62.9296 1.44447 49.9638 0.200503C36.0615 -1.13257 21.4492 4.2614 11.5019 14.0041C6.29501 19.1033 2.41898 25.4363 0.779386 32.5677C0.621601 33.2599 1.66437 33.6471 1.82215 32.9515Z" fill="#485A83"/>
<path d="M1.01964 35.2818C3.80146 31.4162 9.0324 30.2922 13.4332 31.7761C17.985 33.3113 21.2676 37.1974 23.456 41.3131C23.7887 41.9403 24.7938 41.4673 24.4576 40.8334C21.9502 36.1248 18.033 31.6904 12.6443 30.395C8.02736 29.2847 2.93024 30.7274 0.10726 34.6478C-0.311213 35.2304 0.601166 35.8644 1.01964 35.2818Z" fill="#485A83"/>
<path d="M22.554 40.8779C32.0245 34.6033 44.0711 33.1126 54.8004 36.8376C55.4762 37.0706 55.8604 36.0323 55.1846 35.7958C44.0505 31.9337 31.6507 33.5306 21.8371 40.0349C21.2403 40.429 21.964 41.2686 22.554 40.8779Z" fill="#485A83"/>
<path d="M78.8456 20.4056C67.8075 17.7292 60.5048 29.3464 54.6358 36.6286C54.1865 37.1871 55.0989 37.8177 55.5482 37.2626C61.0261 30.4704 68.1025 18.9354 78.4648 21.4474C79.1509 21.6119 79.5419 20.5735 78.8456 20.4056Z" fill="#485A83"/>
<path d="M22.4886 40.1446C22.9379 26.2998 27.2873 12.8595 35.0599 1.38964C34.8027 1.43419 34.5454 1.48215 34.2881 1.5267C44.6608 9.59022 51.3118 21.6769 52.6289 34.7335C52.701 35.4428 53.7917 35.2441 53.7231 34.5381C52.3785 21.1869 45.5183 8.85345 34.9261 0.615155C34.6929 0.433529 34.3156 0.515762 34.1544 0.752219C26.2823 12.3729 21.8437 26.0154 21.3875 40.0418C21.36 40.7545 22.4645 40.8608 22.4886 40.1446Z" fill="#485A83"/>
<path d="M39.3133 34.3977C40.3663 40.7649 41.4194 47.1286 42.4725 53.4958C43.282 58.3826 43.5049 64.599 47.326 68.2658C50.1422 70.9628 54.6836 71.7509 58.2167 70.0512C62.0481 68.2075 64.0616 64.0096 63.6123 59.8767C63.4579 58.458 61.2729 58.8521 61.4273 60.2674C61.8732 64.3488 58.9987 68.3412 54.7934 68.6941C50.0564 69.0882 47.182 65.5037 46.1152 61.2886C45.0553 57.0975 44.5923 52.7008 43.8891 48.4411C43.0933 43.6297 42.2975 38.8218 41.5017 34.0104C41.265 32.5951 39.08 32.9858 39.3133 34.3977Z" fill="#485A83"/>
</g>
</svg>
