<svg width="151" height="196" viewBox="0 0 151 196" fill="none" xmlns="http://www.w3.org/2000/svg">
<g opacity="0.1">
<path d="M108.026 21.7796C108.745 17.8537 109.629 13.9219 110.189 9.97248C110.772 5.86412 108.233 2.42675 103.808 2.86231C100.191 3.21546 97.6458 6.55277 96.7385 9.84299C95.6132 13.916 96.6914 18.1598 98.011 22.0445C98.6002 23.769 95.8666 24.5107 95.2833 22.7979C93.5748 17.789 92.5202 12.2386 94.6883 7.18845C96.2907 3.45679 99.7254 0.178338 103.967 0.00764723C107.561 -0.1395 111.426 1.84405 112.71 5.34028C113.529 7.57692 113.07 9.90774 112.657 12.1797C112.027 15.6347 111.39 19.0839 110.754 22.5389C110.43 24.3164 107.702 23.563 108.026 21.7796Z" fill="#485A83"/>
<path d="M111.462 21.0322C125.642 25.1288 138.986 34.1166 147.146 46.5653C150.952 52.3747 151.494 59.1611 146.61 64.5467C141.661 70.003 133.773 70.9035 126.85 69.9618C118.237 68.7905 110.272 64.8351 103.95 58.908C102.619 57.6602 104.622 55.659 105.953 56.9068C112.216 62.781 120.299 66.6127 128.895 67.3661C136.83 68.0606 149.19 64.2289 147.335 53.9109C146.581 49.7201 143.493 46.012 140.777 42.8866C138.221 39.9495 135.399 37.2361 132.347 34.8229C125.943 29.7493 118.561 26.0294 110.72 23.7633C108.964 23.2571 109.706 20.5261 111.462 21.0322Z" fill="#485A83"/>
<path d="M98.3068 18.9131C99.0315 30.0669 99.3967 41.1677 95.0371 51.6858C91.2136 60.9149 85.1749 69.2788 83.7079 79.3555C83.4487 81.1507 80.721 80.3855 80.9802 78.6021C82.3706 69.0139 87.8496 60.9503 91.7202 52.2685C96.504 41.5562 96.2154 30.373 95.4731 18.9072C95.3552 17.0944 98.189 17.1003 98.3068 18.9131Z" fill="#485A83"/>
<path d="M108.104 61.9978C105.912 87.7192 103.721 113.47 103.167 139.292C102.89 152.14 103.108 164.972 103.762 177.809C103.98 182.076 104.051 186.873 101.458 190.517C98.9487 194.054 94.6892 195.055 90.5888 195.343C86.0936 195.655 81.3923 195.555 80.4261 190.252C79.1948 183.495 79.3009 176.273 79.7074 169.445C79.8134 167.638 82.6472 167.626 82.5411 169.445C82.2171 174.907 82.2583 180.381 82.7532 185.831C83.0065 188.621 82.8357 192.312 86.4353 192.606C88.7565 192.794 91.3605 192.612 93.6346 192.123C99.0959 190.958 100.922 186.65 101.022 181.499C101.117 176.596 100.598 171.658 100.439 166.761C99.7322 144.512 100.681 122.252 102.23 100.062C103.114 87.3661 104.192 74.6819 105.276 61.9978C105.429 60.1967 108.263 60.185 108.104 61.9978Z" fill="#485A83"/>
<path d="M93.0217 55.0822C85.9873 73.6758 79.2711 92.4283 71.901 110.892C70.6932 113.924 69.2793 117.008 66.7873 119.215C64.0713 121.616 60.5424 122.476 57.0252 122.882C47.2867 124 37.289 123.918 27.5093 123.571C25.6947 123.506 25.683 120.675 27.5093 120.739C36.6174 121.063 45.7491 120.957 54.8395 120.251C58.8869 119.939 63.1464 119.309 65.9389 116.048C68.4722 113.082 69.6092 109.027 70.9584 105.448C77.4036 88.4082 83.8488 71.3685 90.2939 54.3288C90.9302 52.6396 93.6697 53.3694 93.0217 55.0822Z" fill="#485A83"/>
<path d="M80.986 171.458C63.8008 170.222 46.6981 168.038 29.7485 164.913C27.9575 164.583 28.7175 161.858 30.5026 162.188C47.2047 165.266 64.0482 167.409 80.986 168.627C82.7888 168.762 82.8065 171.593 80.986 171.458Z" fill="#485A83"/>
<path d="M31.7398 165.56C28.7587 171.252 27.4862 177.432 27.8927 183.836C27.9221 184.313 27.604 184.837 27.1916 185.06C20.7405 188.515 13.0817 185.272 8.98128 179.698C3.32553 172.017 4.66873 161.27 5.11058 152.358C5.52298 144.095 4.19741 132.688 10.7781 126.401C16.2984 121.128 24.7643 120.527 31.9931 120.28C33.8135 120.215 33.8135 123.047 31.9931 123.111C25.7541 123.323 18.3309 123.688 13.3173 127.92C7.21974 133.07 8.39797 143.082 8.04449 150.257C7.66155 158.032 6.40673 166.649 9.19925 174.119C11.544 180.393 18.9908 186.243 25.76 182.618C25.5243 183.024 25.2945 183.43 25.0589 183.842C24.6229 176.95 26.0899 170.251 29.2889 164.136C30.1373 162.517 32.5822 163.948 31.7398 165.56Z" fill="#485A83"/>
<path d="M8.77457 132.805C1.88753 135.99 -3.45603 141.575 -6.22498 148.644C-6.5549 149.48 -7.92167 149.115 -7.59176 148.268C-4.6873 140.857 0.815242 134.93 8.06167 131.581C8.88057 131.204 9.59937 132.423 8.77457 132.805Z" fill="#485A83"/>
<path d="M95.7855 18.9309C95.7914 11.9149 97.388 2.57399 105.83 1.33207C107.615 1.0672 108.381 3.79237 106.584 4.05724C99.4618 5.10493 98.6193 13.1215 98.6193 18.9309C98.6193 20.7497 95.7855 20.7555 95.7855 18.9309Z" fill="#485A83"/>
<path d="M118.16 38.1835C117.895 38.1717 118.201 38.1364 118.29 38.1069C118.148 38.1481 118.213 38.207 118.284 38.1069C118.496 37.8244 118.178 38.3365 118.313 38.0069C118.301 38.0481 118.29 38.0893 118.272 38.1246C118.237 38.2659 118.237 38.2894 118.254 38.1835C118.284 38.1952 118.189 37.8362 118.272 38.1128C118.26 38.0834 118.119 37.848 118.219 37.9716C118.319 38.0893 118.166 37.9127 118.089 37.9068C118.219 37.9186 118.407 38.0775 118.231 37.9539C118.278 37.9539 118.319 37.9539 118.366 37.9539C118.237 37.9774 118.219 37.9833 118.319 37.9598C118.413 37.9421 118.602 37.8597 118.413 37.9362C118.549 37.8774 118.519 37.8244 118.425 37.948C118.36 38.0363 118.537 37.7656 118.555 37.7302C118.46 37.9774 118.578 37.4536 118.543 37.742C118.549 37.7067 118.537 37.3535 118.555 37.4889C118.567 37.6007 118.49 37.2476 118.49 37.2417C118.561 37.4418 118.384 37.071 118.372 37.0475C118.779 37.2829 119.185 37.5125 119.597 37.7479C119.515 37.7361 119.438 37.7361 119.356 37.742C119.403 37.7361 119.45 37.7302 119.497 37.7302C119.368 37.7714 119.35 37.7773 119.444 37.7361C119.539 37.6949 119.527 37.7067 119.403 37.7714C119.515 37.6773 119.527 37.6655 119.456 37.7302C119.409 37.7714 119.368 37.8126 119.327 37.8538C119.515 37.6655 119.309 37.9009 119.268 37.9598C119.103 38.2129 119.415 37.8126 119.226 38.0716C119.215 38.1128 119.209 38.1481 119.197 38.1893C119.215 38.0128 119.22 38.001 119.215 38.1658C119.215 38.207 119.22 38.2423 119.22 38.2835C119.197 38.1187 119.197 38.0893 119.22 38.1952C119.25 38.2953 119.238 38.2717 119.191 38.1305C119.232 38.2011 119.273 38.2659 119.327 38.3306C118.678 38.1599 118.036 37.9951 117.388 37.8244C117.742 37.589 117.901 37.1828 117.913 36.8356C117.936 36.0704 118.549 35.423 119.327 35.423C120.075 35.423 120.764 36.0704 120.74 36.8356C120.699 38.2659 119.998 39.4784 118.814 40.2671C118.131 40.7262 117.312 40.3436 116.876 39.7609C115.774 38.2776 116.605 35.9821 118.178 35.2111C118.62 34.9933 119.097 34.8815 119.592 34.9109C120.299 34.958 120.74 35.3818 121.023 35.9998C121.483 36.9945 121.512 38.1599 121 39.1429C120.081 40.9263 117.441 41.3618 116.086 39.8139C114.643 38.1658 115.88 35.2287 118.154 35.3406C118.92 35.3759 119.568 35.9645 119.568 36.7532C119.574 37.5066 118.926 38.2188 118.16 38.1835Z" fill="#485A83"/>
<path d="M143.729 45.3114C132.612 46.0059 122.909 55.1291 121.648 66.2122C121.447 68.0016 118.608 68.0192 118.814 66.2122C120.257 53.5281 130.938 43.2808 143.723 42.4803C145.549 42.3684 145.537 45.1996 143.729 45.3114Z" fill="#485A83"/>
<path d="M142.15 57.766C141.608 58.4959 141.066 59.2316 140.524 59.9614C140.241 59.2669 139.959 58.5783 139.676 57.8837C139.741 57.9073 139.806 57.9308 139.87 57.9426C139.97 57.9661 139.959 57.9661 139.823 57.9367C139.864 57.9367 139.912 57.9367 139.953 57.9367C139.817 57.9602 139.8 57.9661 139.9 57.9426C139.988 57.9308 140.183 57.8543 140 57.9308C140.112 57.8837 140.247 57.8013 140.348 57.7248C140.194 57.8484 140.359 57.6954 140.412 57.6306C140.477 57.5541 140.471 57.5659 140.395 57.6542C140.418 57.6189 140.442 57.5777 140.465 57.5423C140.536 57.407 140.548 57.3834 140.501 57.4717C140.459 57.56 140.465 57.5306 140.512 57.3893C140.507 57.4305 140.501 57.4658 140.501 57.507C140.507 57.4187 140.507 57.3304 140.495 57.2422C141.373 57.4776 142.256 57.7189 143.134 57.9544C142.769 58.5547 142.398 59.161 142.032 59.7613C141.219 59.2846 140.401 58.8078 139.588 58.331C139.747 58.0956 139.546 58.5665 139.599 58.7136C139.629 58.796 139.859 59.0079 139.635 58.8255C140.094 58.9491 140.554 59.0668 141.013 59.1904C140.848 59.2492 140.819 59.2492 140.919 59.2022C140.825 59.2492 140.736 59.2963 140.654 59.3552C140.713 59.3081 140.577 59.4494 140.536 59.5141C140.13 60.1557 139.275 60.4147 138.598 60.0203C137.956 59.6436 137.679 58.7313 138.091 58.0838C138.686 57.1421 140.171 55.9119 141.355 56.6006C142.409 57.2186 142.722 58.7607 142.038 59.7554C141.608 60.3852 140.795 60.6678 140.1 60.2616C139.446 59.879 139.193 58.9785 139.593 58.3252C139.959 57.7248 140.33 57.1186 140.695 56.5182C141.455 55.2763 143.24 55.859 143.334 57.2304C143.482 59.4611 141.049 61.3093 138.939 60.603C138.156 60.344 137.514 59.3022 138.091 58.5253C138.633 57.7954 139.175 57.0597 139.717 56.3298C140.171 55.7177 140.943 55.4058 141.655 55.8237C142.245 56.1827 142.61 57.148 142.15 57.766Z" fill="#485A83"/>
<path d="M115.533 23.0391C118.155 19.0014 121.307 15.358 125.065 12.3268C126.509 11.1613 128.2 9.57804 130.214 9.86056C130.91 9.96062 132.035 10.9436 132.642 10.096C133.178 9.34261 129.331 9.21311 128.836 9.24254C129.307 8.77167 129.778 8.3008 130.25 7.82993C130.067 8.87173 130.527 9.61924 131.634 10.0783C131.039 10.5316 130.438 10.9848 129.843 11.4439C129.832 11.0907 129.82 10.7317 129.808 10.3785C129.59 10.9083 129.372 11.4439 129.16 11.9736C128.883 11.2261 128.606 10.4845 128.329 9.73696C127.693 8.03005 130.432 7.28843 131.057 8.98357C131.334 9.73108 131.611 10.4727 131.888 11.2202C132.088 11.7617 131.764 12.5622 131.24 12.8153C128.977 13.9042 124.995 11.6028 126.903 8.91882C128.812 6.23485 132.559 8.94825 132.677 11.438C132.718 12.3091 131.734 13.1037 130.886 12.8035C128.659 12.0148 127.304 10.2431 127.422 7.82993C127.463 7.03533 128.041 6.45851 128.836 6.41731C131.116 6.28782 134.097 6.44085 135.175 8.84819C135.87 10.408 135.44 12.5916 133.849 13.4392C133.001 13.8865 132.159 13.7982 131.293 13.4333C129.979 12.8859 130.273 12.3326 128.27 13.4157C127.404 13.8865 126.403 14.8695 125.643 15.5405C122.673 18.1538 120.14 21.1556 117.99 24.4694C116.988 25.9938 114.537 24.5753 115.533 23.0391Z" fill="#485A83"/>
<path d="M124.941 26.3648C128.352 23.9103 131.758 21.4618 135.169 19.0074C135.452 18.8014 135.958 18.8131 136.241 19.0074C137.425 20.1316 138.71 19.7549 140.088 17.8832C139.994 18.5777 139.9 19.2722 139.805 19.9668C138.898 19.7078 137.991 19.4429 137.083 19.184C137.425 18.5954 137.773 18.0009 138.114 17.4123C138.692 17.3829 139.275 17.3534 139.852 17.324C140.607 16.1939 142.445 17.2534 141.685 18.3952C140.477 20.2199 138.168 20.5377 136.606 18.9132C135.888 18.1598 136.6 16.8414 137.637 17.1415C138.545 17.4005 139.452 17.6654 140.359 17.9244C141.585 18.2775 141.213 19.8726 140.076 20.008C138.474 20.2022 137.514 18.0892 138.527 16.8885C139.852 15.3228 141.649 17.1474 141.72 18.6954C141.838 21.3441 139.146 22.5213 136.895 21.7973C136.247 21.5913 136.07 21.35 135.375 21.4559C134.421 21.6031 132.771 23.3335 131.964 23.9103C129.973 25.3406 127.987 26.7709 125.996 28.2012C124.9 28.9958 123.84 27.1535 124.941 26.3648Z" fill="#485A83"/>
<path d="M72.7612 168.256C72.9026 173.171 70.8406 177.985 71.4886 182.883C71.8009 185.249 72.7965 187.821 75.1826 188.745C77.274 189.557 80.0724 188.992 80.7853 186.632C81.18 185.331 83.2303 185.884 82.8355 187.197C81.4511 191.759 75.265 192.382 72.1131 189.239C66.5103 183.654 70.8346 174.884 70.6402 168.25C70.5931 166.891 72.72 166.896 72.7612 168.256Z" fill="#485A83"/>
<path d="M39.3218 164.242C41.8669 172.906 34.5674 180.758 25.7657 179.175C24.4224 178.933 24.9939 176.885 26.3312 177.126C33.6012 178.433 39.3277 171.8 37.2775 164.807C36.8887 163.495 38.9389 162.929 39.3218 164.242Z" fill="#485A83"/>
<path d="M102.978 103.335C98.4529 103.293 94.1522 106.554 93.5984 111.18C93.0446 115.813 96.4616 119.98 100.863 121.016C102.194 121.328 101.628 123.376 100.297 123.064C94.8945 121.793 90.7882 116.537 91.4775 110.898C92.1668 105.247 97.4278 101.163 102.978 101.216C104.344 101.227 104.35 103.346 102.978 103.335Z" fill="#485A83"/>
<path d="M58.6692 123.07C57.0255 129.315 50.9455 134.053 44.3648 133.418C37.9196 132.794 32.9944 127.408 32.2344 121.134C32.0694 119.78 34.1962 119.792 34.3553 121.134C35.0092 126.508 39.6458 131.14 45.1543 131.346C50.5273 131.546 55.2875 127.579 56.619 122.505C56.9725 121.187 59.0227 121.746 58.6692 123.07Z" fill="#485A83"/>
<path d="M81.3571 134.342C74.9296 130.439 66.6521 138.627 72.8676 144.395C79.0771 150.157 86.6181 140.628 81.0036 135.454C79.9962 134.524 81.5044 133.029 82.5059 133.953C85.6342 136.837 85.7697 141.782 83.3602 145.195C80.6207 149.074 75.4775 149.263 71.9191 146.378C68.2841 143.436 67.2059 138.126 70.4344 134.465C73.4096 131.093 78.5704 130.175 82.4293 132.517C83.5958 133.218 82.5295 135.054 81.3571 134.342Z" fill="#485A83"/>
<path d="M85.687 76.8245C91.5371 81.6038 89.2867 90.7447 81.9578 92.3927C80.6264 92.6929 80.0608 90.6446 81.3922 90.3444C87.26 89.026 88.8036 82.0924 84.1847 78.3195C83.1302 77.4602 84.6384 75.9651 85.687 76.8245Z" fill="#485A83"/>
<path d="M24.6518 133.435C28.11 135.13 32.1162 137.697 31.7745 142.117C31.4504 146.308 26.8375 147.72 23.2496 147.226C19.5852 146.72 15.9148 144.189 15.4376 140.298C15.0252 136.914 16.9635 133.565 20.3098 132.664C21.6295 132.311 22.195 134.353 20.8754 134.712C18.4776 135.36 17.0813 137.95 17.5821 140.369C18.1536 143.129 20.9343 144.754 23.5383 145.113C26.5547 145.531 30.3841 144.265 29.5004 140.498C28.8582 137.785 25.8595 136.378 23.5854 135.266C22.3482 134.665 23.4264 132.835 24.6518 133.435Z" fill="#485A83"/>
<path d="M106.265 63.5048C102.5 61.7449 99.1776 66.23 99.59 69.6262C100.044 73.3402 103.154 76.0653 106.106 77.9959C107.243 78.7375 106.182 80.5798 105.034 79.8264C100.886 77.1189 96.1435 72.3808 97.6223 66.9069C98.7534 62.722 103.201 59.7437 107.331 61.6743C108.574 62.2511 107.496 64.0816 106.265 63.5048Z" fill="#485A83"/>
</g>
</svg>
